<svg width="24" height="24" viewBox="0 0 24 24" fill="none" xmlns="http://www.w3.org/2000/svg">
<mask id="mask0_1_815" style="mask-type:alpha" maskUnits="userSpaceOnUse" x="0" y="0" width="24" height="24">
<rect width="24" height="24" fill="#D9D9D9"/>
</mask>
<g mask="url(#mask0_1_815)">
<path d="M12 22C11.7167 22 11.4792 21.9042 11.2875 21.7125C11.0958 21.5209 11 21.2834 11 21V5.82505L7.09999 9.70005C6.91665 9.88338 6.68749 9.97922 6.41249 9.98755C6.13749 9.99588 5.89999 9.90005 5.69999 9.70005C5.51665 9.51672 5.42499 9.28338 5.42499 9.00005C5.42499 8.71672 5.51665 8.48338 5.69999 8.30005L11.3 2.70005C11.4 2.60005 11.5083 2.52922 11.625 2.48755C11.7417 2.44588 11.8667 2.42505 12 2.42505C12.1333 2.42505 12.2583 2.44588 12.375 2.48755C12.4917 2.52922 12.6 2.60005 12.7 2.70005L18.3 8.30005C18.4833 8.48338 18.575 8.71255 18.575 8.98755C18.575 9.26255 18.4833 9.50005 18.3 9.70005C18.1 9.90005 17.8625 10 17.5875 10C17.3125 10 17.075 9.90005 16.875 9.70005L13 5.82505V21C13 21.2834 12.9042 21.5209 12.7125 21.7125C12.5208 21.9042 12.2833 22 12 22Z" fill="#FF7757"/>
</g>
</svg>
