<svg width="48" height="48" viewBox="0 0 48 48" fill="none" xmlns="http://www.w3.org/2000/svg">
<rect width="48" height="48" rx="24" fill="#FF7757"/>
<mask id="mask0_1_46" style="mask-type:alpha" maskUnits="userSpaceOnUse" x="12" y="12" width="24" height="24">
<rect x="12" y="12" width="24" height="24" fill="#D9D9D9"/>
</mask>
<g mask="url(#mask0_1_46)">
<path d="M15.875 28.6923C15.4596 28.641 15.1058 28.4548 14.8135 28.1336C14.5212 27.8125 14.375 27.4346 14.375 27V19.15C14.375 18.9385 14.433 18.7359 14.549 18.5423C14.6651 18.3488 14.8288 18.1949 15.0404 18.0808L21.9462 14.6231C22.0474 14.559 22.158 14.5177 22.2779 14.4991C22.3977 14.4805 22.5134 14.4712 22.625 14.4712C22.7365 14.4712 22.8522 14.4805 22.9721 14.4991C23.092 14.5177 23.2025 14.559 23.3038 14.6231L30.0596 18.0808C30.234 18.1616 30.3775 18.2943 30.4904 18.4789C30.6032 18.6635 30.6814 18.8564 30.725 19.0577H28.6943L22.625 15.9808L15.875 19.3308V28.6923ZM19.4327 32.5C18.9276 32.5 18.5 32.325 18.15 31.975C17.8 31.625 17.625 31.1974 17.625 30.6923V22.3077C17.625 21.8026 17.8 21.375 18.15 21.025C18.5 20.675 18.9276 20.5 19.4327 20.5H31.8173C32.3224 20.5 32.75 20.675 33.1 21.025C33.45 21.375 33.625 21.8026 33.625 22.3077V30.6923C33.625 31.1974 33.45 31.625 33.1 31.975C32.75 32.325 32.3224 32.5 31.8173 32.5H19.4327ZM25.625 26.7731C25.7019 26.7731 25.7721 26.7663 25.8356 26.7529C25.899 26.7394 25.966 26.716 26.0365 26.6827L31.7558 23.7307C31.857 23.6769 31.9439 23.5968 32.0163 23.4904C32.0888 23.384 32.125 23.2583 32.125 23.1134C32.125 22.857 32.0221 22.6606 31.8163 22.524C31.6106 22.3875 31.3859 22.3833 31.1423 22.5115L25.625 25.35L20.1173 22.5115C19.898 22.3936 19.6779 22.3978 19.4567 22.524C19.2356 22.6503 19.125 22.8468 19.125 23.1134C19.125 23.2583 19.1622 23.384 19.2365 23.4904C19.3109 23.5968 19.4019 23.6769 19.5096 23.7307L25.2135 26.6827C25.2673 26.7096 25.4045 26.7397 25.625 26.7731Z" fill="white"/>
</g>
</svg>
