<svg width="48" height="48" viewBox="0 0 48 48" fill="none" xmlns="http://www.w3.org/2000/svg">
<rect width="48" height="48" fill="#F5F5F5"/>
<g id="VeDienTu" clip-path="url(#clip0_0_1)">
<rect width="1920" height="6043" transform="translate(-300 -5535)" fill="white"/>
<g id="lien-he-section">
<rect width="1920" height="648" transform="translate(-300 -188)" fill="#FFF6EC"/>
<g id="Layer_1" clip-path="url(#clip1_0_1)">
<path id="Vector" fill-rule="evenodd" clip-rule="evenodd" d="M1377.24 -101.271L1376.51 -97.106L1376.58 -96.4619C1376.81 -98.0784 1377.03 -99.682 1377.24 -101.271ZM1376.92 -119.427C1376.25 -115.938 1375.55 -112.39 1374.82 -108.781C1374.98 -107.892 1375.14 -106.994 1375.29 -106.08C1375.92 -109.769 1376.51 -113.381 1377.08 -116.925C1377.03 -117.77 1376.98 -118.599 1376.92 -119.427ZM1379.63 -134.02L1378.69 -128.846L1378.78 -128.066C1379.08 -130.074 1379.36 -132.058 1379.63 -134.017V-134.02ZM688.798 323.613L688.687 323.707L688.815 323.606L688.798 323.615V323.613ZM1375.5 -133.184C1374.54 -128.661 1373.53 -124.039 1372.49 -119.329C1372.8 -118.16 1373.1 -116.964 1373.39 -115.74C1374.3 -120.395 1375.17 -124.946 1375.99 -129.392C1375.84 -130.682 1375.67 -131.942 1375.5 -133.184ZM1379.23 -151.376C1378.51 -147.727 1377.76 -144.023 1376.98 -140.244C1377.15 -139.355 1377.31 -138.455 1377.46 -137.538C1378.14 -141.377 1378.79 -145.138 1379.4 -148.819C1379.34 -149.683 1379.29 -150.531 1379.23 -151.376ZM1382.2 -167.011C1381.81 -164.836 1381.39 -162.636 1380.97 -160.411L1381.09 -159.458C1381.48 -162.017 1381.85 -164.533 1382.2 -167.009V-167.011ZM705.971 309.741L704.226 310.562C702.21 312.289 700.196 314.006 698.182 315.716L699.503 315.021C701.657 313.272 703.814 311.513 705.971 309.743V309.741ZM716.428 304.721L716.192 304.838L714.425 306.31L716.428 304.723V304.721ZM1374.44 -65.0907L1374.5 -64.5789L1374.97 -68.1743L1374.44 -65.0907ZM1372.77 -77.0541C1372.92 -76.1712 1373.07 -75.2798 1373.21 -74.3735C1373.79 -77.922 1374.35 -81.4108 1374.87 -84.8313C1374.83 -85.6544 1374.77 -86.4669 1374.72 -87.273C1374.09 -83.9186 1373.44 -80.513 1372.77 -77.0519V-77.0541ZM1370.48 -87.9341C1370.78 -86.742 1371.07 -85.5329 1371.35 -84.2896C1372.2 -88.8041 1373.02 -93.2227 1373.79 -97.5495C1373.65 -98.8482 1373.48 -100.123 1373.31 -101.375C1372.4 -96.9759 1371.46 -92.5019 1370.48 -87.9341H1370.48ZM1367.6 -97.6028C1368.04 -96.3362 1368.46 -95.0268 1368.88 -93.6876C1369.99 -98.957 1371.06 -104.105 1372.08 -109.142C1371.8 -110.637 1371.5 -112.093 1371.19 -113.511L1369.97 -108.144C1369.16 -104.6 1368.37 -101.089 1367.6 -97.6028ZM722.918 295.639C721.954 296.052 720.992 296.455 720.027 296.861C717.371 299.189 714.713 301.509 712.059 303.81L714.743 302.495C717.467 300.228 720.192 297.94 722.92 295.641L722.918 295.639ZM733.7 290.845C733.047 291.146 732.39 291.457 731.737 291.751C729.625 293.551 727.517 295.34 725.408 297.121L726.958 296.315C729.205 294.504 731.451 292.679 733.7 290.845ZM744.272 285.872L743.799 286.1L740.366 288.932L744.272 285.874V285.872ZM1372.51 -32.7983L1372.56 -32.391L1372.91 -35.2059L1372.51 -32.7983ZM1370.83 -45.0687C1370.98 -44.188 1371.12 -43.2945 1371.26 -42.3924C1371.8 -45.8257 1372.31 -49.1994 1372.8 -52.5175L1372.65 -54.923C1372.07 -51.6859 1371.46 -48.4039 1370.83 -45.0708V-45.0687ZM1368.63 -55.9658C1368.9 -54.8441 1369.16 -53.6989 1369.41 -52.5367C1370.22 -56.9425 1370.98 -61.2544 1371.71 -65.481C1371.57 -66.7925 1371.41 -68.0848 1371.24 -69.3557C1370.83 -67.3022 1370.41 -65.2294 1369.98 -63.1395C1369.52 -60.7319 1369.08 -58.3435 1368.64 -55.9658H1368.63ZM1365.91 -65.7284C1366.29 -64.5832 1366.65 -63.4189 1366.99 -62.2225L1367.27 -63.6534L1367.27 -63.6748C1368.23 -68.3343 1369.14 -72.9 1370.01 -77.3718C1369.75 -78.8688 1369.47 -80.3317 1369.17 -81.7605C1368.05 -76.344 1366.96 -71.002 1365.92 -65.7284H1365.91ZM1362.61 -74.5526C1363.13 -73.3563 1363.63 -72.1195 1364.11 -70.8506C1365.13 -75.9068 1366.18 -81.0226 1367.27 -86.2068V-86.2174L1367.69 -88.1388C1367.3 -89.6316 1366.89 -91.0795 1366.46 -92.4891C1365.13 -86.4179 1363.85 -80.4405 1362.61 -74.5526ZM739.929 281.11C738.67 281.6 737.412 282.087 736.155 282.564C733.006 285.383 729.86 288.188 726.715 290.971C727.91 290.442 729.105 289.921 730.301 289.38C733.51 286.646 736.721 283.886 739.929 281.11ZM750.794 276.715C749.757 277.15 748.725 277.572 747.688 277.997C744.947 280.385 742.207 282.765 739.468 285.125L742.365 283.733C745.175 281.411 747.982 279.069 750.794 276.713V276.715ZM761.667 271.996L759.474 272.981C757.264 274.851 755.052 276.717 752.844 278.568L754.67 277.63C757.002 275.766 759.334 273.885 761.667 271.996ZM772.328 267.106L771.611 267.438L767.131 271.098L767.267 271.025C768.953 269.725 770.64 268.419 772.328 267.106ZM1369.15 12.9203L1369.08 11.9224C1368.71 15.0699 1368.35 18.1898 1368 21.2883C1368.4 18.4606 1368.78 15.6713 1369.15 12.9203ZM1370.74 -0.316071L1370.78 0.00805664L1371.04 -2.21613L1370.74 -0.316071ZM1369.13 -12.2112C1369.24 -11.5181 1369.35 -10.825 1369.46 -10.1213C1369.96 -13.4288 1370.43 -16.683 1370.88 -19.8817C1370.83 -20.6964 1370.78 -21.5131 1370.73 -22.3149L1369.98 -18.1118L1369.13 -12.2112H1369.13ZM1367.08 -22.927C1367.26 -22.1379 1367.44 -21.3447 1367.6 -20.5364C1368.36 -24.8228 1369.08 -29.028 1369.76 -33.1523C1369.63 -34.3721 1369.48 -35.5727 1369.33 -36.7562C1368.55 -32.0903 1367.8 -27.4841 1367.08 -22.927ZM1364.51 -32.9199C1364.81 -31.9069 1365.11 -30.8833 1365.39 -29.8341C1365.99 -33.5575 1366.61 -37.3107 1367.26 -41.1044L1367.26 -41.1385L1368.06 -45.3161C1367.84 -46.602 1367.61 -47.8687 1367.37 -49.1077C1366.38 -43.6357 1365.43 -38.2426 1364.52 -32.9241L1364.51 -32.9199ZM1361.4 -42.0683C1361.84 -40.9317 1362.27 -39.7716 1362.69 -38.5816C1363.69 -44.3287 1364.74 -50.159 1365.84 -56.0831C1365.51 -57.4457 1365.16 -58.7849 1364.8 -60.0858C1363.61 -53.9825 1362.48 -47.9817 1361.4 -42.0704L1361.4 -42.0683ZM1357.75 -50.336C1358.33 -49.1759 1358.9 -47.9774 1359.45 -46.747C1360.6 -52.9696 1361.82 -59.2925 1363.09 -65.7241C1362.62 -67.1273 1362.13 -68.4836 1361.63 -69.8057C1360.27 -63.1992 1358.97 -56.7143 1357.75 -50.3381L1357.75 -50.336ZM757.06 266.116C755.586 266.63 754.111 267.142 752.639 267.639C749.077 270.9 745.512 274.137 741.949 277.352C743.385 276.781 744.819 276.203 746.259 275.612C749.857 272.471 753.459 269.307 757.06 266.116ZM767.942 262.161C766.619 262.662 765.296 263.154 763.976 263.641C760.735 266.528 757.497 269.394 754.259 272.241C755.517 271.699 756.778 271.162 758.039 270.607C761.337 267.814 764.639 264.995 767.94 262.161H767.942ZM778.881 257.872C777.778 258.322 776.675 258.755 775.575 259.194C772.737 261.651 769.9 264.093 767.065 266.519L770.158 265.078C773.064 262.692 775.974 260.292 778.881 257.872ZM789.866 253.242L787.47 254.275C785.151 256.222 782.834 258.16 780.515 260.088L782.557 259.071C784.991 257.143 787.429 255.2 789.866 253.245V253.242ZM800.716 248.393L799.698 248.862C798.083 250.174 796.47 251.481 794.856 252.78L795.289 252.552C797.098 251.174 798.905 249.786 800.714 248.393H800.716ZM1365.91 11.5684L1366.17 12.8777C1366.52 9.94339 1366.88 6.98987 1367.25 4.00864L1367.26 3.95532L1367.98 -0.501587L1367.76 -2.42725C1367.11 2.29626 1366.49 6.96216 1365.91 11.5684ZM1363.47 1.20227C1363.69 2.04248 1363.91 2.8912 1364.13 3.75275C1364.84 -1.54651 1365.58 -6.91827 1366.36 -12.3668C1366.2 -13.3051 1366.04 -14.2285 1365.87 -15.1455C1365.03 -9.61377 1364.22 -4.16736 1363.47 1.20013V1.20227ZM1360.53 -8.42383C1360.89 -7.3725 1361.25 -6.29559 1361.59 -5.20377C1362.44 -11.034 1363.34 -16.9539 1364.29 -22.9696C1364.02 -24.183 1363.73 -25.3729 1363.44 -26.5437C1362.41 -20.4021 1361.44 -14.3629 1360.53 -8.42596V-8.42383ZM1357.08 -17.2033C1357.59 -16.0646 1358.08 -14.9024 1358.56 -13.7082C1359.55 -19.9756 1360.59 -26.3496 1361.7 -32.8388C1361.29 -34.1738 1360.88 -35.4746 1360.44 -36.7456C1359.25 -30.1092 1358.14 -23.5966 1357.08 -17.2033ZM1353.13 -25.1149C1353.78 -23.974 1354.4 -22.8054 1355.01 -21.5941C1356.12 -28.222 1357.3 -34.9734 1358.55 -41.855C1358.01 -43.207 1357.46 -44.5249 1356.88 -45.7959C1355.55 -38.7586 1354.3 -31.8685 1353.13 -25.1149H1353.13ZM250.141 151.04L251.946 151.317L251.585 150.995L249.708 150.539L250.141 151.04ZM774.38 250.615C772.754 251.11 771.133 251.588 769.514 252.057C765.591 255.714 761.668 259.352 757.744 262.96C759.355 262.391 760.966 261.804 762.581 261.214C766.515 257.708 770.446 254.174 774.38 250.615ZM785.222 247.137C783.688 247.653 782.152 248.163 780.62 248.66C776.974 251.976 773.326 255.273 769.68 258.544C771.178 257.966 772.678 257.377 774.177 256.782C777.859 253.592 781.539 250.376 785.222 247.137ZM796.193 243.294C794.8 243.802 793.407 244.309 792.016 244.802C788.688 247.747 785.36 250.675 782.03 253.579C783.365 253.023 784.703 252.462 786.041 251.888C789.424 249.044 792.81 246.177 796.193 243.294ZM807.267 239.102C806.081 239.567 804.893 240.034 803.707 240.488C800.771 243.009 797.836 245.514 794.9 248.003C795.997 247.51 797.093 247.024 798.194 246.521C801.217 244.064 804.244 241.591 807.267 239.1V239.102ZM818.375 234.6L815.709 235.709C813.279 237.729 810.851 239.737 808.423 241.733C809.179 241.373 809.932 241.021 810.687 240.654C813.249 238.65 815.811 236.63 818.373 234.6H818.375ZM829.364 229.87L827.952 230.489C826.196 231.898 824.44 233.301 822.683 234.7L823.551 234.263C825.488 232.809 827.427 231.344 829.362 229.87H829.364ZM1365.22 48.1812L1365.26 48.354L1365.73 42.9012L1365.22 48.1812ZM1362.88 37.1178C1363.03 37.7341 1363.18 38.3462 1363.32 38.971C1363.86 33.5523 1364.45 28.0526 1365.07 22.4676L1364.78 20.6016C1364.1 26.1952 1363.47 31.6992 1362.88 37.1157V37.1178ZM1360.08 26.8371C1360.37 27.7754 1360.65 28.72 1360.93 29.6818C1361.6 23.7471 1362.33 17.71 1363.12 11.5705C1362.9 10.5341 1362.68 9.5105 1362.45 8.50183C1361.6 14.7245 1360.81 20.8362 1360.08 26.8371ZM1356.82 17.3666C1357.24 18.4627 1357.65 19.5865 1358.06 20.7253C1358.86 14.3683 1359.73 7.89618 1360.66 1.30035C1360.32 0.0592651 1359.97 -1.15201 1359.61 -2.34619C1358.61 4.35623 1357.68 10.9243 1356.82 17.3645V17.3666ZM1353.09 8.7684C1353.65 9.91782 1354.19 11.0949 1354.72 12.2998C1355.64 5.608 1356.63 -1.21384 1357.7 -8.18073C1357.23 -9.50714 1356.75 -10.808 1356.25 -12.0704C1355.11 -4.97131 1354.06 1.97211 1353.09 8.7684H1353.09ZM1348.9 1.021C1349.58 2.15976 1350.26 3.31772 1350.92 4.52258C1351.93 -2.44644 1353.04 -9.56683 1354.23 -16.8472C1353.63 -18.1651 1353.01 -19.4361 1352.37 -20.675C1351.12 -13.2731 1349.96 -6.04398 1348.9 1.021H1348.9ZM261.004 155.843L262.813 156.018L262.651 155.9L260.705 155.561L261.004 155.843ZM253.68 155.188L256.492 155.429L255.722 154.721L252.904 154.267L253.678 155.186L253.68 155.188ZM791.973 234.534C790.226 234.986 788.483 235.421 786.74 235.843C782.504 239.867 778.263 243.87 774.024 247.843C775.76 247.31 777.501 246.76 779.244 246.203C783.487 242.341 787.73 238.449 791.973 234.534ZM802.715 231.591C801.027 232.079 799.342 232.553 797.659 233.016C793.648 236.733 789.633 240.43 785.62 244.1C787.291 243.535 788.963 242.951 790.636 242.362C794.661 238.797 798.687 235.206 802.713 231.591H802.715ZM813.629 228.267C812.035 228.774 810.442 229.271 808.85 229.759C805.098 233.144 801.345 236.511 797.593 239.852C799.156 239.272 800.724 238.677 802.292 238.076C806.07 234.83 809.849 231.559 813.627 228.264L813.629 228.267ZM824.696 224.573C823.239 225.081 821.782 225.571 820.329 226.062C816.886 229.081 813.441 232.084 809.998 235.065C811.41 234.498 812.827 233.913 814.243 233.331C817.729 230.433 821.213 227.514 824.698 224.573H824.696ZM835.901 220.526C834.635 220.999 833.373 221.462 832.11 221.922C829.053 224.518 825.995 227.102 822.938 229.668C824.131 229.154 825.326 228.629 826.518 228.105C829.646 225.595 832.773 223.068 835.901 220.523V220.526ZM847.154 216.167C846.147 216.568 845.142 216.96 844.135 217.357C841.569 219.464 839 221.562 836.43 223.648L839.122 222.402C841.799 220.338 844.474 218.257 847.152 216.167H847.154ZM858.236 211.61L856.459 212.352C854.548 213.862 852.636 215.365 850.723 216.864L851.971 216.256C854.059 214.715 856.148 213.166 858.236 211.607V211.61ZM1362.95 75.7694L1363.15 76.7653C1363.5 71.2357 1363.89 65.6144 1364.33 59.9015L1364.24 59.234C1363.76 64.8403 1363.34 70.3507 1362.95 75.7672V75.7694ZM1360.22 64.3797C1360.43 65.1602 1360.64 65.9557 1360.84 66.7511C1361.32 60.682 1361.85 54.4998 1362.43 48.2004C1362.28 47.3901 1362.12 46.5947 1361.97 45.7993C1361.32 52.1157 1360.74 58.3064 1360.22 64.3797ZM1357.09 53.9731C1357.43 54.9988 1357.77 56.0417 1358.1 57.0994C1358.7 50.6166 1359.36 44.0015 1360.09 37.2522C1359.81 36.1219 1359.53 35.0131 1359.24 33.9191C1358.45 40.7495 1357.73 47.4327 1357.09 53.9753L1357.09 53.9731ZM1353.54 44.4728C1354.01 45.6137 1354.47 46.7717 1354.93 47.9552C1355.63 41.1525 1356.41 34.1984 1357.27 27.0908C1356.87 25.8156 1356.46 24.5596 1356.04 23.3312C1355.11 30.5455 1354.28 37.5891 1353.53 44.4728H1353.54ZM1349.57 35.8597C1350.16 37.0283 1350.75 38.2225 1351.32 39.4487C1352.12 32.3858 1353.01 25.1545 1353.99 17.7548C1353.46 16.4219 1352.93 15.119 1352.37 13.8544C1351.34 21.3779 1350.4 28.7115 1349.57 35.8618V35.8597ZM1345.19 28.1144C1345.91 29.2617 1346.61 30.4367 1347.3 31.648C1348.17 24.3719 1349.15 16.9124 1350.23 9.26312C1349.59 7.95804 1348.92 6.69135 1348.24 5.46301C1347.1 13.2189 1346.09 20.7679 1345.19 28.1123L1345.19 28.1144ZM272.745 159.926L273.808 159.973L272.624 159.835L272.745 159.929V159.926ZM264.984 159.621L267.879 159.728L267.233 159.246L264.278 158.941L264.984 159.619V159.621ZM257.181 159.393L260.846 159.491L259.807 158.508L256.18 158.18L257.181 159.393ZM222.839 132.709C223.792 133.663 224.75 134.605 225.708 135.537L225.132 134.526C224.181 133.5 223.231 132.464 222.288 131.417L222.841 132.711L222.839 132.709ZM215.323 124.928C216.018 125.674 216.716 126.414 217.416 127.146L216.217 124.459L214.544 122.473L215.323 124.928ZM809.849 217.879C808.005 218.267 806.166 218.641 804.33 218.997C799.82 223.355 795.306 227.689 790.792 231.994C792.626 231.523 794.465 231.037 796.306 230.533C800.825 226.343 805.339 222.125 809.851 217.879H809.849ZM820.494 215.467C818.685 215.905 816.878 216.329 815.073 216.738C810.751 220.818 806.427 224.87 802.1 228.898C803.897 228.375 805.695 227.842 807.498 227.292C811.833 223.379 816.165 219.434 820.496 215.467H820.494ZM831.32 212.684C829.569 213.16 827.82 213.623 826.074 214.073C821.97 217.847 817.866 221.596 813.757 225.326C815.485 224.769 817.213 224.202 818.947 223.622C823.073 220.001 827.199 216.357 831.32 212.687V212.684ZM842.335 209.533C840.671 210.032 839.009 210.524 837.349 211C833.501 214.442 829.65 217.86 825.799 221.259C827.427 220.686 829.057 220.103 830.687 219.508C834.569 216.207 838.454 212.881 842.337 209.533H842.335ZM853.515 206.029C851.975 206.532 850.437 207.029 848.901 207.511C845.358 210.584 841.814 213.638 838.266 216.674C839.753 216.105 841.242 215.529 842.731 214.945C846.326 211.994 849.923 209.021 853.513 206.027L853.515 206.029ZM864.848 202.175C863.469 202.66 862.094 203.135 860.718 203.609C857.537 206.276 854.354 208.929 851.169 211.567C852.479 211.03 853.788 210.482 855.098 209.934C858.349 207.366 861.599 204.779 864.848 202.178V202.175ZM876.176 198.047L872.811 199.301C870.104 201.487 867.395 203.666 864.683 205.831C865.69 205.391 866.697 204.95 867.704 204.502C870.529 202.363 873.353 200.214 876.176 198.047ZM887.392 193.709L885.189 194.586C883.109 196.198 881.029 197.802 878.947 199.399L880.628 198.616C882.883 196.989 885.137 195.354 887.39 193.709H887.392ZM898.26 189.284L897.88 189.442L895.875 190.922L898.26 189.284ZM1361.26 105.644L1361.64 107.315C1361.86 101.125 1362.14 94.8062 1362.49 88.3618L1362.23 86.8307C1361.84 93.2389 1361.52 99.5084 1361.26 105.644ZM1358.15 93.5694C1358.42 94.4863 1358.68 95.4204 1358.93 96.3587C1359.27 89.7117 1359.68 82.9133 1360.17 75.9635C1359.96 74.9825 1359.75 74.0058 1359.53 73.0441C1358.99 80.0515 1358.53 86.8904 1358.16 93.5694H1358.15ZM1354.7 82.7726C1355.09 83.875 1355.47 84.9925 1355.85 86.127C1356.29 79.1516 1356.82 72.0077 1357.44 64.6868C1357.11 63.4691 1356.77 62.2707 1356.42 61.0893C1355.75 68.5061 1355.17 75.7332 1354.7 82.7726H1354.7ZM1350.88 73.027C1351.39 74.2105 1351.89 75.4218 1352.39 76.6501C1352.92 69.4124 1353.56 61.9871 1354.3 54.3655C1353.85 53.0412 1353.39 51.7361 1352.91 50.463C1352.12 58.1955 1351.45 65.7147 1350.89 73.027H1350.88ZM1346.72 64.2454C1347.34 65.4374 1347.95 66.6657 1348.55 67.9111C1349.16 60.473 1349.88 52.8258 1350.73 44.9655C1350.16 43.6284 1349.58 42.3233 1348.99 41.048C1348.1 49.0129 1347.35 56.7433 1346.72 64.2454H1346.72ZM1342.21 56.3594C1342.93 57.5173 1343.65 58.7158 1344.35 59.9334C1345.02 52.3417 1345.81 44.5261 1346.74 36.476C1346.06 35.1709 1345.36 33.9084 1344.65 32.6758C1343.69 40.822 1342.88 48.7144 1342.2 56.3594H1342.21ZM277.174 163.334L280.08 163.306L279.593 163.012L276.573 162.863L277.174 163.332V163.334ZM268.931 163.46L272.731 163.396L271.754 162.647L267.948 162.494L268.931 163.462V163.46ZM260.641 163.652L265.066 163.541L263.833 162.345L259.483 162.212L260.641 163.652ZM255.483 162.112L256.138 162.49L255.837 162.121L255.481 162.112H255.483ZM236.394 149.373C237.93 150.539 239.466 151.676 241.006 152.78C239.342 151.454 237.687 150.089 236.035 148.686L236.394 149.373ZM226.431 141.359C227.963 142.66 229.497 143.928 231.033 145.169L230.124 143.489C228.601 142.103 227.08 140.685 225.567 139.241L226.431 141.359ZM218.118 134.01C219.34 135.13 220.56 136.234 221.783 137.322L220.511 134.294C219.396 133.174 218.284 132.038 217.173 130.888L218.118 134.01ZM828.033 200.621C826.113 200.932 824.195 201.227 822.281 201.504C817.524 206.174 812.763 210.823 807.997 215.444C809.913 215.047 811.83 214.629 813.753 214.201C818.516 209.701 823.276 205.174 828.033 200.623V200.621ZM838.567 198.753C836.662 199.122 834.759 199.469 832.861 199.804C828.263 204.216 823.662 208.605 819.058 212.966C820.952 212.512 822.853 212.04 824.754 211.554C829.362 207.315 833.968 203.046 838.567 198.753ZM849.293 196.526C847.423 196.942 845.552 197.345 843.685 197.731C839.271 201.864 834.851 205.971 830.427 210.057C832.282 209.552 834.141 209.036 836.001 208.503C840.434 204.536 844.865 200.542 849.291 196.526H849.293ZM860.229 193.938C858.409 194.392 856.596 194.835 854.782 195.266C850.571 199.1 846.358 202.911 842.141 206.701C843.932 206.161 845.727 205.607 847.523 205.042C851.762 201.365 855.996 197.663 860.229 193.938ZM871.35 191.012C869.609 191.494 867.87 191.963 866.132 192.421C862.166 195.927 858.196 199.412 854.226 202.877C855.93 202.312 857.637 201.738 859.344 201.154C863.35 197.795 867.352 194.413 871.35 191.012ZM882.65 187.745C881.007 188.24 879.365 188.726 877.724 189.203C874.051 192.345 870.373 195.469 866.693 198.576C868.284 198.004 869.878 197.426 871.471 196.84C875.2 193.829 878.925 190.796 882.65 187.745ZM894.027 184.184C892.549 184.663 891.07 185.135 889.592 185.602C886.27 188.342 882.944 191.067 879.616 193.776C881.02 193.236 882.426 192.69 883.83 192.138C887.23 189.504 890.631 186.849 894.027 184.181V184.184ZM905.445 180.36L901.728 181.631C898.857 183.902 895.983 186.163 893.108 188.414L896.508 187.011C899.488 184.808 902.469 182.591 905.445 180.362V180.36ZM916.822 176.312L914.127 177.293C911.855 179.01 909.583 180.72 907.309 182.422L909.5 181.471C911.943 179.761 914.381 178.04 916.822 176.312ZM927.793 172.212L926.82 172.581L922.554 175.63L922.782 175.526L927.793 172.212ZM1364.65 178.456L1364.63 178.268C1364.7 179.654 1364.77 181.03 1364.85 182.399L1364.65 178.456ZM1363.85 154.54L1363.88 154.719C1363.8 150.454 1363.76 146.123 1363.74 141.719C1363.74 146.065 1363.78 150.339 1363.85 154.54ZM1360.5 138.574C1360.67 139.29 1360.84 140.024 1361 140.751C1361.01 133.88 1361.09 126.83 1361.26 119.601L1360.85 117.319C1360.63 124.602 1360.52 131.688 1360.5 138.576V138.574ZM1356.96 125.318C1357.26 126.329 1357.55 127.363 1357.85 128.393C1357.96 121.121 1358.17 113.645 1358.48 105.957C1358.22 104.827 1357.96 103.709 1357.69 102.609C1357.33 110.41 1357.09 117.976 1356.96 125.318ZM1353.18 113.805C1353.59 114.952 1354 116.116 1354.41 117.296C1354.61 109.766 1354.93 102.012 1355.37 94.0236C1355 92.7335 1354.61 91.4603 1354.22 90.2085C1353.74 98.3291 1353.39 106.192 1353.18 113.805ZM1349.13 103.586C1349.65 104.788 1350.16 106.015 1350.67 107.258C1350.95 99.5319 1351.36 91.5584 1351.91 83.3291C1351.42 81.9707 1350.92 80.6379 1350.41 79.3286C1349.84 87.6943 1349.41 95.7765 1349.13 103.586ZM1344.81 94.4544C1345.43 95.6486 1346.03 96.8641 1346.63 98.1031C1346.96 90.2341 1347.45 82.0965 1348.08 73.6859C1347.49 72.3339 1346.89 71.0075 1346.27 69.7152C1345.62 78.2644 1345.13 86.5108 1344.81 94.4565L1344.81 94.4544ZM1340.24 86.2719C1340.93 87.4193 1341.62 88.5857 1342.3 89.782C1342.67 81.8171 1343.21 73.5644 1343.91 65.0152C1343.22 63.708 1342.51 62.4306 1341.79 61.1895C1341.09 69.8773 1340.57 78.2346 1340.24 86.2698V86.2719ZM290.209 166.3L293.093 166.151L292.837 166.03H289.774L290.207 166.3H290.209ZM281.541 166.795L285.415 166.569L284.558 166.038L280.622 166.062L281.539 166.797L281.541 166.795ZM272.822 167.347L277.417 167.049L276.219 166.104L271.657 166.175L272.824 167.347H272.822ZM264.052 167.955L269.161 167.591L267.811 166.245L262.791 166.358L264.052 167.957V167.955ZM258.393 166.473L259.89 167.156L259.329 166.448L258.393 166.473ZM251.899 163.287L252.761 163.737L251.839 163.193L251.899 163.287ZM240.018 156.44C242.303 157.877 244.588 159.248 246.873 160.547L246.397 159.811C244.01 158.261 241.627 156.63 239.252 154.924L240.018 156.44ZM229.663 149.475C231.566 150.836 233.467 152.151 235.37 153.424L234.216 151.192C232.338 149.756 230.463 148.277 228.594 146.752L229.665 149.475H229.663ZM220.686 142.747C222.288 144.001 223.888 145.227 225.488 146.423L224.125 143.028C222.623 141.747 221.123 140.437 219.626 139.103L220.686 142.747ZM846.527 182.774C844.541 182.998 842.561 183.207 840.581 183.397C835.602 188.359 830.618 193.3 825.626 198.213C827.604 197.902 829.59 197.569 831.576 197.226C836.564 192.434 841.55 187.615 846.527 182.774ZM856.958 181.445C854.977 181.727 853.001 181.989 851.026 182.239C846.181 186.962 841.326 191.664 836.468 196.339C838.441 195.968 840.417 195.58 842.394 195.172C847.254 190.622 852.107 186.045 856.956 181.445H856.958ZM867.595 179.774C865.628 180.11 863.659 180.43 861.697 180.737C856.999 185.205 852.297 189.651 847.587 194.074C849.541 193.645 851.499 193.202 853.46 192.741C858.177 188.444 862.887 184.12 867.595 179.774ZM878.424 177.78C876.487 178.161 874.552 178.532 872.619 178.886C868.094 183.077 863.565 187.244 859.03 191.389C860.948 190.912 862.868 190.421 864.79 189.916C869.34 185.894 873.884 181.846 878.424 177.78ZM889.445 175.466C887.555 175.886 885.669 176.293 883.781 176.688C879.454 180.578 875.124 184.45 870.787 188.299C872.649 187.785 874.514 187.259 876.38 186.719C880.739 182.992 885.095 179.238 889.445 175.466ZM900.666 172.834C898.831 173.286 896.997 173.726 895.166 174.157C891.072 177.72 886.976 181.264 882.876 184.789C884.677 184.241 886.475 183.687 888.278 183.119C892.412 179.71 896.54 176.281 900.668 172.834H900.666ZM911.996 169.921C910.262 170.386 908.527 170.847 906.795 171.293C902.981 174.496 899.162 177.682 895.339 180.853C897.022 180.3 898.708 179.737 900.391 179.168C904.263 176.104 908.13 173.022 911.994 169.921H911.996ZM923.433 166.742C921.846 167.2 920.26 167.648 918.675 168.092C915.2 170.894 911.723 173.683 908.241 176.46C909.756 175.927 911.273 175.385 912.79 174.839C916.342 172.154 919.887 169.457 923.435 166.742H923.433ZM934.95 163.313L930.803 164.573C927.759 166.919 924.708 169.256 921.66 171.583C922.94 171.103 924.22 170.619 925.5 170.133C928.653 167.872 931.804 165.599 934.95 163.315V163.313ZM946.347 159.724L943.172 160.741C940.695 162.554 938.214 164.362 935.733 166.16L938.447 165.081C941.084 163.302 943.716 161.515 946.347 159.722V159.724ZM957.427 156.064L955.782 156.615L950.739 160.076L951.693 159.679L957.427 156.062V156.064ZM1358.8 178.051C1358.55 176.974 1358.29 175.92 1358.03 174.862C1358.75 185.757 1359.8 195.995 1361.16 205.602C1360.15 196.872 1359.37 187.692 1358.8 178.051H1358.8ZM1363.6 202.399L1363.41 201.229C1363.59 202.954 1363.78 204.662 1363.98 206.353C1363.85 205.044 1363.72 203.726 1363.6 202.399H1363.6ZM1361.49 177.355L1361.96 179.411C1361.55 171.574 1361.27 163.462 1361.13 155.064C1360.95 154.109 1360.77 153.158 1360.59 152.22C1360.73 160.929 1361.03 169.305 1361.49 177.355ZM1357.32 161.438C1357.61 162.419 1357.89 163.419 1358.16 164.415C1357.88 156.278 1357.74 147.835 1357.75 139.077C1357.46 137.853 1357.16 136.639 1356.86 135.443C1356.83 144.466 1356.99 153.128 1357.32 161.438ZM1353.16 148.507C1353.54 149.601 1353.92 150.712 1354.3 151.831C1354.1 143.532 1354.08 134.904 1354.22 125.943C1353.82 124.614 1353.42 123.303 1353 122.013C1352.85 131.225 1352.91 140.056 1353.16 148.509V148.507ZM1348.87 137.403C1349.35 138.535 1349.81 139.68 1350.28 140.841C1350.15 132.417 1350.2 123.644 1350.44 114.515C1349.94 113.154 1349.44 111.817 1348.92 110.501C1348.69 119.878 1348.67 128.841 1348.87 137.403ZM1344.46 127.623C1345 128.732 1345.54 129.86 1346.06 131.003C1345.96 122.501 1346.07 113.628 1346.38 104.368C1345.8 103.036 1345.21 101.737 1344.6 100.455C1344.31 109.949 1344.27 119.002 1344.46 127.623H1344.46ZM1339.91 119.01C1340.5 120.059 1341.09 121.128 1341.68 122.211C1341.58 113.653 1341.71 104.697 1342.06 95.3265C1341.4 94.0534 1340.72 92.8145 1340.04 91.5947C1339.73 101.206 1339.69 110.337 1339.91 119.008V119.01ZM304.152 168.522L306.712 168.284L303.913 168.401L304.152 168.522ZM295.034 169.395L298.949 169.013L298.251 168.665L294.219 168.866L295.034 169.395ZM285.88 170.316L290.599 169.832L289.469 169.111L284.737 169.378L285.88 170.314V170.316ZM276.677 171.29L281.998 170.719L280.641 169.623L275.378 169.951L276.677 171.29ZM267.431 172.314L273.189 171.67L271.741 170.194L266.096 170.585L267.429 172.314H267.431ZM255.295 168.734C258.045 169.855 260.784 170.87 263.517 171.772L262.779 170.823L261.936 170.885L261.605 170.911L261.302 170.783C259.112 169.866 256.918 168.872 254.728 167.815L255.295 168.734ZM243.406 163.264C245.902 164.537 248.389 165.735 250.873 166.844L249.97 165.409C247.429 164.068 244.891 162.637 242.352 161.123L243.406 163.264ZM232.678 157.325C234.866 158.626 237.049 159.873 239.227 161.061L237.881 158.372C235.739 157.011 233.597 155.593 231.455 154.12L232.675 157.325H232.678ZM223.107 151.307C225.017 152.571 226.924 153.8 228.827 154.985L227.383 151.249C225.576 149.948 223.769 148.613 221.964 147.238L223.107 151.309V151.307ZM865.332 164.339C863.29 164.469 861.251 164.584 859.216 164.68C854.042 169.911 848.858 175.12 843.668 180.309C845.699 180.093 847.734 179.861 849.773 179.607C854.968 174.54 860.156 169.45 865.332 164.336V164.339ZM875.689 163.528C873.641 163.716 871.595 163.886 869.554 164.042C864.485 169.056 859.408 174.048 854.322 179.017C856.357 178.741 858.392 178.449 860.434 178.138C865.526 173.291 870.612 168.42 875.689 163.528ZM886.232 162.424C884.186 162.665 882.14 162.888 880.099 163.1C875.149 167.878 870.189 172.638 865.225 177.372C867.262 177.033 869.3 176.679 871.339 176.308C876.312 171.702 881.276 167.072 886.232 162.424ZM896.956 161.027C894.925 161.317 892.899 161.59 890.872 161.85C886.063 166.373 881.244 170.877 876.419 175.359C878.435 174.969 880.455 174.56 882.477 174.139C887.311 169.791 892.139 165.42 896.958 161.027H896.956ZM907.866 159.346C905.861 159.677 903.857 159.995 901.854 160.302C897.21 164.543 892.559 168.77 887.9 172.975C889.886 172.538 891.87 172.09 893.859 171.627C898.535 167.556 903.205 163.462 907.866 159.348V159.346ZM918.966 157.391C916.99 157.76 915.017 158.116 913.041 158.464C908.587 162.404 904.126 166.33 899.657 170.237C901.609 169.757 903.561 169.269 905.515 168.768C910.003 164.995 914.488 161.204 918.966 157.391ZM930.191 155.182C928.275 155.576 926.362 155.964 924.448 156.34C920.218 159.952 915.981 163.549 911.738 167.13C913.619 166.625 915.503 166.106 917.387 165.582C921.66 162.134 925.927 158.664 930.189 155.184L930.191 155.182ZM941.547 152.733C939.72 153.143 937.894 153.548 936.068 153.943C932.107 157.193 928.139 160.43 924.167 163.652C925.946 163.134 927.727 162.607 929.506 162.074C933.525 158.975 937.538 155.862 941.547 152.731V152.733ZM953.013 150.064C951.309 150.475 949.602 150.88 947.897 151.279C944.265 154.128 940.625 156.971 936.979 159.796C938.618 159.287 940.256 158.771 941.896 158.248C945.606 155.533 949.312 152.806 953.013 150.064ZM964.488 147.215C962.972 147.603 961.453 147.986 959.936 148.364C956.71 150.765 953.483 153.158 950.251 155.542L954.511 154.126C957.841 151.831 961.167 149.526 964.49 147.212L964.488 147.215ZM975.885 144.229L972.177 145.216C969.487 147.104 966.792 148.985 964.094 150.861L967.379 149.714C970.216 147.893 973.054 146.065 975.885 144.229ZM986.959 141.201L984.589 141.86L978.739 145.666L980.475 145.037C982.639 143.762 984.797 142.483 986.959 141.199V141.201ZM997.222 138.299H997.211L997.175 138.324L997.222 138.299ZM1374.08 267.276C1379.31 286.817 1384.6 305.269 1389.95 322.645C1386.35 309.978 1382.81 296.703 1379.37 282.788C1378.53 280.332 1377.72 277.82 1376.93 275.243C1375.95 272.661 1375 270.006 1374.08 267.274V267.276ZM1356.67 193.012L1356.97 193.935C1355.88 183.985 1355.09 173.423 1354.63 162.234C1354.27 161.02 1353.91 159.813 1353.55 158.628C1354.16 170.926 1355.21 182.375 1356.67 193.014V193.012ZM1351.92 179.217L1352.51 180.801C1351.5 170.954 1350.82 160.483 1350.47 149.375C1350.03 148.14 1349.59 146.918 1349.13 145.715C1349.63 157.702 1350.56 168.857 1351.92 179.217ZM1347.45 168.075C1347.67 168.599 1347.89 169.145 1348.12 169.676C1347.12 159.882 1346.48 149.445 1346.19 138.335C1345.69 137.149 1345.18 135.981 1344.67 134.829C1345.13 146.762 1346.06 157.832 1347.45 168.075ZM1343.16 158.794C1343.38 159.221 1343.58 159.668 1343.79 160.099C1342.74 150.324 1342.06 139.857 1341.78 128.679C1341.24 127.564 1340.68 126.467 1340.11 125.388C1340.61 137.448 1341.64 148.569 1343.16 158.794ZM309.404 171.229L313.308 170.708L312.816 170.516L308.728 170.877L309.404 171.231V171.229ZM299.807 172.534L304.624 171.873L303.602 171.35L298.721 171.811L299.807 172.532V172.534ZM290.168 173.884L295.653 173.109L294.328 172.242L288.865 172.79L290.168 173.881V173.884ZM280.489 175.276L286.484 174.408L285.008 173.186C283.045 173.391 281.072 173.6 279.099 173.813L280.492 175.276H280.489ZM270.774 176.716L277.138 175.769L275.621 174.186L269.385 174.882L270.774 176.716ZM258.606 174.167C261.437 175.02 264.255 175.764 267.054 176.385L266.181 175.24L265.814 175.28L265.537 175.312L265.255 175.227C262.738 174.462 260.212 173.596 257.682 172.645L258.606 174.169V174.167ZM246.634 169.949C249.302 171.022 251.958 172.007 254.604 172.892L253.413 170.949C250.742 169.84 248.063 168.635 245.379 167.333L246.634 169.947V169.949ZM235.545 165.023C237.968 166.2 240.383 167.303 242.787 168.341L241.307 165.292C238.945 164.068 236.579 162.775 234.209 161.417L235.545 165.023ZM225.424 159.76C227.6 160.965 229.77 162.116 231.929 163.219L230.425 159.199C228.36 157.958 226.288 156.661 224.215 155.327L225.424 159.76ZM874.311 145.378C864.724 145.306 855.186 144.875 845.718 144.02C771.203 138.719 690.182 137.369 596.796 143.022C550.849 145.803 501.906 150.283 449.271 156.819C494.651 153.601 537.166 152.047 577.368 151.663C666.66 150.812 744.475 155.734 816.916 161.04L816.95 161.046C830.443 162.336 844.152 162.573 858.008 161.967C863.452 156.459 868.886 150.927 874.309 145.381L874.311 145.378ZM884.444 145.325C882.349 145.361 880.256 145.385 878.166 145.391C872.82 150.867 867.463 156.327 862.093 161.765C864.171 161.649 866.253 161.513 868.336 161.362C873.716 156.039 879.085 150.69 884.444 145.327V145.325ZM894.755 145.018C892.647 145.105 890.539 145.182 888.436 145.238C883.166 150.518 877.886 155.781 872.596 161.025C874.688 160.848 876.786 160.654 878.883 160.442C884.184 155.322 889.474 150.179 894.755 145.018ZM905.227 144.457C903.115 144.594 901.001 144.715 898.891 144.824C893.714 149.891 888.527 154.941 883.328 159.971C885.428 159.737 887.529 159.485 889.635 159.218C894.842 154.318 900.041 149.396 905.229 144.457H905.227ZM915.866 143.658C913.758 143.837 911.65 144.005 909.543 144.159C904.478 148.989 899.401 153.804 894.317 158.598C896.41 158.31 898.505 158.007 900.602 157.692C905.701 153.032 910.788 148.351 915.866 143.655V143.658ZM926.663 142.625C924.566 142.845 922.471 143.056 920.376 143.252C915.443 147.824 910.498 152.379 905.547 156.92C907.629 156.585 909.709 156.235 911.793 155.873C916.76 151.477 921.715 147.059 926.663 142.628V142.625ZM937.628 141.372C935.546 141.627 933.464 141.875 931.384 142.109C926.605 146.4 921.816 150.676 917.018 154.936C919.083 154.555 921.15 154.162 923.219 153.757C928.032 149.646 932.836 145.517 937.63 141.372H937.628ZM948.71 139.915C946.662 140.201 944.612 140.478 942.564 140.745C937.969 144.728 933.363 148.697 928.751 152.65C930.78 152.237 932.809 151.808 934.837 151.371C939.471 147.569 944.096 143.745 948.71 139.913V139.915ZM959.908 138.271C957.913 138.578 955.919 138.879 953.922 139.171C949.547 142.815 945.161 146.449 940.768 150.07C942.733 149.629 944.698 149.181 946.662 148.722C951.087 145.253 955.501 141.768 959.908 138.271ZM971.221 136.454C969.299 136.774 967.377 137.089 965.457 137.399C961.342 140.674 957.216 143.941 953.086 147.197C954.967 146.743 956.849 146.28 958.733 145.811C962.903 142.704 967.068 139.584 971.223 136.454H971.221ZM982.581 134.492C980.77 134.816 978.959 135.132 977.145 135.445C973.346 138.318 969.536 141.184 965.721 144.041C967.477 143.589 969.233 143.129 970.986 142.666C974.858 139.951 978.722 137.224 982.579 134.492H982.581ZM993.941 132.413L988.99 133.332C985.583 135.754 982.171 138.173 978.754 140.585L983.447 139.299C986.952 137.008 990.451 134.712 993.941 132.411V132.413ZM1005.19 130.261L1000.97 131.08C998.065 133.004 995.157 134.923 992.243 136.838L996.098 135.74C999.133 133.918 1002.17 132.091 1005.19 130.261H1005.19ZM1016.16 128.095L1013.09 128.707L1006.44 132.737L1008.95 132.001L1016.16 128.095ZM1026.38 126.028L1025.35 126.235L1021.84 128.152L1021.97 128.114L1026.38 126.028H1026.38ZM324.685 172.291L328.525 171.651L328.254 171.57L324.184 172.086L324.683 172.293L324.685 172.291ZM314.629 173.992L319.493 173.165L318.601 172.805L313.628 173.457L314.629 173.992ZM304.549 175.728L310.174 174.756L308.901 174.088L303.258 174.854L304.549 175.73V175.728ZM294.431 177.505L300.622 176.413L299.139 175.419L292.997 176.276L294.431 177.502V177.505ZM284.278 179.315L290.902 178.129L289.332 176.797L282.808 177.737L284.28 179.315H284.278ZM274.094 181.164L281.042 179.899L279.468 178.223L272.66 179.232L274.094 181.162V181.164ZM261.87 179.631C264.786 180.215 267.679 180.686 270.546 181.027L269.552 179.697L269.458 179.712L269.223 179.665C266.395 179.112 263.551 178.434 260.692 177.647L261.87 179.631ZM249.757 176.573C252.583 177.426 255.391 178.176 258.179 178.827L256.788 176.507C253.994 175.641 251.184 174.673 248.362 173.598L249.757 176.573ZM238.303 172.632C240.94 173.647 243.562 174.587 246.167 175.445L244.586 172.101C242.032 171.054 239.47 169.93 236.895 168.725L238.305 172.632H238.303ZM227.666 168.164C230.081 169.26 232.488 170.297 234.877 171.271L233.326 167.011C231.029 165.88 228.725 164.695 226.414 163.449L227.666 168.164ZM893.664 125.457C887.328 125.182 881.001 124.785 874.693 124.25C798.079 118.944 713.807 121.162 616.192 131.617C571.817 136.371 524.68 142.828 474.244 151.057C517.422 146.123 558.079 142.596 596.63 140.263C690.159 134.601 771.295 135.953 845.91 141.263L845.938 141.269C856.21 142.199 866.571 142.625 876.995 142.632C882.565 136.923 888.122 131.197 893.667 125.459L893.664 125.457ZM903.832 125.796C901.677 125.745 899.522 125.681 897.368 125.604C891.883 131.287 886.383 136.957 880.873 142.613C883 142.591 885.127 142.557 887.258 142.504C892.796 136.951 898.321 131.381 903.832 125.796ZM914.146 125.941C911.977 125.93 909.807 125.907 907.638 125.87C902.198 131.387 896.743 136.893 891.275 142.384C893.419 142.31 895.569 142.222 897.718 142.118C903.209 136.742 908.685 131.347 914.146 125.941ZM924.585 125.898C922.409 125.924 920.231 125.939 918.057 125.945C912.679 131.274 907.283 136.593 901.878 141.894C904.032 141.77 906.191 141.627 908.35 141.474C913.775 136.298 919.187 131.104 924.585 125.898ZM935.16 125.683C932.984 125.745 930.808 125.796 928.632 125.836C923.335 130.952 918.023 136.057 912.696 141.145C914.853 140.973 917.016 140.785 919.175 140.587C924.516 135.635 929.845 130.664 935.16 125.683ZM945.858 125.305C943.686 125.397 941.515 125.48 939.343 125.553C934.148 130.43 928.937 135.296 923.716 140.147C925.873 139.932 928.03 139.704 930.187 139.461C935.424 134.756 940.651 130.035 945.858 125.303V125.305ZM956.676 124.781C954.511 124.9 952.346 125.011 950.182 125.111C945.111 129.722 940.028 134.326 934.931 138.915C937.082 138.659 939.234 138.39 941.387 138.113C946.496 133.682 951.595 129.235 956.676 124.781ZM967.592 124.117C965.446 124.26 963.3 124.393 961.154 124.523C956.234 128.841 951.302 133.153 946.359 137.45C948.491 137.16 950.626 136.857 952.757 136.548C957.715 132.417 962.66 128.272 967.592 124.117ZM978.585 123.339C976.478 123.499 974.366 123.65 972.254 123.8C967.516 127.798 962.765 131.79 958.003 135.769C960.098 135.452 962.195 135.123 964.29 134.788C969.069 130.982 973.832 127.167 978.585 123.341V123.339ZM989.67 122.456C987.605 122.629 985.538 122.797 983.469 122.962C978.948 126.606 974.413 130.248 969.869 133.878C971.917 133.539 973.965 133.193 976.01 132.839C980.576 129.387 985.128 125.924 989.67 122.456ZM1000.79 121.494L994.792 122.021C990.528 125.284 986.255 128.544 981.969 131.794C983.942 131.445 985.911 131.089 987.882 130.728C992.196 127.657 996.501 124.576 1000.79 121.494ZM1011.93 120.471L1006.21 121.002C1002.26 123.849 998.297 126.694 994.323 129.53L999.91 128.468C1003.93 125.806 1007.93 123.139 1011.93 120.471ZM1023.01 119.415L1017.71 119.923C1014.13 122.315 1010.56 124.706 1006.96 127.097L1012.07 126.088C1015.73 123.866 1019.37 121.639 1023.01 119.415H1023.01ZM1033.98 118.355L1032.6 118.49L1029.29 118.81C1026.19 120.708 1023.09 122.608 1019.99 124.506L1024.38 123.614C1027.59 121.863 1030.79 120.11 1033.98 118.358V118.355ZM1044.64 117.328L1040.94 117.682L1033.58 121.729L1036.81 121.064L1044.64 117.325L1044.64 117.328ZM1054.62 116.383L1052.61 116.568L1048.07 118.744L1049.34 118.481L1052.34 117.287L1054.62 116.383H1054.62ZM340.873 172.553L344.566 171.819L340.589 172.463L340.873 172.553ZM330.36 174.662L335.222 173.685L334.499 173.461L329.483 174.291L330.362 174.662H330.36ZM319.815 176.801L325.528 175.639L324.346 175.146L318.573 176.121L319.815 176.799V176.801ZM309.249 178.97L315.612 177.662L314.153 176.875L307.802 177.967L309.247 178.97H309.249ZM298.652 181.168L305.503 179.744L303.903 178.645L297.125 179.833L298.655 181.168H298.652ZM288.031 183.395L295.256 181.876L293.614 180.454L286.501 181.723L288.031 183.395ZM277.381 185.646L284.888 184.058L283.273 182.305L275.916 183.642L277.383 185.649L277.381 185.646ZM265.089 185.13C268.091 185.45 271.064 185.646 274.004 185.71L272.777 184.041C269.784 183.757 266.768 183.339 263.726 182.791L265.089 185.128V185.13ZM252.81 183.183C255.784 183.804 258.727 184.312 261.648 184.71L260.108 182.087C257.194 181.473 254.256 180.744 251.301 179.906L252.81 183.183ZM240.993 180.215C243.822 181.044 246.632 181.782 249.416 182.431L247.762 178.857C245.032 178.008 242.284 177.07 239.521 176.044L240.993 180.213V180.215ZM229.849 176.543C232.486 177.502 235.107 178.396 237.712 179.217L236.125 174.752C233.616 173.764 231.095 172.706 228.562 171.587L229.849 176.541V176.543ZM913.156 105.166C910.001 104.955 906.846 104.724 903.689 104.475C824.974 99.1715 737.439 104.955 635.578 120.211C593.116 126.572 548.167 134.579 500.338 144.114C540.923 137.853 579.341 132.784 615.896 128.869C713.689 118.394 798.122 116.176 874.893 121.49H874.917C882.004 122.094 889.114 122.516 896.237 122.791C901.895 116.927 907.533 111.049 913.156 105.166ZM923.458 105.797C921.227 105.673 918.993 105.541 916.76 105.4C911.175 111.25 905.573 117.093 899.953 122.921C902.136 122.991 904.32 123.043 906.505 123.083C912.171 117.332 917.824 111.57 923.456 105.797H923.458ZM933.854 106.322C931.612 106.219 929.37 106.111 927.125 105.993C921.545 111.715 915.945 117.434 910.328 123.139C912.529 123.164 914.729 123.179 916.932 123.179C922.59 117.571 928.231 111.949 933.854 106.322ZM944.32 106.753C942.076 106.669 939.832 106.582 937.585 106.486C932.028 112.054 926.451 117.615 920.858 123.166C923.07 123.154 925.282 123.126 927.495 123.09C933.12 117.656 938.729 112.207 944.318 106.753H944.32ZM954.871 107.1C952.629 107.034 950.387 106.964 948.143 106.887C942.633 112.269 937.101 117.645 931.554 123.011C933.773 122.962 935.989 122.898 938.208 122.825C943.78 117.594 949.335 112.348 954.871 107.098V107.1ZM965.485 107.373L958.775 107.207C953.338 112.372 947.878 117.53 942.404 122.678C944.621 122.593 946.837 122.501 949.056 122.399C954.549 117.398 960.028 112.389 965.487 107.373H965.485ZM976.17 107.588L969.478 107.461C964.134 112.374 958.775 117.285 953.397 122.188C955.616 122.074 957.835 121.951 960.051 121.821C965.442 117.084 970.818 112.337 976.172 107.588H976.17ZM986.897 107.763L980.249 107.659C975.031 112.293 969.794 116.925 964.542 121.546C966.75 121.405 968.958 121.262 971.163 121.108C976.426 116.667 981.67 112.216 986.897 107.763ZM997.649 107.908L991.084 107.821C986.02 112.141 980.936 116.462 975.838 120.774C978.024 120.614 980.207 120.447 982.389 120.275C987.492 116.157 992.58 112.033 997.649 107.908ZM1008.44 108.041L1005.64 108.006L1001.97 107.959C997.09 111.934 992.194 115.909 987.283 119.882C989.44 119.705 991.594 119.524 993.749 119.339C998.662 115.575 1003.56 111.807 1008.44 108.041H1008.44ZM1019.23 108.179L1012.89 108.096C1008.23 111.694 1003.56 115.295 998.873 118.891L1005.2 118.323C1009.89 114.943 1014.57 111.559 1019.23 108.179ZM1030 108.339L1023.85 108.243C1019.45 111.433 1015.05 114.626 1010.62 117.818L1016.75 117.24C1021.19 114.272 1025.6 111.303 1030 108.339ZM1040.72 108.535L1034.82 108.42C1030.74 111.173 1026.64 113.928 1022.54 116.688L1028.39 116.123C1032.51 113.591 1036.62 111.062 1040.72 108.535ZM1051.34 108.791L1045.8 108.65L1034.65 115.515L1040.1 114.988L1051.34 108.791ZM1061.8 109.111C1060.13 109.053 1058.46 109 1056.78 108.949L1055.48 109.668L1047.04 114.321L1051.87 113.862L1053.65 113.014L1061.8 109.111ZM1071.94 109.516C1070.54 109.454 1069.14 109.39 1067.73 109.333L1059.8 113.129L1063.69 112.781L1071.94 109.516ZM1081.47 109.981L1078.65 109.836L1073.3 111.945L1075.54 111.762L1081.47 109.979V109.981ZM358.001 172.005L358.24 171.952L357.982 172.001L358.001 172.005ZM347.011 174.536L351.832 173.423L351.32 173.306L346.292 174.299L347.011 174.536ZM336.005 177.087L341.771 175.75L340.711 175.41L334.846 176.585L336.003 177.087H336.005ZM324.971 179.663L331.465 178.144L330.063 177.545L323.55 178.865L324.973 179.661L324.971 179.663ZM313.921 182.26L320.976 180.601L319.376 179.716L312.361 181.153L313.921 182.26ZM302.851 184.877L310.326 183.109L308.636 181.923L301.249 183.454L302.851 184.877ZM291.76 187.515L299.561 185.657L297.863 184.16L290.185 185.768L291.76 187.515ZM280.635 190.155L280.763 190.144L288.694 188.246L287.049 186.427L279.154 188.099L280.635 190.155ZM268.278 190.673C271.37 190.726 274.416 190.647 277.428 190.434L276.022 188.487C272.974 188.481 269.893 188.34 266.781 188.063L268.278 190.673ZM255.801 189.788C258.913 190.165 261.994 190.428 265.036 190.568L263.389 187.713C260.359 187.355 257.3 186.873 254.213 186.278L255.801 189.79V189.788ZM243.615 187.764C246.625 188.391 249.612 188.924 252.566 189.355L250.856 185.585C247.958 184.951 245.042 184.218 242.1 183.392L243.615 187.764ZM231.986 184.926C234.83 185.721 237.655 186.435 240.453 187.073L238.843 182.443C236.138 181.627 233.414 180.735 230.674 179.769L231.988 184.926H231.986ZM932.619 84.6918C851.804 79.3968 761.028 88.7436 654.963 108.798C614.84 116.383 572.526 125.504 527.73 135.942C565.294 128.76 601.037 122.584 635.173 117.468C737.226 102.183 824.955 96.3885 903.885 101.709H903.902C907.819 102.018 911.734 102.298 915.646 102.549C921.323 96.6018 926.98 90.6457 932.619 84.6897V84.6918ZM943.206 85.4573L936.188 84.9477C930.562 90.8931 924.917 96.8385 919.256 102.778C921.513 102.914 923.768 103.042 926.023 103.163C931.77 97.2671 937.5 91.3643 943.208 85.4595L943.206 85.4573ZM953.803 86.2443L946.795 85.7197C941.116 91.599 935.413 97.4761 929.694 103.349C931.962 103.462 934.229 103.567 936.495 103.665C942.283 97.86 948.053 92.0511 953.803 86.2421V86.2443ZM964.392 87.061L957.412 86.5193C951.706 92.2878 945.98 98.0604 940.235 103.825C942.509 103.916 944.781 104.002 947.051 104.08C952.853 98.4102 958.635 92.7356 964.395 87.061H964.392ZM974.982 87.9204L968.036 87.3531C962.338 92.9723 956.616 98.5914 950.874 104.208C953.15 104.281 955.424 104.349 957.696 104.411C963.479 98.9177 969.244 93.418 974.982 87.9225V87.9204ZM985.555 88.8288C983.259 88.6241 980.96 88.4258 978.656 88.2296C972.994 93.6568 967.309 99.0862 961.6 104.511L968.416 104.669C974.152 99.3911 979.867 94.1068 985.555 88.8288ZM996.119 89.8034C993.839 89.5859 991.554 89.3726 989.265 89.1636C983.671 94.3584 978.05 99.5575 972.411 104.752L979.217 104.876C984.874 99.8517 990.508 94.8233 996.119 89.8034ZM1006.64 90.8526C1004.38 90.618 1002.12 90.3898 999.85 90.1659C994.357 95.0898 988.838 100.014 983.298 104.942L990.078 105.042C995.622 100.31 1001.15 95.5782 1006.64 90.8526ZM1017.12 91.9849C1014.89 91.7333 1012.66 91.4881 1010.42 91.2492C1005.06 95.8618 999.671 100.481 994.265 105.1L1000.98 105.185C1006.38 100.781 1011.76 96.38 1017.12 91.9871L1017.12 91.9849ZM1027.56 93.2175C1025.36 92.9467 1023.16 92.6823 1020.95 92.4242C1015.76 96.6892 1010.54 100.963 1005.3 105.236L1005.67 105.241L1011.96 105.317C1017.18 101.278 1022.39 97.2415 1027.57 93.2154L1027.56 93.2175ZM1037.94 94.5546C1035.78 94.2646 1033.61 93.9788 1031.44 93.7037C1026.45 97.587 1021.43 101.481 1016.4 105.377L1022.95 105.467C1027.97 101.822 1032.97 98.182 1037.94 94.5546ZM1048.24 96.0132C1046.13 95.7018 1044.01 95.3969 1041.89 95.0984C1037.14 98.568 1032.36 102.048 1027.57 105.537L1034 105.641L1048.24 96.0132ZM1058.45 97.5956C1056.39 97.2629 1054.34 96.9366 1052.27 96.621L1038.79 105.735L1045.04 105.87L1054.2 100.216L1058.45 97.5977V97.5956ZM1068.54 99.308C1066.56 98.9561 1064.58 98.6149 1062.6 98.2801L1055.65 102.564L1050.1 105.991C1052.11 106.042 1054.11 106.1 1056.11 106.16L1068.54 99.308H1068.54ZM1078.47 101.161C1076.6 100.796 1074.73 100.44 1072.85 100.093L1061.52 106.335C1063.41 106.398 1065.29 106.469 1067.17 106.544C1070.95 104.735 1074.72 102.942 1078.47 101.161ZM1088.2 103.142C1086.47 102.775 1084.75 102.413 1083.01 102.061L1073.05 106.791C1074.78 106.87 1076.5 106.951 1078.22 107.038C1081.56 105.727 1084.88 104.428 1088.2 103.14V103.142ZM1097.59 105.23C1096.1 104.882 1094.6 104.541 1093.09 104.206C1090.36 105.262 1087.62 106.326 1084.87 107.399C1086.33 107.484 1087.8 107.567 1089.26 107.661C1092.05 106.84 1094.83 106.027 1097.59 105.228V105.23ZM1106.41 107.358L1103.07 106.533C1101.12 107.087 1099.17 107.648 1097.21 108.215L1100.25 108.452C1102.31 108.081 1104.37 107.714 1106.41 107.36L1106.41 107.358ZM1113.9 109.303L1112.98 109.056L1110.98 109.388L1111.23 109.414L1113.9 109.303ZM364.589 173.577L369.321 172.352L369.048 172.31L364.06 173.449L364.589 173.579V173.577ZM353.101 176.56L358.88 175.056L357.971 174.841L352.049 176.204L353.103 176.558L353.101 176.56ZM341.609 179.556L348.19 177.839L346.865 177.402L340.224 178.94L341.609 179.556ZM330.087 182.567L337.304 180.678L335.723 179.987L328.517 181.669L330.087 182.567ZM318.558 185.591L326.264 183.569L324.547 182.599L316.901 184.395L318.556 185.591H318.558ZM307.015 188.626L315.09 186.502L313.325 185.237L305.351 187.12L307.015 188.626ZM295.461 191.671L303.822 189.468L302.076 187.898L293.85 189.854L295.461 191.671ZM283.856 194.682L284.511 194.565L292.464 192.464L290.791 190.585L282.377 192.596L283.856 194.682ZM271.448 196.264C274.627 196.051 277.759 195.703 280.841 195.213L279.305 193.055C276.195 193.323 273.046 193.456 269.855 193.445L271.448 196.266V196.264ZM258.751 196.405C261.998 196.535 265.204 196.546 268.368 196.422L266.648 193.387C263.506 193.289 260.325 193.063 257.11 192.711L258.751 196.403V196.405ZM246.203 195.332C249.388 195.744 252.534 196.047 255.647 196.243L253.902 192.325C250.851 191.918 247.769 191.409 244.658 190.794L246.205 195.334L246.203 195.332ZM234.088 193.3C237.134 193.921 240.153 194.464 243.141 194.91L241.512 190.14C238.619 189.508 235.7 188.788 232.759 187.988L234.088 193.298V193.3ZM246.721 205.538C243.474 205.319 240.191 204.999 236.872 204.577C239.801 216.534 242.715 228.704 245.644 240.942C272.415 352.811 300.515 470.243 353.088 477.464C415.249 486.003 486.593 460.266 562.13 413.442C497.362 449.168 436.104 467.819 381.715 460.428C326.691 453.256 293.601 350.546 261.01 249.385C256.257 234.636 251.519 219.918 246.723 205.538H246.721ZM259.879 205.878C256.53 205.948 253.13 205.886 249.693 205.715C254.373 219.771 259.003 234.139 263.641 248.54C295.965 348.879 328.786 450.752 382.076 457.689H382.082C443.966 466.098 514.966 440.371 589.997 393.979C525.727 429.302 464.825 447.914 410.724 440.653V440.657C354.987 433.761 317.677 344.089 279.992 253.511C273.334 237.509 266.661 221.475 259.879 205.878ZM273.097 204.892C269.733 205.325 266.32 205.619 262.853 205.771C269.494 221.076 276.029 236.777 282.55 252.451C319.924 342.281 356.926 431.21 411.061 437.908L411.078 437.915C472.605 446.178 543.156 420.546 617.547 374.778C553.897 409.529 493.467 427.999 439.731 420.88C383.241 414.223 342.144 335.779 299.813 254.97C291.011 238.17 282.156 221.266 273.1 204.892H273.097ZM285.936 202.476C282.689 203.295 279.382 203.96 276.024 204.481C284.916 220.587 293.616 237.189 302.26 253.692C344.246 333.84 385.007 411.645 440.042 418.134L440.066 418.14C500.641 426.175 569.961 401.251 642.899 357.006L643.544 356.511C581.089 390.085 521.676 408.03 468.731 401.11C411.503 394.67 366.993 326.125 320.432 254.417C309.127 237.008 297.693 219.41 285.938 202.478L285.936 202.476ZM298.202 199.013L289.012 201.651L288.775 201.715C300.351 218.419 311.608 235.752 322.744 252.908C368.943 324.054 413.103 392.06 469.03 398.359L469.058 398.365C525.667 405.774 589.889 384.359 657.393 345.678C658.707 344.635 660.021 343.594 661.336 342.543C603.075 372.157 547.557 387.748 497.727 381.329C439.827 375.094 392.256 315.443 341.876 252.268C327.64 234.415 313.174 216.288 298.2 199.013H298.202ZM310.422 195.503L301.136 198.168C315.845 215.186 330.055 232.999 344.041 250.545C394.05 313.253 441.271 372.464 498.017 378.58L498.045 378.587C550.742 385.383 609.999 367.222 672.211 333.766C674.276 332.081 676.346 330.375 678.413 328.669C624.596 354.238 573.208 367.442 526.725 361.55C468.279 355.515 418.005 303.966 364.248 248.839C346.804 230.954 328.988 212.691 310.42 195.501L310.422 195.503ZM322.622 191.999L316.237 193.833L313.53 194.612C331.7 211.507 349.142 229.393 366.232 246.915C419.629 301.667 469.561 352.873 527.011 358.805L527.043 358.812C575.862 365.011 630.266 349.853 687.287 321.308C689.931 319.096 692.578 316.866 695.223 314.622C645.914 336.263 598.731 347.151 555.696 341.782C496.897 335.93 444.326 291.845 387.693 244.354C366.731 226.772 345.21 208.727 322.622 192.003V191.999ZM334.804 188.502L325.97 191.04C347.992 207.449 368.996 225.061 389.47 242.228C445.777 289.448 498.047 333.279 555.999 339.029H556.031C601.039 344.643 650.727 332.232 702.709 308.237C705.849 305.548 708.992 302.832 712.132 300.1C667.288 318.06 624.265 326.848 584.688 322.001V321.996C525.8 316.364 471.381 279.191 412.446 238.929C387.595 221.952 361.929 204.425 334.804 188.5V188.502ZM346.957 185.015L338.464 187.451C364.822 203.054 389.801 220.11 414.007 236.647C472.654 276.711 526.802 313.699 584.986 319.252H585.023C626.296 324.306 671.443 314.328 718.562 294.487C722.08 291.401 725.6 288.292 729.117 285.157C688.687 299.703 649.788 306.557 613.686 302.226V302.222C555.081 296.824 499.389 266.089 438.869 232.689C409.647 216.563 379.288 199.813 346.953 185.015H346.957ZM359.089 181.535L351.04 183.844C382.357 198.343 411.81 214.597 440.202 230.265C500.481 263.532 555.948 294.144 613.976 299.477H614.012C651.603 303.987 692.328 296.2 734.719 280.155C738.572 276.7 742.427 273.218 746.282 269.71C710.171 281.15 675.326 286.279 642.688 282.451V282.447C584.912 277.314 528.69 252.581 467.519 225.671C433.303 210.622 397.527 194.884 359.089 181.535ZM371.19 178.068L363.693 180.215C400.817 193.309 435.458 208.541 468.633 223.136C529.612 249.963 585.656 274.619 642.963 279.7H643.002C676.968 283.686 713.416 277.826 751.236 265.189C755.396 261.382 759.556 257.546 763.713 253.682C731.818 262.361 700.923 266.012 671.725 262.679C615.593 257.87 559.858 238.709 499.287 217.888C459.21 204.11 417 189.604 371.187 178.065L371.19 178.068ZM383.279 174.613L376.478 176.558C420.608 187.922 461.395 201.934 500.187 215.271C560.588 236.033 616.167 255.143 671.953 259.921L671.996 259.928C702.396 263.406 734.7 259.213 768.106 249.596C772.541 245.457 776.976 241.288 781.411 237.089C753.584 243.371 726.525 245.772 700.721 242.906C647.499 238.498 593.771 224.471 535.641 209.296C488.458 196.976 438.355 183.904 383.281 174.615L383.279 174.613ZM395.319 171.171L389.412 172.86C442.361 182.094 490.706 194.712 536.334 206.62C594.328 221.758 647.928 235.754 700.949 240.145L700.987 240.151C727.886 243.145 756.202 240.343 785.367 233.338C790.045 228.891 794.723 224.411 799.395 219.909C775.504 224.161 752.174 225.548 729.723 223.129C681.423 219.257 632.098 209.861 579.192 199.783C522.988 189.078 462.715 177.603 395.322 171.169L395.319 171.171ZM407.364 167.744L402.577 169.107C467.259 175.656 525.375 186.721 579.7 197.068C632.51 207.127 681.743 216.506 729.937 220.372L729.975 220.378C753.435 222.91 777.898 221.238 802.988 216.442C807.888 211.703 812.786 206.933 817.68 202.139C797.58 204.747 777.861 205.344 758.721 203.357C718.999 200.271 678.167 194.876 635.025 189.178C566.648 180.147 492.443 170.346 407.366 167.748L407.364 167.744ZM419.321 164.341L416.057 165.27C497.655 168.247 569.24 177.699 635.382 186.435C678.426 192.121 719.165 197.503 758.924 200.595L758.963 200.602C779.043 202.694 799.79 201.905 820.969 198.908C826.074 193.891 831.173 188.847 836.267 183.781C819.811 185.124 803.592 185.164 787.713 183.578C764.121 181.802 739.583 179.616 714.316 177.368C627.953 169.68 532.927 161.225 419.319 164.345L419.321 164.341ZM431.341 160.941L430.033 161.312C539.015 158.995 630.848 167.166 714.555 174.617C739.505 176.837 763.73 178.995 787.918 180.818L787.952 180.825C804.716 182.501 821.88 182.341 839.318 180.74C844.604 175.468 849.882 170.169 855.15 164.848C842.194 165.302 829.364 165.008 816.714 163.801C744.285 158.5 666.498 153.578 577.381 154.429C531.937 154.862 483.521 156.796 431.338 160.944L431.341 160.941ZM951.676 64.4799C842.798 59.4302 714.873 84.6683 556.596 126.491C590.627 118.829 623.2 111.992 654.453 106.085C760.778 85.982 851.798 76.6181 932.875 81.9387H932.885L935.078 82.0965C940.631 76.2236 946.165 70.3486 951.678 64.4799H951.676ZM962.775 65.1346C960.29 64.9683 957.809 64.7977 955.309 64.657C949.775 70.5533 944.218 76.4539 938.643 82.3546L945.711 82.8706C951.422 76.9572 957.111 71.0438 962.777 65.1346H962.775ZM973.775 65.9748C971.317 65.7616 968.862 65.5441 966.383 65.3649C960.708 71.2848 955.012 77.211 949.293 83.1372L956.352 83.6682C962.182 77.7675 967.991 71.8669 973.773 65.9748H973.775ZM984.667 67.0027C982.235 66.7383 979.778 66.5229 977.32 66.3032C971.558 72.1783 965.771 78.0619 959.957 83.9454L966.995 84.4977C972.911 78.661 978.803 72.8265 984.667 67.0027ZM995.375 68.3163C992.981 68.0028 990.568 67.7192 988.16 67.4313C982.346 73.2083 976.503 78.998 970.637 84.7899C972.979 84.9797 975.315 85.1758 977.647 85.372C983.584 79.6804 989.493 73.993 995.375 68.3163ZM1005.95 69.8411C1003.6 69.4785 1001.27 69.084 998.903 68.7513C993.068 74.3875 987.204 80.0323 981.314 85.6855C983.641 85.886 985.964 86.0907 988.283 86.3018C994.201 80.8085 1000.09 75.3173 1005.95 69.8411ZM1016.43 71.562C1014.1 71.1483 1011.77 70.7516 1009.42 70.3784C1003.64 75.7886 997.826 81.2115 991.985 86.6387C994.302 86.8541 996.612 87.0738 998.92 87.2977C1004.78 82.0432 1010.62 76.793 1016.43 71.5598V71.562ZM1026.76 73.5047C1024.47 73.0398 1022.15 72.6261 1019.84 72.2017C1014.13 77.3432 1008.4 82.5017 1002.64 87.6666C1004.94 87.8969 1007.24 88.1336 1009.53 88.3768C1015.3 83.408 1021.05 78.4478 1026.76 73.5047ZM1036.89 75.7246C1034.65 75.2149 1032.41 74.7117 1030.16 74.2233C1024.56 79.0598 1018.94 83.9134 1013.29 88.7798C1015.57 89.0272 1017.83 89.2831 1020.1 89.5453C1025.73 84.9242 1031.33 80.3159 1036.89 75.7267V75.7246ZM1046.92 78.1429C1044.73 77.5841 1042.53 77.0126 1040.32 76.4902C1034.89 80.9727 1029.42 85.4765 1023.92 89.991C1026.17 90.2576 1028.42 90.5327 1030.66 90.8163C1036.11 86.5769 1041.53 82.3503 1046.93 78.1429H1046.92ZM1056.84 80.7509C1054.67 80.1432 1052.48 79.5802 1050.29 79.0151C1045.06 83.0967 1039.8 87.1975 1034.52 91.3111C1036.74 91.6011 1038.95 91.8996 1041.16 92.2046L1053.77 82.9901L1056.84 80.7509H1056.84ZM1066.54 83.6383C1064.42 82.9858 1062.3 82.3695 1060.17 81.7447L1055.41 85.2228L1045.1 92.759C1047.28 93.0725 1049.46 93.3945 1051.63 93.725L1054.03 92.098L1066.54 83.6383ZM1076.08 86.7347C1074.03 86.048 1072 85.3272 1069.95 84.664L1055.64 94.3435C1057.77 94.6804 1059.91 95.0258 1062.04 95.382C1066.74 92.4775 1071.42 89.5965 1076.08 86.7347ZM1085.5 90.0102C1083.51 89.2809 1081.5 88.5708 1079.48 87.882C1075.06 90.5967 1070.63 93.3305 1066.16 96.0836C1068.24 96.444 1070.32 96.815 1072.39 97.1946C1076.78 94.7806 1081.16 92.3837 1085.5 90.0102ZM1094.73 93.5033C1092.8 92.7441 1090.85 92.0297 1088.91 91.3026C1084.86 93.5118 1080.78 95.7445 1076.68 97.9943C1078.68 98.376 1080.68 98.7727 1082.67 99.1736C1086.71 97.2628 1090.73 95.3714 1094.73 93.5033ZM1103.69 97.2074C1101.87 96.4376 1100.06 95.6613 1098.24 94.9086C1094.57 96.6188 1090.88 98.3483 1087.18 100.097C1089.09 100.498 1090.99 100.909 1092.89 101.33C1096.51 99.937 1100.11 98.5616 1103.69 97.2074ZM1112.46 101.033C1110.77 100.27 1109.08 99.4999 1107.38 98.7642C1104.18 99.9669 1100.97 101.187 1097.74 102.423C1099.51 102.831 1101.27 103.245 1103.03 103.673C1106.19 102.775 1109.33 101.897 1112.46 101.035V101.033ZM1120.9 104.968C1119.38 104.236 1117.85 103.547 1116.33 102.839C1113.71 103.552 1111.08 104.279 1108.44 105.019C1109.99 105.415 1111.54 105.816 1113.09 106.226C1115.7 105.791 1118.3 105.373 1120.9 104.97V104.968ZM1128.65 108.862C1127.51 108.281 1126.38 107.693 1125.24 107.115C1123.36 107.399 1121.46 107.689 1119.57 107.989C1120.73 108.316 1121.9 108.648 1123.06 108.985C1124.93 108.934 1126.79 108.891 1128.65 108.862H1128.65ZM1135.4 112.325C1134.93 112.073 1134.45 111.847 1133.98 111.598L1131.8 111.61L1132.93 111.966C1133.76 112.082 1134.58 112.203 1135.4 112.325ZM1130.33 106.369C1131.9 107.175 1133.48 107.957 1135.04 108.789C1238.54 108.175 1325.84 138.772 1369.91 296.549C1389.37 349.425 1407.81 394.695 1425.6 433.121C1406.26 390.411 1386.93 338.099 1367.29 274.896L1367.26 274.815L1367.26 274.776C1331.64 107.017 1240.35 90.7161 1130.33 106.369H1130.33ZM1120.82 101.63C1122.57 102.462 1124.32 103.311 1126.07 104.176C1239.17 87.3126 1333.39 101.98 1369.96 274.158C1381.63 311.735 1393.19 345.424 1404.69 375.529C1391.85 340.125 1379.39 299.245 1367.27 252.308L1367.25 252.251L1367.24 252.178C1366.75 248.995 1366.22 245.89 1365.69 242.817C1364.47 239.466 1363.32 235.984 1362.23 232.37C1360.36 227.693 1358.64 222.72 1357.07 217.457C1355.15 212.727 1353.4 207.677 1351.82 202.312C1346.93 190.419 1343.19 176.451 1340.71 160.268C1305.97 89.7309 1247.8 78.2943 1178.14 89.1125C1159.77 91.9657 1140.59 96.3629 1120.82 101.632L1120.82 101.63ZM1111.44 97.2458C1113.28 98.0711 1115.1 98.9603 1116.93 99.8133C1137.9 94.1451 1158.24 89.411 1177.72 86.385C1246.3 75.7332 1303.91 86.2677 1339.55 151.848C1338.36 142.06 1337.6 131.524 1337.27 120.211C1310.96 74.2724 1270.79 61.9572 1222.14 67.1306C1188.69 70.6898 1151.2 82.4548 1111.44 97.2479L1111.44 97.2458ZM1101.91 93.2004C1103.86 94.0193 1105.82 94.8276 1107.76 95.672C1148.71 80.3329 1187.35 68.0476 1221.85 64.3776C1270.16 59.2404 1310.28 70.8817 1337.14 114.351C1337.02 105.776 1337.13 96.7724 1337.5 87.3275C1316.7 53.6404 1286.42 42.2977 1249.63 44.6434C1207.5 47.3282 1156.77 67.7853 1101.92 93.2004H1101.91ZM1092.39 89.4088C1094.43 90.1744 1096.47 90.9357 1098.48 91.7503C1154.46 65.7274 1206.3 44.6328 1249.45 41.8819C1286.12 39.5446 1316.47 50.3393 1337.72 82.3332C1338.1 74.3001 1338.66 65.9599 1339.4 57.2998C1322.41 30.7843 1298.39 20.5355 1269.15 21.3054C1221.53 22.5593 1159.94 52.7256 1092.39 89.4088ZM1082.81 85.8391C1084.88 86.5705 1086.93 87.3468 1088.98 88.1145C1157.66 50.7509 1220.35 19.8297 1269.09 18.5459C1298.29 17.7761 1322.43 27.5515 1339.8 52.7491C1340.5 45.0508 1341.35 37.1115 1342.34 28.9184C1328.12 6.76596 1308.29 -2.61917 1284.1 -2.78339C1232.77 -3.12885 1161.67 37.491 1082.81 85.8412V85.8391ZM1073.08 82.5486C1075.19 83.2459 1077.3 83.9646 1079.4 84.6875C1159.41 35.5931 1231.62 -5.89896 1284.11 -5.54495C1308.31 -5.38074 1328.29 3.58212 1342.87 24.6129C1343.8 17.1768 1344.85 9.54248 1346.02 1.69916C1333.84 -17.8772 1316.89 -26.7292 1296.11 -27.4841C1242.22 -29.4396 1162.4 22.2372 1073.08 82.5465V82.5486ZM1063.21 79.5162C1065.4 80.1559 1067.58 80.785 1069.75 81.4674C1160.19 20.3755 1241.1 -32.2417 1296.2 -30.2436C1317.01 -29.4887 1334.12 -21.044 1346.65 -2.48483C1347.75 -9.6756 1348.94 -17.0285 1350.24 -24.5626C1339.6 -42.8531 1324.65 -51.5089 1306.13 -52.6689C1250.44 -56.1641 1162.42 7.03894 1063.21 79.5162ZM1053.26 76.6928C1055.48 77.2813 1057.69 77.8912 1059.88 78.5225C1160.21 5.21564 1249.32 -59.0089 1306.31 -55.4305C1324.86 -54.2662 1339.98 -46.0177 1350.96 -28.7253C1352.18 -35.6559 1353.47 -42.7208 1354.86 -49.9415C1345.43 -67.9803 1331.84 -76.7683 1314.77 -78.2462C1258.14 -83.153 1163.09 -8.99106 1055.21 75.1744L1053.26 76.6928ZM1043.23 74.0826C1045.47 74.6306 1047.68 75.2405 1049.9 75.8184L1053.51 72.9993C1161.85 -11.5266 1257.31 -86.0085 1315.01 -81.0077C1332.12 -79.5256 1345.89 -71.1684 1355.67 -54.1724C1356.96 -60.7767 1358.31 -67.4962 1359.74 -74.3437C1351.34 -93.0819 1338.66 -102.384 1322.39 -104.147C1266.47 -110.206 1167.98 -28.8937 1055.06 64.3264L1043.24 74.0826H1043.23ZM1032.97 71.7838C1035.25 72.287 1037.54 72.7839 1039.81 73.3127L1053.29 62.1896C1166.69 -31.425 1265.6 -113.083 1322.68 -106.898C1338.98 -105.133 1351.85 -96.3127 1360.66 -78.7324C1361.97 -84.9315 1363.33 -91.2224 1364.75 -97.622C1357.31 -118.047 1345.23 -128.258 1329.24 -130.305C1274.15 -137.359 1172.56 -49.2591 1054.96 52.7256C1047.69 59.0314 1040.36 65.3905 1032.97 71.7816L1032.97 71.7838ZM1022.62 69.6896C1024.96 70.1225 1027.3 70.5512 1029.62 71.0331C1037.53 64.1899 1045.38 57.3851 1053.15 50.6379C1171.25 -51.7776 1273.26 -140.251 1329.58 -133.041C1345.59 -130.991 1357.88 -121.344 1365.79 -102.286L1367.26 -108.764C1368.09 -112.413 1368.9 -115.994 1369.69 -119.536C1363.28 -142.714 1351.6 -154.31 1335.49 -156.665C1281.3 -164.583 1176.92 -70.036 1054.97 40.4275C1044.31 50.0792 1033.52 59.8546 1022.62 69.6896H1022.62ZM1012.18 67.796C1014.54 68.1884 1016.88 68.6191 1019.22 69.0457C1030.65 58.735 1041.96 48.4904 1053.12 38.3803C1175.59 -72.5588 1280.42 -167.51 1335.89 -159.405C1351.96 -157.057 1363.87 -146.209 1370.85 -124.824C1372.04 -130.226 1373.16 -135.504 1374.23 -140.649C1369.01 -167.267 1357.7 -180.542 1341.29 -183.212C1288.06 -191.872 1181.14 -91.1989 1055.1 27.4747C1041.01 40.7346 1026.69 54.2162 1012.18 67.796ZM1001.59 66.1497C1003.97 66.4994 1006.34 66.8811 1008.71 67.2565C1023.76 53.1777 1038.61 39.1992 1053.2 25.4595C1179.77 -93.7195 1287.15 -194.819 1341.74 -185.942C1357.99 -183.297 1369.55 -171.072 1375.51 -146.925C1376.49 -151.73 1377.41 -156.419 1378.28 -161C1374.44 -191.697 1363.52 -206.911 1346.73 -209.898C1294.46 -219.198 1185.22 -112.709 1055.34 13.9034C1037.77 31.0317 1019.83 48.5267 1001.59 66.1518V66.1497ZM990.835 64.7678C993.265 65.0579 995.701 65.3393 998.114 65.6678C1016.88 47.5351 1035.35 29.5347 1053.42 11.9202C1183.85 -115.23 1293.55 -222.173 1347.21 -212.628C1363.7 -209.693 1374.88 -195.958 1379.73 -168.737C1380.46 -172.737 1381.15 -176.644 1381.8 -180.463C1379.6 -215.954 1369.13 -233.405 1351.87 -236.721C1300.59 -246.569 1189.23 -134.548 1055.73 -0.26062C1034.6 20.9919 1012.92 42.7988 990.835 64.7657V64.7678ZM979.983 63.58C982.449 63.8146 984.904 64.0598 987.345 64.3349C1009.96 41.852 1032.15 19.5333 1053.77 -2.20758C1187.83 -137.063 1299.67 -249.561 1352.39 -239.433C1369.08 -236.228 1379.82 -220.968 1383.46 -190.591C1383.91 -193.437 1384.34 -196.229 1384.74 -198.971C1384.46 -240.003 1374.55 -259.988 1356.76 -263.639C1306.48 -273.954 1193.17 -156.682 1056.25 -14.9749C1031.52 10.6194 1006.02 37.007 979.98 63.58H979.983ZM969.039 62.5863C971.522 62.7803 973.975 63.0256 976.439 63.2495C1003.02 36.139 1029.04 9.20981 1054.26 -16.892C1191.75 -159.2 1305.55 -276.97 1357.32 -266.348C1374 -262.927 1384.22 -246.451 1386.72 -213.57L1387.06 -216.379C1389.06 -263.791 1379.83 -286.658 1361.47 -290.647C1312.17 -301.361 1197.06 -179.092 1056.91 -30.2159C1028.53 -0.0751038 999.131 31.1511 969.039 62.5863ZM957.916 61.8698C960.427 62.0233 962.935 62.1768 965.431 62.3539C996.079 30.36 1026.02 -1.43777 1054.89 -32.1117C1195.64 -181.617 1311.23 -304.4 1362.05 -293.356C1377.8 -289.935 1387.32 -273.922 1389.44 -242.246C1392.33 -290.387 1383.82 -313.666 1366 -317.741C1317.68 -328.789 1200.93 -201.771 1057.71 -45.9622C1025.61 -11.0468 992.2 25.3038 957.918 61.8676L957.916 61.8698ZM383.108 171.777L387.469 170.529L382.816 171.725L383.108 171.775V171.777ZM371.143 175.197L376.896 173.551L376.179 173.434L370.24 174.967L371.143 175.195V175.197ZM359.162 178.631L365.803 176.726L364.6 176.432L357.861 178.181L359.162 178.631ZM347.177 182.066L354.518 179.961L352.994 179.445L345.628 181.362L347.177 182.066ZM335.171 185.512L343.066 183.245L341.355 182.478L333.492 184.533L335.169 185.512H335.171ZM323.164 188.958L331.491 186.568L329.692 185.529L321.441 187.694L323.164 188.96V188.958ZM311.152 192.409L315.478 191.165L319.804 189.924L317.987 188.598L309.447 190.843L311.149 192.409H311.152ZM299.133 195.859L308.037 193.302L306.264 191.681L297.503 193.991L299.135 195.861L299.133 195.859ZM287.094 199.294C287.48 199.188 287.869 199.094 288.253 198.983L296.193 196.703L294.507 194.78L285.584 197.139L287.092 199.294H287.094ZM274.597 201.898C277.865 201.421 281.08 200.804 284.238 200.034L282.61 197.714C279.431 198.258 276.208 198.659 272.935 198.915L274.597 201.898ZM261.667 203.041C265.044 202.922 268.374 202.668 271.651 202.28L269.883 199.111C266.629 199.275 263.329 199.307 259.988 199.207L261.667 203.041ZM248.754 202.901C252.106 203.088 255.414 203.165 258.678 203.12L256.906 199.083C253.703 198.915 250.463 198.631 247.188 198.237L248.754 202.903V202.901ZM236.166 201.704C239.404 202.135 242.606 202.463 245.772 202.7L244.133 197.832C241.057 197.399 237.955 196.874 234.822 196.258L236.166 201.704ZM145.888 -356H126.133C74.4516 -344.975 15.8451 -305.063 -43.5806 -264.588C-111.277 -218.481 -180.045 -171.643 -240.279 -166.382C-261.33 -164.544 -281.366 -167.826 -299.995 -178.015V-174.827C-281.275 -164.939 -261.162 -161.778 -240.04 -163.623C-179.093 -168.946 -110.016 -215.993 -42.019 -262.304C24.741 -307.776 90.4643 -352.53 145.888 -356ZM1619.99 490.04V487.075C1609.8 491.159 1599.81 494.49 1590.02 497H1600.23C1606.73 495.01 1613.32 492.684 1619.99 490.04ZM-299.992 -112.417C-290.661 -110.494 -280.997 -110.174 -271.045 -111.195C-225.463 -115.876 -173.738 -148.28 -121.293 -181.135C-54.9064 -222.723 12.6345 -265.036 71.1876 -253.418L71.1983 -253.414C120.284 -243.236 137.907 -167.389 158.536 -78.598C165.781 -47.4102 173.401 -14.6145 182.875 17.4604C172.928 -21.3852 166.06 -61.1158 159.656 -98.1765C144.463 -186.089 131.883 -258.867 87.2344 -268.026C29.3554 -279.411 -39.1347 -235.787 -106.908 -192.619C-162.197 -157.4 -217.023 -122.481 -265.68 -117.638C-277.524 -116.458 -288.989 -117.053 -299.992 -119.845V-122.741C-289.081 -119.855 -277.706 -119.216 -265.951 -120.386C-217.947 -125.163 -163.4 -159.906 -108.391 -194.945C-40.1502 -238.412 28.8135 -282.339 87.7656 -270.741L87.7763 -270.736C134.289 -261.206 147.014 -187.582 162.385 -98.6414C167.375 -69.7695 172.648 -39.2704 179.436 -8.85245C172.405 -46.6105 168.017 -84.4218 163.953 -119.469C153.828 -206.793 145.7 -276.874 103.81 -285.348C45.5409 -296.714 -24.353 -251.505 -93.961 -206.482C-151.812 -169.061 -209.469 -131.768 -260.579 -126.827C-274.245 -125.507 -287.423 -126.5 -299.995 -130.394V-133.333C-287.515 -129.313 -274.42 -128.264 -260.84 -129.578C-210.406 -134.452 -153.033 -171.564 -95.465 -208.8C-25.3876 -254.126 44.9819 -299.642 104.341 -288.063L104.348 -288.059C148.222 -279.187 156.452 -208.216 166.707 -119.783C169.783 -93.2483 173.045 -65.1313 177.501 -36.6603C173.098 -72.981 170.905 -108.73 168.885 -141.703C163.607 -227.824 159.498 -294.876 120.384 -302.67C61.7114 -314.017 -9.57764 -267.243 -81.0011 -220.382C-141.393 -180.755 -201.89 -141.063 -255.464 -136.026C-270.967 -134.568 -285.866 -136.013 -299.992 -141.17V-144.166C-285.955 -138.843 -271.137 -137.325 -255.713 -138.775C-202.85 -143.746 -142.633 -183.255 -82.5179 -222.697C-10.6251 -269.868 61.1354 -316.952 120.915 -305.385H120.926C162.129 -297.175 166.297 -229.187 171.648 -141.865C173.128 -117.71 174.698 -92.0648 177.169 -65.803C175.099 -100.352 174.813 -133.896 174.553 -164.717C173.841 -249.079 173.299 -312.868 136.968 -319.991C77.882 -331.327 5.20627 -283.009 -68.0198 -234.32C-130.955 -192.474 -194.302 -150.355 -250.327 -145.222C-267.685 -143.633 -284.319 -145.582 -299.988 -152.163V-155.221C-284.411 -148.431 -267.858 -146.388 -250.576 -147.97C-195.259 -153.037 -132.201 -194.969 -69.5473 -236.625C4.15027 -285.628 77.2953 -334.259 137.495 -322.705H137.5C176.044 -315.148 176.595 -250.384 177.316 -164.736C177.499 -143.074 177.693 -120.062 178.517 -96.3041C178.476 -128.712 179.808 -159.831 181.03 -188.351C184.548 -270.465 187.135 -330.841 153.551 -337.311C94.0376 -348.641 19.988 -298.789 -55.0237 -248.29C-120.491 -204.215 -186.694 -159.646 -245.19 -154.419C-264.422 -152.7 -282.792 -155.225 -299.99 -163.386V-166.489C-282.879 -158.078 -264.588 -155.455 -245.429 -157.168C-187.667 -162.331 -121.754 -206.704 -56.5746 -250.584C18.9128 -301.412 93.4317 -351.581 154.065 -340.036H154.071C189.998 -333.114 187.368 -271.734 183.79 -188.251C182.976 -169.231 182.109 -149.047 181.638 -128.102C183.296 -157.989 185.939 -186.447 188.36 -212.5C195.743 -291.94 201.028 -348.805 170.133 -354.642C166.583 -355.313 162.978 -355.755 159.323 -356H175.417C203.458 -345.122 198.25 -289.048 191.114 -212.25C185.868 -155.809 179.575 -88.0556 184.588 -19.0074C185.459 -9.55405 186.527 -0.0814819 187.831 9.3804C189.205 18.0576 190.769 26.7176 192.543 35.3372C194.376 43.3554 196.383 51.3288 198.591 59.2297C200.787 66.4419 203.144 73.5793 205.674 80.6272C208.204 87.1505 210.879 93.5864 213.712 99.9029C216.464 105.607 219.342 111.203 222.352 116.673C225.256 121.578 228.264 126.359 231.383 131.008L231.73 131.349C234.634 133.477 237.51 135.68 240.36 137.947C243.562 139.849 246.73 141.819 249.874 143.847C253.379 145.521 256.85 147.255 260.293 149.044C264.093 150.482 267.86 151.976 271.596 153.518C275.672 154.71 279.717 155.951 283.728 157.237C288.11 158.186 292.453 159.18 296.762 160.216C301.458 160.916 306.113 161.656 310.731 162.438C315.708 162.878 320.643 163.36 325.541 163.876C330.799 164.053 336.011 164.266 341.187 164.513C346.81 164.42 352.384 164.362 357.914 164.336C363.832 163.965 369.698 163.631 375.518 163.326C381.779 162.669 387.985 162.044 394.142 161.449C400.708 160.5 407.217 159.585 413.675 158.698C420.561 157.451 427.388 156.233 434.161 155.047C441.378 153.493 448.535 151.968 455.628 150.473C463.229 148.592 470.76 146.739 478.229 144.922C674.673 90.328 827.414 55.3038 954.353 61.6544C989.177 24.5318 1023.12 -12.3882 1055.69 -47.826C1199.5 -204.285 1316.75 -331.835 1366.64 -320.428C1388.79 -315.363 1397.64 -283.459 1389.63 -215.402C1389.23 -205.853 1388.38 -195.359 1387.08 -183.867C1386.69 -174.207 1385.87 -163.625 1384.61 -152.078C1384.24 -142.358 1383.46 -131.759 1382.25 -120.227C1381.91 -110.338 1381.16 -99.5839 1380 -87.9149C1379.68 -77.9988 1378.99 -67.2595 1377.9 -55.6459C1377.62 -45.5571 1376.97 -34.6493 1375.94 -22.8886C1375.71 -12.7571 1375.13 -1.84506 1374.18 9.88367C1374.01 20.1389 1373.5 31.1532 1372.64 42.9587C1372.55 53.3376 1372.13 64.448 1371.37 76.3324C1371.36 86.756 1371.05 97.8792 1370.42 109.744C1370.48 116.285 1370.43 123.096 1370.27 130.167C1370.63 144.521 1371.19 158.297 1371.96 171.512C1373.66 194.859 1375.89 216.551 1378.62 236.701C1387.91 244.749 1398.7 250.027 1410.84 252.799C1461.53 264.389 1535.45 232.79 1619.99 177.558V180.731C1535.38 235.771 1461.3 267.174 1410.22 255.494C1398.64 252.848 1388.25 248.003 1379.18 240.75L1379.55 243.39L1379.57 243.529V243.544C1379.89 245.591 1380.21 247.625 1380.53 249.643C1391.53 260.896 1404.8 267.876 1420.03 271.07C1469.66 281.481 1540 252.261 1619.99 200.988V204.148C1539.95 255.228 1469.46 284.266 1419.47 273.778C1404.91 270.725 1392.09 264.342 1381.28 254.23C1381.72 256.868 1382.16 259.469 1382.61 262.054C1395.23 277.094 1411.05 285.946 1429.56 289.461C1477.96 298.656 1544.63 271.793 1619.99 224.469V227.625C1544.59 274.753 1477.78 301.435 1429.05 292.175C1411.35 288.815 1396.03 280.75 1383.54 267.27C1383.93 269.462 1384.34 271.637 1384.74 273.791C1398.93 293.321 1417.44 304.254 1439.45 307.975C1486.44 315.919 1549.33 291.384 1619.99 248.001V251.138C1549.31 294.327 1486.29 318.7 1438.99 310.703C1417.96 307.148 1400.04 297.236 1385.92 279.833C1386.25 281.502 1386.58 283.176 1386.91 284.823C1402.63 309.619 1423.99 322.841 1449.75 326.626C1495.13 333.297 1554.14 311.018 1619.99 271.563V274.695C1554.12 313.959 1495 336.075 1449.35 329.364C1424.79 325.752 1404.14 313.861 1388.4 291.939C1388.63 292.999 1388.86 294.035 1389.1 295.086C1406.34 326.02 1430.74 341.733 1460.51 345.415C1504.03 350.8 1559.03 330.742 1619.99 295.189V298.302C1559.03 333.665 1503.94 353.579 1460.18 348.164C1431.93 344.667 1408.4 330.699 1391.05 303.687L1391.22 304.418C1410.02 342.534 1437.69 360.978 1471.78 364.358C1513.17 368.459 1564.03 350.561 1619.99 318.874V321.986C1564.04 353.485 1513.11 371.232 1471.51 367.107C1440.53 364.036 1414.74 348.938 1395.88 318.518C1416.32 361.008 1446.51 380.736 1483.59 383.444C1522.55 386.289 1569.14 370.466 1619.99 342.605V345.703C1569.17 373.379 1522.54 389.063 1483.39 386.206C1449.92 383.764 1421.94 367.879 1401.47 334.55C1423.75 380.45 1456.33 400.897 1496 402.692C1532.21 404.332 1574.36 390.529 1619.99 366.425V369.498C1574.4 393.42 1532.23 407.098 1495.88 405.452C1459.74 403.814 1429.36 387.151 1407.08 350.595C1431.45 400.274 1466.61 421.431 1509.04 422.098C1542.14 422.621 1579.69 410.757 1620 390.33V393.388C1579.75 413.641 1542.2 425.384 1509 424.86C1469.92 424.241 1436.89 406.753 1412.55 366.412C1439.32 420.497 1477.33 442.37 1522.75 441.662C1552.35 441.199 1585.12 431.204 1620 414.338V417.375C1585.19 434.076 1552.45 443.958 1522.78 444.421C1480.61 445.08 1444.71 426.813 1418.04 382.267C1447.53 441.242 1488.57 463.767 1537.1 461.381C1562.81 460.116 1590.65 451.893 1620 438.437V441.453C1590.74 454.747 1562.96 462.878 1537.23 464.142C1491.68 466.382 1452.63 447.262 1423.3 397.689C1455.93 462.462 1500.23 485.672 1552.07 481.262C1573.51 479.439 1596.25 472.918 1620 462.684V465.671C1596.36 475.76 1573.7 482.2 1552.3 484.022C1503.27 488.191 1460.9 468.297 1428.54 413.103C1452.46 460.112 1481.34 486.468 1514.09 496.991H1505.77C1478.64 486.118 1454.29 463.978 1433.37 427.79C1449.29 458.899 1466.87 481.55 1485.9 496.991H1481.51C1465.93 483.687 1451.33 465.533 1437.84 441.843C1449.31 464.115 1461.34 482.36 1473.94 496.991H1470.29C1460.52 485.344 1451.08 471.523 1441.99 455.342C1450.13 471.024 1458.41 484.864 1466.86 496.991H1463.51C1457.22 487.817 1451.01 477.705 1444.89 466.588C1450.59 477.524 1456.29 487.638 1462 496.991H1458.8C1453.76 488.677 1448.74 479.782 1443.72 470.256C1448.57 479.684 1453.38 488.581 1458.16 496.991H1455C1427.33 448.014 1398.6 382.502 1367.33 297.494L1367.29 297.385C1324.52 144.135 1240.36 112.133 1140.21 111.589C1141.42 112.254 1142.63 112.947 1143.84 113.628C1237.86 129.15 1318.37 175.438 1369.9 318.998H1369.9C1401.3 391.942 1429.02 450.688 1454.6 496.991H1451.46C1426 450.748 1398.45 392.343 1367.35 320.09L1367.32 320.007C1317.74 181.791 1240.94 134.486 1151.05 117.75C1151.61 118.08 1152.17 118.439 1152.73 118.773C1161.37 122.006 1169.9 125.553 1178.31 129.459C1252.21 163.767 1317.06 225.469 1369.88 341.479C1400.47 402.78 1427 454.314 1450.79 496.989H1447.64C1423.97 454.476 1397.65 403.336 1367.38 342.686L1367.36 342.643C1314.86 227.311 1250.48 166.01 1177.15 131.971C1173.38 130.223 1169.59 128.544 1165.78 126.937C1239.12 174.707 1304.9 250.952 1369.82 363.909C1382.02 385.138 1391.51 401.707 1400.58 417.554C1417.14 446.479 1432.27 472.924 1446.26 496.991H1443.06C1429.29 473.28 1414.41 447.298 1398.17 418.929C1387.76 400.739 1376.78 381.551 1367.43 365.284C1298.8 245.873 1229.16 167.674 1150.51 120.902C1144.57 118.701 1138.56 116.649 1132.51 114.732C1125.45 113.741 1118.31 112.903 1111.11 112.201C1103.4 112.547 1095.62 113.022 1087.78 113.589C1079.47 115.176 1071.09 116.854 1062.65 118.573L1050.38 122.335C1045.62 123.795 1040.85 125.26 1036.06 126.723C1026.91 130.342 1017.7 133.955 1008.46 137.505C999.099 141.862 989.696 146.163 980.269 150.358C970.694 155.337 961.09 160.221 951.469 164.953C941.911 170.329 932.333 175.577 922.754 180.646C913.206 186.337 903.648 191.873 894.097 197.207C884.508 203.18 874.921 208.97 865.347 214.535C855.813 220.673 846.292 226.612 836.79 232.312C827.357 238.543 817.936 244.567 808.545 250.34C799.146 256.678 789.768 262.798 780.424 268.66C771.219 274.97 762.039 281.059 752.893 286.891C743.697 293.286 734.53 299.445 725.399 305.348C716.068 311.908 706.773 318.218 697.519 324.261C688.474 330.671 679.467 336.841 670.5 342.754C661.489 349.194 652.514 355.391 643.584 361.33C634.445 367.907 625.344 374.23 616.291 380.286C520.818 449.275 429.877 490.799 352.732 480.202C298.281 472.724 269.955 354.349 242.971 241.578C239.956 228.983 236.961 216.461 233.947 204.172C167.315 194.626 87.0253 146.999 8.95447 100.675C-58.5821 60.6009 -124.455 21.5143 -178.044 9.13303C-227.656 -2.32916 -267.421 7.23297 -299.992 16.9102V14.0314C-267.248 4.33917 -227.312 -5.09073 -177.425 6.43542C-123.414 18.9148 -57.3575 58.1102 10.3646 98.2929C87.7955 144.238 167.417 191.472 233.239 201.284L231.846 195.65C170.572 182.589 98.5922 136.305 27.6786 90.7012C-39.8451 47.2771 -106.407 4.47141 -161.466 -8.19138C-216.104 -20.6665 -260.867 -5.19308 -297.718 7.54861L-299.992 8.33334V5.41397L-298.616 4.93842C-261.426 -7.91843 -216.247 -23.539 -160.847 -10.889C-105.319 1.88254 -38.5566 44.8162 29.1719 88.3704C99.3879 133.524 170.649 179.345 231.101 192.66L229.712 187.126C173.574 170.907 109.323 125.919 45.3361 81.1092C-21.7162 34.1515 -88.4805 -12.6057 -144.888 -25.5158C-199.402 -37.8182 -246.024 -20.031 -285.268 -5.05664C-290.294 -3.1395 -295.201 -1.26505 -299.99 0.492157V-2.45923C-295.517 -4.10977 -290.937 -5.85843 -286.252 -7.64545C-246.653 -22.7542 -199.611 -40.7035 -144.273 -28.2134H-144.267C-87.3541 -15.186 -20.3615 31.729 46.919 78.8466C110.148 123.126 173.64 167.586 228.931 184.032L227.549 178.626C176.294 159.598 119.16 115.811 61.7989 71.8499C-4.31473 21.1774 -70.7313 -29.7296 -128.303 -42.8402C-182.803 -55.004 -231.212 -35.0033 -272.773 -17.8324C-282.192 -13.9406 -291.265 -10.1917 -299.988 -6.98651V-9.93576C-291.598 -13.045 -282.873 -16.6489 -273.823 -20.3893C-231.891 -37.7116 -183.048 -57.8914 -127.699 -45.5379H-127.693C-69.5238 -32.2929 -2.87048 18.7954 63.4799 69.6513C120.021 112.986 176.343 156.145 226.708 175.361L225.339 170.12C178.683 148.607 128.04 105.908 76.9262 62.8059C12.259 8.27365 -53.1762 -46.9026 -111.725 -60.1647C-166.27 -72.2048 -216.415 -50.078 -260.23 -30.7447C-274.122 -24.6138 -287.382 -18.7643 -299.988 -14.3479V-17.2801C-287.758 -21.624 -274.851 -27.3199 -261.345 -33.2802C-217.147 -52.7841 -166.564 -75.1007 -111.124 -62.8623H-111.117C-51.9005 -49.4489 13.7907 5.94495 78.7161 60.6926C128.943 103.046 178.709 145.005 224.422 166.646C223.974 164.955 223.523 163.27 223.071 161.598C180.697 137.885 135.919 96.1177 90.6072 53.8452C27.8941 -4.65784 -35.8558 -64.129 -95.1343 -77.487C-149.803 -89.4226 -201.632 -65.2485 -247.637 -43.7892C-266.056 -35.1974 -283.551 -27.0384 -299.986 -21.7562V-24.6585C-283.952 -29.896 -266.826 -37.8843 -248.808 -46.2885C-202.397 -67.9377 -150.112 -92.3249 -94.5519 -80.191L-94.5412 -80.1846C-34.5268 -66.6667 29.5026 -6.93533 92.4909 51.8236C136.847 93.2047 180.689 134.1 222.052 157.854L220.725 153.034C182.276 127.348 142.739 86.304 102.733 44.7756C42.4817 -17.7706 -18.849 -81.4385 -78.5584 -94.8093V-94.805C-133.38 -106.653 -186.856 -80.4917 -235.009 -56.9339C-257.979 -45.6956 -279.749 -35.046 -299.988 -29.3181V-32.1906C-280.2 -37.9035 -258.794 -48.3741 -236.223 -59.4162C-187.654 -83.1765 -133.72 -109.562 -77.9739 -97.5133L-77.9675 -97.5069C-17.4346 -83.9548 44.1905 -19.9841 104.728 42.8607C143.703 83.3206 182.231 123.311 219.573 148.918C219.144 147.392 218.711 145.875 218.276 144.368C183.385 116.865 148.488 76.3047 113.269 35.3671C55.9813 -31.2224 -2.17502 -98.8184 -61.9762 -112.127C-116.988 -123.892 -172.075 -95.803 -222.335 -70.1747C-249.879 -56.1279 -275.982 -42.8168 -299.992 -37.0932V-39.9401C-276.485 -45.6701 -250.743 -58.7977 -223.598 -72.6398C-172.924 -98.4772 -117.378 -126.801 -61.4087 -114.827L-61.398 -114.821C-0.68808 -101.316 57.7733 -33.3613 115.364 33.5779C149.47 73.2189 183.27 112.504 216.929 139.766C216.511 138.345 216.095 136.936 215.675 135.535C183.974 106.292 153.165 65.9236 122.223 25.3763C68.3759 -45.1817 14.1129 -116.286 -45.4067 -129.443C-100.647 -141.138 -157.312 -111.176 -209.636 -83.507C-241.751 -66.5259 -272.244 -50.3978 -299.995 -45.1455V-47.9604C-272.801 -53.2362 -242.66 -69.1745 -210.926 -85.9551C-158.178 -113.848 -101.052 -144.053 -44.8328 -132.149L-44.8222 -132.143C15.6915 -118.772 70.266 -47.263 124.42 23.7002C154.154 62.6652 183.767 101.462 214.069 130.246C213.668 128.943 213.266 127.649 212.863 126.365C184.017 95.3756 156.819 54.8943 129.69 14.5155C79.7315 -59.8384 29.9997 -133.86 -28.8372 -146.766C-84.3376 -158.398 -142.552 -126.609 -196.896 -96.929C-233.595 -76.8856 -268.549 -57.7997 -299.997 -53.4857V-56.2729C-269.149 -60.6168 -234.544 -79.5171 -198.218 -99.3536C-143.437 -129.273 -84.7536 -161.318 -28.2634 -149.472H-28.2527C31.6679 -136.329 81.7134 -61.843 131.985 12.9801C157.781 51.3736 183.639 89.8588 210.849 120.07C210.465 118.891 210.081 117.722 209.695 116.56C183.462 83.7897 159.518 42.9545 135.836 2.56705C90.172 -75.3097 45.4854 -151.519 -12.2592 -164.088C-68.0348 -175.665 -127.774 -142.089 -184.117 -110.419C-223.765 -88.1324 -261.748 -66.7818 -295.8 -62.5467C-297.206 -62.3718 -298.604 -62.2354 -299.997 -62.1202V-64.9009C-298.715 -65.0097 -297.43 -65.1356 -296.138 -65.2976C-262.627 -69.4666 -224.876 -90.685 -185.472 -112.835C-128.689 -144.752 -68.4828 -178.593 -11.6854 -166.798H-11.6747C47.2497 -153.973 92.2413 -77.2417 138.219 1.16815C160.369 38.9454 182.754 77.1171 206.977 108.612L206.881 108.335C206.54 107.369 206.203 106.401 205.87 105.432C182.197 70.918 161.325 29.6989 140.883 -10.6736C99.868 -91.683 60.5829 -169.27 4.31879 -181.414C-51.7725 -192.947 -113.011 -157.622 -171.313 -123.986C-213.619 -99.5797 -254.395 -76.0582 -290.864 -71.7164C-293.94 -71.3496 -296.984 -71.1257 -299.995 -71.0404V-73.817C-297.089 -73.898 -294.154 -74.1112 -291.188 -74.4652C-255.261 -78.7409 -214.734 -102.122 -172.687 -126.377C-113.933 -160.271 -52.2226 -195.868 4.8884 -184.12H4.90546C62.4538 -171.699 102.033 -93.5319 143.356 -11.9169C162.152 25.2057 181.314 63.0469 202.649 95.6464L201.93 93.3454C180.644 57.0375 162.598 15.2085 145.111 -25.326C109.024 -108.975 75.322 -187.093 20.9011 -198.737C-35.5081 -210.229 -98.2319 -173.187 -158.477 -137.606C-203.409 -111.07 -246.977 -85.3388 -285.887 -80.8926C-290.666 -80.3467 -295.37 -80.127 -299.995 -80.2571V-83.0357C-295.47 -82.8971 -290.873 -83.1104 -286.198 -83.6435C-247.876 -88.0215 -204.556 -113.605 -159.883 -139.988C-99.1855 -175.838 -35.9902 -213.157 21.4664 -201.447H21.4771C77.3017 -189.503 111.277 -110.754 147.658 -26.4243C163.513 10.3251 179.831 48.1407 198.574 81.8683L198.267 80.7573C179.127 42.4534 163.65 -0.403503 148.823 -41.4605C117.875 -127.166 89.7731 -204.981 37.4812 -216.061C-19.2693 -227.517 -83.4565 -188.789 -145.615 -151.284C-193.158 -122.6 -239.528 -94.6216 -280.872 -90.073C-287.38 -89.3565 -293.759 -89.2285 -299.995 -89.7552V-92.5531C-293.859 -92.005 -287.581 -92.1159 -281.174 -92.8218C-240.441 -97.3022 -194.327 -125.127 -147.049 -153.653C-84.4357 -191.433 -19.7749 -230.445 38.038 -218.767H38.0551C91.8466 -207.369 120.201 -128.859 151.424 -42.3903C164.396 -6.46405 177.868 30.8398 193.845 65.2114C177.188 25.34 164.411 -17.9881 152.305 -59.0323C126.611 -146.147 103.975 -222.906 54.0741 -233.381C-3.03903 -244.811 -68.679 -204.424 -132.734 -165.013C-182.869 -134.167 -232.046 -103.907 -275.83 -99.2577C-284.097 -98.3812 -292.161 -98.4153 -299.995 -99.5221V-102.339C-292.257 -101.196 -284.289 -101.141 -276.123 -102.009C-232.976 -106.589 -184.059 -136.689 -134.187 -167.376C-69.6753 -207.068 -3.56808 -247.746 54.6139 -236.098L54.6245 -236.094C106.153 -225.288 129.015 -147.778 154.957 -59.8128C164.859 -26.2409 175.215 8.86649 187.771 42.3233C174.592 2.71634 164.919 -38.8909 155.838 -77.9839C135.426 -165.834 117.99 -240.879 70.6564 -250.706C13.1593 -262.112 -53.9101 -220.096 -119.834 -178.798C-172.557 -145.767 -224.556 -113.194 -270.764 -108.447C-280.81 -107.414 -290.567 -107.702 -299.995 -109.564V-112.417H-299.992ZM1369.98 -63.1416V-63.1374V-63.1416ZM1369.87 341.487L1369.88 341.505L1369.87 341.487ZM1369.98 -63.1374V-63.1203V-63.1374Z" fill="#FF7757" fill-opacity="0.05"/>
</g>
<g id="Infomation">
<g id="Contact">
<g id="Address" clip-path="url(#clip2_0_1)">
<g id="Homework-icon">
<rect width="48" height="48" rx="24" fill="#FF7757"/>
<g id="home_work">
<mask id="mask0_0_1" style="mask-type:alpha" maskUnits="userSpaceOnUse" x="12" y="12" width="24" height="24">
<rect id="Bounding box" x="12" y="12" width="24" height="24" fill="#D9D9D9"/>
</mask>
<g mask="url(#mask0_0_1)">
<path id="home_work_2" d="M28.5 32.5V23.1788C28.5 22.8776 28.4355 22.5981 28.3067 22.3404C28.1778 22.0827 27.9929 21.8718 27.7519 21.7077L22.1923 17.7096V16.9692C22.1923 16.5705 22.3401 16.226 22.6356 15.9356C22.9311 15.6452 23.2833 15.5 23.6923 15.5H33C33.4089 15.5 33.7612 15.6478 34.0567 15.9433C34.3522 16.2388 34.5 16.591 34.5 17V31C34.5 31.4089 34.3522 31.7612 34.0567 32.0567C33.7612 32.3522 33.4089 32.5 33 32.5H28.5ZM29.1154 28.8846H30.8846V27.1154H29.1154V28.8846ZM29.1154 24.8846H30.8846V23.1154H29.1154V24.8846ZM29.1154 20.8846H30.8846V19.1154H29.1154V20.8846ZM13.5 31.5961V24.1788C13.5 23.884 13.567 23.6061 13.701 23.3452C13.8349 23.0843 14.0224 22.8718 14.2635 22.7077L18.9557 19.3635C19.2737 19.1391 19.6218 19.027 20 19.027C20.3782 19.027 20.7262 19.1391 21.0442 19.3635L25.7365 22.7077C25.9775 22.8718 26.165 23.0843 26.299 23.3452C26.433 23.6061 26.5 23.884 26.5 24.1788V31.5961C26.5 31.8538 26.4137 32.0688 26.2413 32.2413C26.0688 32.4137 25.8538 32.5 25.5961 32.5H21.9231V26.9615H18.0769V32.5H14.4039C14.1462 32.5 13.9311 32.4137 13.7587 32.2413C13.5862 32.0688 13.5 31.8538 13.5 31.5961Z" fill="white"/>
</g>
</g>
</g>
</g>
</g>
</g>
<g id="Layer_1_2" opacity="0.1" clip-path="url(#clip3_0_1)">
</g>
</g>
</g>
<defs>
<clipPath id="clip0_0_1">
<rect width="1920" height="6043" fill="white" transform="translate(-300 -5535)"/>
</clipPath>
<clipPath id="clip1_0_1">
<rect width="1920" height="853" fill="white" transform="translate(-300 -356)"/>
</clipPath>
<clipPath id="clip2_0_1">
<rect width="725" height="56" fill="white"/>
</clipPath>
<clipPath id="clip3_0_1">
<rect width="400" height="430" fill="white" transform="matrix(-1 0 0 1 100 30)"/>
</clipPath>
</defs>
</svg>
