<svg width="48" height="48" viewBox="0 0 48 48" fill="none" xmlns="http://www.w3.org/2000/svg">
<rect width="48" height="48" rx="24" fill="#FF7757"/>
<mask id="mask0_1_38" style="mask-type:alpha" maskUnits="userSpaceOnUse" x="12" y="12" width="24" height="24">
<rect x="12" y="12" width="24" height="24" fill="#D9D9D9"/>
</mask>
<g mask="url(#mask0_1_38)">
<path d="M31.7884 23.7307C31.5859 23.7307 31.4077 23.6589 31.2538 23.5153C31.1 23.3717 31.0096 23.1935 30.9827 22.9807C30.766 21.3666 30.0862 19.988 28.9432 18.8451C27.8003 17.7021 26.4218 17.0223 24.8076 16.8057C24.5948 16.7787 24.4166 16.6909 24.273 16.5422C24.1295 16.3935 24.0577 16.2127 24.0577 15.9999C24.0577 15.7871 24.132 15.6089 24.2807 15.4653C24.4295 15.3217 24.6051 15.2634 24.8076 15.2903C26.8435 15.5108 28.5791 16.3387 30.0144 17.774C31.4496 19.2092 32.2775 20.9448 32.498 22.9807C32.5249 23.1832 32.4666 23.3589 32.323 23.5076C32.1794 23.6563 32.0012 23.7307 31.7884 23.7307ZM27.6519 23.7307C27.4865 23.7307 27.3413 23.6749 27.2163 23.5634C27.0913 23.4518 26.9968 23.3031 26.9327 23.1172C26.7801 22.5762 26.5003 22.0989 26.0932 21.6855C25.6862 21.272 25.2121 20.9922 24.6711 20.846C24.4852 20.7819 24.3365 20.6874 24.225 20.5624C24.1134 20.4374 24.0577 20.2871 24.0577 20.1114C24.0577 19.8615 24.1439 19.6595 24.3163 19.5057C24.4888 19.3519 24.6846 19.3019 24.9038 19.3557C25.7794 19.5595 26.5339 19.9781 27.1672 20.6115C27.8006 21.2448 28.2224 22.0025 28.4326 22.8845C28.4865 23.1038 28.4323 23.2996 28.2701 23.472C28.108 23.6444 27.9019 23.7307 27.6519 23.7307ZM31.373 32.4422C29.4281 32.4422 27.5022 31.9806 25.5951 31.0576C23.6881 30.1345 21.9856 28.9239 20.4875 27.4258C18.9894 25.9278 17.7772 24.2268 16.851 22.323C15.9247 20.4192 15.4615 18.4948 15.4615 16.5499C15.4615 16.2499 15.5615 15.9999 15.7615 15.7999C15.9615 15.5999 16.2115 15.4999 16.5115 15.4999H19.773C20.032 15.4999 20.258 15.5797 20.4509 15.7394C20.6439 15.899 20.7634 16.1051 20.8096 16.3576L21.3826 19.2999C21.4224 19.5461 21.4182 19.7698 21.3701 19.9711C21.3221 20.1723 21.2166 20.348 21.0538 20.498L18.7692 22.7461C19.5589 24.0871 20.498 25.2986 21.5865 26.3807C22.675 27.4627 23.9102 28.4063 25.2923 29.2115L27.5269 26.9384C27.6897 26.7756 27.8823 26.6599 28.1048 26.5913C28.3272 26.5227 28.5551 26.5083 28.7884 26.548L31.5653 27.1134C31.8179 27.1698 32.024 27.2919 32.1836 27.4797C32.3432 27.6676 32.423 27.891 32.423 28.1499V31.3922C32.423 31.6922 32.323 31.9422 32.123 32.1422C31.923 32.3422 31.673 32.4422 31.373 32.4422Z" fill="white"/>
</g>
</svg>
