<svg width="48" height="48" viewBox="0 0 48 48" fill="none" xmlns="http://www.w3.org/2000/svg">
<rect width="48" height="48" rx="24" fill="#FF7757"/>
<mask id="mask0_1_27" style="mask-type:alpha" maskUnits="userSpaceOnUse" x="12" y="12" width="24" height="24">
<rect x="12" y="12" width="24" height="24" fill="#D9D9D9"/>
</mask>
<g mask="url(#mask0_1_27)">
<path d="M29.0673 31.0576H30.5481C30.6378 31.0576 30.7115 31.0287 30.7692 30.971C30.8269 30.9133 30.8558 30.8396 30.8558 30.7499V17.3653C30.8558 17.2755 30.8269 17.2018 30.7692 17.1441C30.7115 17.0864 30.6378 17.0576 30.5481 17.0576H29.0673C28.9776 17.0576 28.9038 17.0864 28.8462 17.1441C28.7885 17.2018 28.7596 17.2755 28.7596 17.3653V30.7499C28.7596 30.8396 28.7885 30.9133 28.8462 30.971C28.9038 31.0287 28.9776 31.0576 29.0673 31.0576ZM19.2016 25.8653C19.4467 25.8653 19.6523 25.7824 19.8183 25.6166C19.9843 25.4508 20.0673 25.2453 20.0673 25.0002C20.0673 24.7551 19.9844 24.5496 19.8186 24.3835C19.6528 24.2175 19.4474 24.1345 19.2023 24.1345C18.9572 24.1345 18.7516 24.2174 18.5856 24.3832C18.4196 24.549 18.3366 24.7545 18.3366 24.9996C18.3366 25.2446 18.4195 25.4502 18.5853 25.6162C18.7511 25.7823 18.9565 25.8653 19.2016 25.8653ZM19.2016 28.8653C19.4467 28.8653 19.6523 28.7824 19.8183 28.6166C19.9843 28.4508 20.0673 28.2453 20.0673 28.0002C20.0673 27.7551 19.9844 27.5496 19.8186 27.3835C19.6528 27.2175 19.4474 27.1345 19.2023 27.1345C18.9572 27.1345 18.7516 27.2174 18.5856 27.3832C18.4196 27.549 18.3366 27.7545 18.3366 27.9996C18.3366 28.2446 18.4195 28.4502 18.5853 28.6162C18.7511 28.7823 18.9565 28.8653 19.2016 28.8653ZM19.2404 22.7499H25.1635C25.4196 22.7499 25.6342 22.6632 25.8075 22.49C25.9807 22.3168 26.0673 22.1021 26.0673 21.846V20.1537C26.0673 19.8977 25.9807 19.683 25.8075 19.5098C25.6342 19.3365 25.4196 19.2499 25.1635 19.2499H19.2404C18.9843 19.2499 18.7697 19.3365 18.5964 19.5098C18.4232 19.683 18.3366 19.8977 18.3366 20.1537V21.846C18.3366 22.1021 18.4232 22.3168 18.5964 22.49C18.7697 22.6632 18.9843 22.7499 19.2404 22.7499ZM22.2016 25.8653C22.4467 25.8653 22.6523 25.7824 22.8183 25.6166C22.9843 25.4508 23.0673 25.2453 23.0673 25.0002C23.0673 24.7551 22.9844 24.5496 22.8186 24.3835C22.6528 24.2175 22.4474 24.1345 22.2023 24.1345C21.9572 24.1345 21.7516 24.2174 21.5856 24.3832C21.4196 24.549 21.3366 24.7545 21.3366 24.9996C21.3366 25.2446 21.4195 25.4502 21.5853 25.6162C21.7511 25.7823 21.9565 25.8653 22.2016 25.8653ZM22.2016 28.8653C22.4467 28.8653 22.6523 28.7824 22.8183 28.6166C22.9843 28.4508 23.0673 28.2453 23.0673 28.0002C23.0673 27.7551 22.9844 27.5496 22.8186 27.3835C22.6528 27.2175 22.4474 27.1345 22.2023 27.1345C21.9572 27.1345 21.7516 27.2174 21.5856 27.3832C21.4196 27.549 21.3366 27.7545 21.3366 27.9996C21.3366 28.2446 21.4195 28.4502 21.5853 28.6162C21.7511 28.7823 21.9565 28.8653 22.2016 28.8653ZM25.2016 25.8653C25.4467 25.8653 25.6523 25.7824 25.8183 25.6166C25.9843 25.4508 26.0673 25.2453 26.0673 25.0002C26.0673 24.7551 25.9844 24.5496 25.8186 24.3835C25.6528 24.2175 25.4474 24.1345 25.2023 24.1345C24.9572 24.1345 24.7516 24.2174 24.5856 24.3832C24.4196 24.549 24.3366 24.7545 24.3366 24.9996C24.3366 25.2446 24.4195 25.4502 24.5853 25.6162C24.7511 25.7823 24.9565 25.8653 25.2016 25.8653ZM25.2016 28.8653C25.4467 28.8653 25.6523 28.7824 25.8183 28.6166C25.9843 28.4508 26.0673 28.2453 26.0673 28.0002C26.0673 27.7551 25.9844 27.5496 25.8186 27.3835C25.6528 27.2175 25.4474 27.1345 25.2023 27.1345C24.9572 27.1345 24.7516 27.2174 24.5856 27.3832C24.4196 27.549 24.3366 27.7545 24.3366 27.9996C24.3366 28.2446 24.4195 28.4502 24.5853 28.6162C24.7511 28.7823 24.9565 28.8653 25.2016 28.8653ZM29.0673 32.5575C28.7018 32.5575 28.38 32.4643 28.1018 32.2777C27.8237 32.0912 27.609 31.8511 27.4577 31.5575H17.452C16.9549 31.5575 16.5293 31.3805 16.1753 31.0265C15.8213 30.6725 15.6443 30.247 15.6443 29.7499V18.3653C15.6443 17.8682 15.8213 17.4426 16.1753 17.0886C16.5293 16.7346 16.9549 16.5576 17.452 16.5576H27.4577C27.609 16.264 27.8237 16.024 28.1018 15.8374C28.38 15.6509 28.7018 15.5576 29.0673 15.5576H30.5481C31.0452 15.5576 31.4707 15.7346 31.8247 16.0886C32.1787 16.4426 32.3557 16.8682 32.3557 17.3653V30.7499C32.3557 31.247 32.1787 31.6725 31.8247 32.0265C31.4707 32.3805 31.0452 32.5575 30.5481 32.5575H29.0673Z" fill="white"/>
</g>
</svg>
