<svg width="48" height="48" viewBox="0 0 48 48" fill="none" xmlns="http://www.w3.org/2000/svg">
<rect width="48" height="48" rx="24" fill="#FF7757"/>
<mask id="mask0_1_54" style="mask-type:alpha" maskUnits="userSpaceOnUse" x="12" y="12" width="24" height="24">
<rect x="12" y="12" width="24" height="24" fill="#D9D9D9"/>
</mask>
<g mask="url(#mask0_1_54)">
<path d="M22.0635 31.7231C21.6801 31.1346 21.3391 30.4949 21.0404 29.8038C20.7417 29.1128 20.5013 28.4025 20.3192 27.673H16.9269C17.4615 28.7179 18.1634 29.5888 19.0327 30.2856C19.9019 30.9824 20.9122 31.4615 22.0635 31.7231ZM16.2981 26.1731H20.0154C19.9526 25.8013 19.9071 25.4369 19.8789 25.0798C19.8507 24.7227 19.8366 24.3628 19.8366 24C19.8366 23.6372 19.8507 23.2772 19.8789 22.9202C19.9071 22.5631 19.9526 22.1987 20.0154 21.8269H16.2981C16.2019 22.1666 16.1282 22.5198 16.0769 22.8865C16.0256 23.2532 16 23.6243 16 24C16 24.3756 16.0256 24.7468 16.0769 25.1135C16.1282 25.4801 16.2019 25.8333 16.2981 26.1731ZM16.9269 20.3269H20.3192C20.4885 19.591 20.7256 18.8728 21.0308 18.1721C21.3359 17.4715 21.6801 16.8397 22.0635 16.2769C20.9442 16.5256 19.9404 17.0032 19.0519 17.7096C18.1634 18.416 17.4551 19.2884 16.9269 20.3269ZM21.8596 20.3269H26.1404C25.9211 19.5103 25.6372 18.7577 25.2885 18.0692C24.9397 17.3808 24.5102 16.6981 24 16.0211C23.4897 16.6724 23.0634 17.3423 22.7211 18.0307C22.3788 18.7192 22.0916 19.4846 21.8596 20.3269ZM27.6807 20.3269H31.0731C30.5449 19.2884 29.8365 18.4144 28.9481 17.7048C28.0596 16.9952 27.0557 16.5192 25.9365 16.2769C26.2878 16.8333 26.616 17.4618 26.9211 18.1625C27.2262 18.8631 27.4794 19.5846 27.6807 20.3269ZM24 33.5C22.6974 33.5 21.4683 33.2503 20.3125 32.7509C19.1567 32.2516 18.1487 31.5718 17.2885 30.7115C16.4282 29.8512 15.7484 28.8432 15.2491 27.6875C14.7497 26.5317 14.5 25.3025 14.5 24C14.5 22.6872 14.7497 21.4554 15.2491 20.3048C15.7484 19.1542 16.4282 18.1487 17.2885 17.2885C18.1487 16.4282 19.1567 15.7484 20.3125 15.249C21.4683 14.7497 22.6974 14.5 24 14.5C25.3128 14.5 26.5445 14.7497 27.6952 15.249C28.8458 15.7484 29.8512 16.4282 30.7115 17.2885C31.5718 18.1487 32.2516 19.1542 32.7509 20.3048C33.2503 21.4554 33.5 22.6872 33.5 24C33.5 24.1731 33.4958 24.3493 33.4875 24.5288C33.4791 24.7083 33.4634 24.8846 33.4403 25.0577H31.9154C31.9487 24.8846 31.9711 24.7109 31.9827 24.5365C31.9942 24.3622 32 24.1833 32 24C32 23.6243 31.9743 23.2532 31.9231 22.8865C31.8718 22.5198 31.7981 22.1666 31.7019 21.8269H27.9846C28.0474 22.1987 28.0929 22.5631 28.1211 22.9202C28.1493 23.2772 28.1634 23.6372 28.1634 24C28.1634 24.1833 28.1618 24.3605 28.1586 24.5317C28.1554 24.7029 28.1455 24.8782 28.1288 25.0577H26.6288C26.6455 24.8846 26.6554 24.7109 26.6587 24.5365C26.6618 24.3622 26.6635 24.1833 26.6635 24C26.6635 23.6243 26.6494 23.2612 26.6212 22.9106C26.5929 22.5599 26.5474 22.1987 26.4846 21.8269H21.5154C21.4525 22.1987 21.407 22.5599 21.3788 22.9106C21.3506 23.2612 21.3365 23.6243 21.3365 24C21.3365 24.3756 21.3506 24.7388 21.3788 25.0894C21.407 25.4401 21.4525 25.8013 21.5154 26.1731H25.0577V27.673H21.8596C22.0916 28.5089 22.3836 29.2791 22.7356 29.9836C23.0875 30.6881 23.5089 31.3532 24 31.9788C24.1961 31.7186 24.3807 31.4526 24.5538 31.1808C24.7269 30.909 24.8949 30.6314 25.0577 30.3481V33.4403C24.8846 33.4634 24.7109 33.4791 24.5365 33.4875C24.3622 33.4958 24.1833 33.5 24 33.5ZM31.95 33.0192L28.75 29.8192V32.4H27.25V27.25H32.4V28.75H29.7942L32.9942 31.95L31.95 33.0192Z" fill="white"/>
</g>
</svg>
