<svg width="163" height="48" viewBox="0 0 163 48" fill="none" xmlns="http://www.w3.org/2000/svg">
<rect width="163" height="48" fill="#F5F5F5"/>
<g id="VeDienTu" clip-path="url(#clip0_0_1)">
<rect width="1920" height="6043" transform="translate(-302 -2)" fill="white"/>
<g id="header section">
<rect width="1920" height="598" transform="translate(-302 1.93579) rotate(-0.177134)" fill="#FFAD61"/>
<g id="Banner">
<g id="background">
<path id="Vector" d="M586.251 38.8486L601.118 38.8026L601.116 38.1439L585.078 38.1934L578.246 49.8613L571.4 61.5292L543.915 61.6142L530.093 38.3634L500.265 38.4557L490.272 55.5087L486.588 61.7915L459.089 61.8765L445.281 38.6256L415.452 38.7179L401.775 62.0537L374.276 62.1387L360.455 38.8879L330.626 38.9801L316.962 62.3159L289.463 62.4009L275.642 39.1501L245.814 39.2423L235.82 56.2954L232.136 62.5781L204.651 62.6631L190.829 39.4123L161.001 39.5045L147.323 62.8403L119.838 62.9253L106.017 39.6745L76.1882 39.7667L69.3427 51.4346L62.5108 63.1025L35.012 63.1875L21.204 39.9367L-8.6245 40.0289L-12.3219 46.3117L-22.3019 63.3647L-49.8007 63.4497L-63.6221 40.199L-93.4506 40.2912L-107.128 63.627L-134.613 63.7119L-148.435 40.4612L-178.263 40.5534L-185.095 52.2213L-191.941 63.8892L-206.808 63.9351L-206.804 65.2526L-191.937 65.2067L-185.019 76.832L-178.115 88.4574L-184.947 100.125L-191.793 111.806L-206.66 111.852L-206.656 113.17L-191.788 113.124L-184.871 124.749L-177.967 136.375L-184.799 148.043L-191.644 159.71L-206.512 159.756L-206.507 161.074L-191.64 161.028L-184.723 172.653L-177.819 184.279L-184.651 195.947L-191.496 207.615L-206.363 207.661L-206.359 208.978L-191.492 208.932L-184.575 220.557L-177.671 232.183L-184.503 243.864L-191.348 255.532L-206.215 255.578L-206.211 256.895L-191.344 256.849L-184.427 268.475L-177.523 280.1L-184.355 291.768L-191.2 303.436L-206.067 303.482L-206.063 304.799L-191.196 304.753L-184.279 316.379L-177.375 328.004L-184.207 339.672L-191.052 351.34L-205.919 351.386L-205.915 352.703L-191.048 352.657L-184.13 364.283L-177.226 375.921L-184.058 387.589L-190.904 399.257L-205.771 399.303L-205.767 400.621L-190.9 400.575L-183.982 412.2L-177.078 423.825L-183.91 435.493L-190.756 447.161L-205.623 447.207L-205.619 448.525L-190.752 448.479L-183.834 460.104L-176.93 471.73L-183.762 483.397L-190.608 495.065L-205.475 495.111L-205.471 496.429L-190.604 496.383L-183.686 508.021L-176.782 519.647L-183.614 531.315L-190.46 542.983L-205.327 543.029L-205.323 544.346L-190.455 544.3L-183.538 555.925L-176.634 567.551L-146.806 567.459L-133.128 544.123L-105.643 544.038L-96.424 559.543L-91.8214 567.289L-61.9929 567.196L-48.3155 543.861L-20.8167 543.776L-10.7314 560.767L-6.99524 567.026L22.8333 566.934L36.4972 543.598L63.996 543.513L70.9 555.139L77.8174 566.764L107.646 566.672L121.323 543.336L148.809 543.251L158.027 558.756L162.63 566.502L192.459 566.41L206.136 543.074L233.621 542.989L237.344 549.249L247.443 566.24L277.271 566.148L290.949 542.812L318.447 542.727L332.255 565.978L362.084 565.885L375.761 542.55L403.26 542.465L412.465 557.97L417.082 565.715L446.91 565.623L460.574 542.287L488.073 542.202L491.796 548.462L501.894 565.453L531.723 565.361L545.4 542.025L572.885 541.94L579.803 553.566L586.707 565.191L602.746 565.141L602.744 564.483L587.876 564.529L580.959 552.903L574.055 541.278L580.887 529.61L587.732 517.942L602.6 517.896L602.595 516.579L587.728 516.625L580.811 504.999L573.907 493.361L580.739 481.693L587.584 470.025L602.451 469.979L602.447 468.661L587.58 468.707L580.663 457.082L573.759 445.456L580.591 433.789L587.436 422.121L602.303 422.075L602.299 420.757L587.432 420.803L580.515 409.178L573.611 397.552L580.443 385.885L587.288 374.217L602.155 374.171L602.151 372.853L587.284 372.899L580.367 361.261L573.463 349.635L580.294 337.967L587.14 326.299L602.007 326.253L602.003 324.936L587.136 324.982L580.218 313.356L573.314 301.731L580.146 290.063L586.992 278.395L601.859 278.349L601.855 277.032L586.988 277.078L580.07 265.452L573.166 253.827L579.998 242.159L586.844 230.478L601.711 230.432L601.707 229.115L586.84 229.161L579.922 217.535L573.018 205.91L579.85 194.242L586.696 182.574L601.563 182.528L601.559 181.211L586.692 181.256L579.774 169.631L572.87 158.006L579.702 146.338L586.548 134.67L601.415 134.624L601.411 133.306L586.543 133.352L579.626 121.727L572.722 110.102L579.554 98.4206L586.399 86.7526L601.266 86.7067L601.262 85.3892L586.395 85.4352L579.478 73.8098L572.574 62.1844L579.406 50.5165L586.251 38.8486ZM501.439 39.1108L528.924 39.0258L542.745 62.2766L529.068 85.6124L501.583 85.6974L487.761 62.4466L501.439 39.1108ZM332.536 277.864L318.715 254.614L332.392 231.265L359.891 231.18L373.713 254.444L360.035 277.779L332.536 277.864ZM373.861 302.348L360.183 325.683L332.684 325.769L318.863 302.518L332.54 279.182L360.039 279.097L373.861 302.348ZM331.367 278.527L317.703 301.863L290.204 301.948L276.383 278.697L290.06 255.361L317.559 255.276L331.367 278.527ZM289.034 302.61L275.357 325.946L247.872 326.031L238.653 310.526L234.05 302.78L247.728 279.444L275.213 279.359L289.034 302.61ZM275.209 278.042L247.724 278.127L233.902 254.876L247.58 231.527L275.065 231.442L288.886 254.706L275.209 278.042ZM236.442 261.759L246.554 278.789L236.561 295.842L232.877 302.125L205.391 302.21L191.57 278.959L205.247 255.623L232.733 255.538L236.442 261.759ZM204.222 302.872L190.544 326.208L163.059 326.293L159.336 320.033L149.238 303.042L159.231 285.989L162.915 279.706L190.4 279.621L204.222 302.872ZM190.396 278.304L162.911 278.389L159.202 272.155L149.09 255.138L159.083 238.085L162.767 231.789L190.252 231.704L204.074 254.968L190.396 278.304ZM161.741 279.051L148.064 302.387L120.579 302.472L106.757 279.221L120.435 255.885L147.92 255.8L161.741 279.051ZM119.409 303.134L105.732 326.47L78.2329 326.555L71.329 314.93L64.425 303.304L71.2569 291.636L78.0889 279.969L105.588 279.884L119.409 303.134ZM105.584 278.566L78.0848 278.651L71.1809 267.026L64.2769 255.4L71.1088 243.732L77.9408 232.051L105.44 231.966L119.261 255.23L105.584 278.566ZM70.0113 267.688L76.9287 279.313L70.0833 290.981L63.2514 302.649L35.7526 302.734L21.9446 279.483L35.6085 256.148L63.1073 256.063L70.0113 267.688ZM20.771 278.828L-6.72782 278.913L-20.5492 255.663L-6.87189 232.314L20.6269 232.229L34.4484 255.492L20.771 278.828ZM20.7751 280.146L34.5965 303.397L20.9191 326.732L-6.57972 326.817L-20.4011 303.567L-6.72375 280.231L20.7751 280.146ZM20.9232 328.05L34.7446 351.301L21.0672 374.65L-6.43158 374.735L-20.253 351.471L-6.57565 328.135L20.9232 328.05ZM22.0927 327.387L35.7566 304.052L63.2554 303.967L70.1594 315.592L77.0768 327.217L70.2314 338.885L63.3995 350.553L35.9007 350.638L22.0927 327.387ZM71.405 339.541L78.237 327.873L105.736 327.788L119.557 351.038L105.88 374.387L78.3811 374.472L71.4771 362.834L64.5731 351.208L71.405 339.541ZM106.905 327.125L120.583 303.789L148.068 303.705L157.287 319.209L161.889 326.955L148.212 350.291L120.727 350.376L106.905 327.125ZM159.379 333.906L163.063 327.61L190.548 327.525L204.37 350.776L190.693 374.125L163.207 374.21L159.525 368.016L149.386 350.946L159.379 333.906ZM191.718 326.863L205.395 303.527L232.881 303.442L236.603 309.702L246.702 326.693L236.709 343.746L233.025 350.029L205.539 350.114L191.718 326.863ZM247.876 327.348L275.361 327.263L289.183 350.514L275.505 373.863L248.02 373.948L234.198 350.684L247.876 327.348ZM276.531 326.601L290.208 303.265L317.707 303.18L331.515 326.431L317.851 349.767L290.352 349.852L276.531 326.601ZM332.688 327.086L360.187 327.001L374.009 350.252L360.331 373.601L332.833 373.686L319.011 350.422L332.688 327.086ZM361.343 326.339L375.021 303.003L402.52 302.918L411.725 318.423L416.341 326.169L402.664 349.504L375.165 349.589L361.343 326.339ZM375.017 301.685L361.195 278.435L374.873 255.099L402.371 255.014L416.193 278.265L402.515 301.6L375.017 301.685ZM374.869 253.781L361.047 230.531L374.725 207.182L402.223 207.097L411.429 222.601L416.045 230.347L402.367 253.696L374.869 253.781ZM359.887 229.862L332.388 229.947L318.567 206.696L332.244 183.361L359.743 183.276L373.564 206.526L359.887 229.862ZM331.219 230.61L317.555 253.958L290.056 254.044L276.234 230.78L289.912 207.444L317.411 207.359L331.219 230.61ZM275.061 230.124L247.575 230.209L238.357 214.718L233.754 206.959L247.431 183.623L274.917 183.538L288.738 206.789L275.061 230.124ZM236.307 213.894L246.406 230.872L236.412 247.925L232.729 254.221L205.243 254.306L191.422 231.042L205.099 207.706L232.585 207.621L236.307 213.894ZM190.248 230.387L162.763 230.472L159.04 224.212L148.941 207.221L158.948 190.141L162.619 183.885L190.104 183.8L203.926 207.051L190.248 230.387ZM156.991 223.388L161.593 231.134L147.916 254.483L120.431 254.568L106.609 231.317L120.287 207.968L147.772 207.883L156.991 223.388ZM105.436 230.649L77.9367 230.734L71.0327 219.108L64.1288 207.483L70.9607 195.815L77.7927 184.147L105.291 184.062L119.113 207.313L105.436 230.649ZM69.8632 219.771L76.7806 231.396L69.9352 243.077L63.1033 254.745L35.6045 254.83L21.7965 231.566L35.4604 208.23L62.9592 208.145L69.8632 219.771ZM20.6228 230.911L-6.87596 230.996L-20.6974 207.745L-7.01998 184.409L20.4788 184.324L34.3002 207.575L20.6228 230.911ZM-11.7682 225.399L-8.03206 231.658L-11.7294 237.954L-21.7094 255.007L-49.2082 255.092L-63.0297 231.828L-49.3523 208.493L-21.8535 208.408L-11.7682 225.399ZM-21.7053 256.325L-11.5931 273.342L-7.88392 279.576L-11.5813 285.858L-21.5613 302.911L-49.0601 302.996L-62.8815 279.746L-49.2041 256.41L-21.7053 256.325ZM-21.5572 304.229L-11.472 321.22L-7.73582 327.48L-11.4332 333.776L-21.4132 350.815L-48.912 350.901L-62.7334 327.65L-49.056 304.314L-21.5572 304.229ZM-21.4091 352.133L-11.2698 369.203L-7.58768 375.397L-11.2851 381.68L-21.2651 398.733L-48.7639 398.818L-62.5853 375.567L-48.908 352.218L-21.4091 352.133ZM-6.42751 376.052L21.0713 375.967L34.8927 399.218L21.2153 422.554L-6.28348 422.639L-20.1049 399.388L-6.42751 376.052ZM22.2408 375.305L35.9047 351.956L63.4035 351.871L70.3075 363.496L77.225 375.135L70.3795 386.803L63.5476 398.471L36.0488 398.556L22.2408 375.305ZM71.5532 387.458L78.3852 375.79L105.884 375.705L119.705 398.956L106.028 422.291L78.5292 422.376L71.6252 410.751L64.7212 399.126L71.5532 387.458ZM107.054 375.043L120.731 351.694L148.216 351.609L162.038 374.873L148.36 398.208L120.875 398.293L107.054 375.043ZM159.527 381.81L163.211 375.528L190.697 375.443L204.518 398.693L190.841 422.029L163.355 422.114L159.633 415.854L149.534 398.863L159.527 381.81ZM191.866 374.78L205.544 351.431L233.029 351.346L236.711 357.54L246.85 374.61L236.857 391.65L233.173 397.946L205.688 398.031L191.866 374.78ZM248.024 375.265L275.509 375.18L289.331 398.431L275.653 421.767L248.168 421.852L238.949 406.347L234.347 398.601L248.024 375.265ZM276.679 374.518L290.356 351.169L317.855 351.084L331.663 374.348L317.999 397.684L290.5 397.769L276.679 374.518ZM332.837 375.003L360.335 374.918L374.157 398.169L360.479 421.505L332.981 421.59L319.159 398.339L332.837 375.003ZM361.492 374.256L375.169 350.907L402.668 350.822L416.489 374.086L402.812 397.422L375.313 397.507L361.492 374.256ZM413.965 381.024L417.649 374.741L445.148 374.656L458.969 397.907L445.292 421.243L417.793 421.328L414.071 415.068L403.985 398.077L413.965 381.024ZM417.645 373.424L413.977 367.229L403.837 350.16L413.817 333.12L417.501 326.824L445 326.739L458.821 349.99L445.144 373.339L417.645 373.424ZM417.497 325.506L413.774 319.246L403.689 302.255L413.669 285.202L417.353 278.92L444.852 278.835L458.673 302.086L444.996 325.421L417.497 325.506ZM417.349 277.602L413.653 271.369L403.541 254.351L413.521 237.298L417.205 231.002L444.704 230.917L458.525 254.181L444.848 277.517L417.349 277.602ZM417.201 229.685L413.478 223.425L403.393 206.434L413.4 189.355L417.057 183.098L444.556 183.013L458.377 206.264L444.7 229.6L417.201 229.685ZM417.053 181.781L413.33 175.521L403.245 158.53L413.252 141.437L416.909 135.194L444.407 135.109L458.229 158.36L444.552 181.696L417.053 181.781ZM411.28 174.697L415.897 182.443L402.219 205.779L374.72 205.864L360.899 182.613L374.576 159.277L402.075 159.192L411.28 174.697ZM359.739 181.958L332.24 182.043L318.419 158.792L332.096 135.457L359.595 135.372L373.416 158.622L359.739 181.958ZM331.07 182.705L317.407 206.041L289.908 206.126L276.086 182.875L289.764 159.54L317.263 159.455L331.07 182.705ZM274.913 182.22L247.427 182.305L238.209 166.8L233.606 159.055L247.283 135.719L274.769 135.634L288.59 158.885L274.913 182.22ZM236.159 165.977L246.258 182.968L236.251 200.06L232.58 206.303L205.095 206.388L191.274 183.138L204.951 159.802L232.436 159.717L236.159 165.977ZM190.1 182.483L162.615 182.568L158.892 176.308L148.793 159.317L158.8 142.224L162.471 135.981L189.956 135.896L203.777 159.147L190.1 182.483ZM156.843 175.484L161.445 183.23L147.768 206.566L120.282 206.651L106.461 183.4L120.138 160.064L147.624 159.979L156.843 175.484ZM105.287 182.745L77.7886 182.83L70.8846 171.204L63.9807 159.579L70.8126 147.911L77.6446 136.243L105.143 136.158L118.965 159.409L105.287 182.745ZM69.7151 171.867L76.6325 183.492L69.7871 195.16L62.9551 206.828L35.4563 206.913L21.6484 183.662L35.3123 160.326L62.8111 160.241L69.7151 171.867ZM20.4747 183.007L-7.02406 183.092L-20.8455 159.841L-7.16808 136.505L20.3307 136.42L34.1521 159.671L20.4747 183.007ZM-11.9163 177.495L-8.18016 183.754L-11.8507 190.011L-21.8576 207.09L-49.3564 207.175L-63.1778 183.924L-49.5004 160.589L-22.0016 160.504L-11.9163 177.495ZM-64.3379 183.269L-91.8367 183.354L-95.5594 177.094L-105.658 160.103L-95.6379 143.011L-91.9808 136.768L-64.482 136.683L-50.674 159.933L-64.3379 183.269ZM-64.3339 184.587L-50.5259 207.837L-64.1898 231.173L-91.6886 231.258L-95.4113 224.998L-105.51 208.007L-95.4897 190.928L-91.8327 184.672L-64.3339 184.587ZM-64.1858 232.491L-50.3778 255.755L-64.0417 279.091L-91.5405 279.176L-95.2362 272.942L-105.362 255.925L-95.3684 238.872L-91.6846 232.576L-64.1858 232.491ZM-64.0376 280.408L-50.2297 303.659L-63.8936 326.995L-91.3924 327.08L-95.1151 320.82L-105.214 303.829L-95.2203 286.776L-91.5364 280.493L-64.0376 280.408ZM-63.8895 328.312L-50.0816 351.563L-63.7455 374.912L-91.2443 374.997L-94.9264 368.803L-105.066 351.733L-95.0722 334.693L-91.3883 328.397L-63.8895 328.312ZM-63.7414 376.229L-49.9334 399.48L-63.5974 422.816L-91.0962 422.901L-94.8189 416.641L-104.918 399.65L-94.9241 382.597L-91.2402 376.314L-63.7414 376.229ZM-63.5933 424.133L-49.7853 447.384L-63.4493 470.72L-90.9481 470.805L-94.6708 464.545L-104.769 447.554L-94.776 430.501L-91.0921 424.218L-63.5933 424.133ZM-62.4372 423.471L-48.7598 400.135L-21.261 400.05L-11.1757 417.041L-7.43958 423.301L-11.137 429.584L-21.117 446.637L-48.6158 446.722L-62.4372 423.471ZM-6.27941 423.956L21.2194 423.871L35.0408 447.122L21.3634 470.458L-6.13538 470.543L-19.9568 447.292L-6.27941 423.956ZM22.3889 423.209L36.0529 399.873L63.5517 399.788L70.4556 411.413L77.3731 423.039L70.5276 434.707L63.6957 446.375L36.1969 446.46L22.3889 423.209ZM71.7013 435.362L78.5333 423.694L106.032 423.609L119.853 446.86L106.176 470.196L78.6773 470.281L71.7733 458.655L64.8693 447.03L71.7013 435.362ZM107.202 422.947L120.879 399.611L148.364 399.526L157.583 415.031L162.186 422.777L148.508 446.112L121.023 446.197L107.202 422.947ZM159.675 429.714L163.359 423.432L190.845 423.347L204.666 446.598L190.989 469.933L163.503 470.018L159.781 463.759L149.682 446.768L159.675 429.714ZM192.014 422.684L205.692 399.349L233.177 399.264L236.9 405.523L246.998 422.514L237.005 439.567L233.321 445.85L205.836 445.935L192.014 422.684ZM248.172 423.17L275.657 423.085L289.479 446.335L275.801 469.671L248.316 469.756L239.097 454.251L234.495 446.505L248.172 423.17ZM276.827 422.422L290.504 399.086L318.003 399.001L331.811 422.252L318.147 445.588L290.648 445.673L276.827 422.422ZM332.985 422.907L360.484 422.822L374.305 446.073L360.628 469.409L333.129 469.494L319.307 446.243L332.985 422.907ZM361.64 422.16L375.317 398.824L402.816 398.739L412.021 414.244L416.637 421.99L402.96 445.326L375.461 445.411L361.64 422.16ZM414.113 428.928L417.797 422.645L445.296 422.56L459.118 445.811L445.44 469.147L417.941 469.232L414.219 462.972L404.133 445.981L414.113 428.928ZM446.466 421.898L460.13 398.562L487.629 398.477L491.351 404.737L501.45 421.728L491.456 438.781L487.773 445.064L460.274 445.149L446.466 421.898ZM460.126 397.244L446.318 373.994L459.982 350.645L487.48 350.56L491.162 356.754L501.302 373.824L491.308 390.864L487.624 397.159L460.126 397.244ZM459.977 349.327L446.17 326.076L459.833 302.741L487.332 302.656L491.055 308.915L501.154 325.906L491.16 342.96L487.476 349.242L459.977 349.327ZM459.829 301.423L446.021 278.172L459.685 254.837L487.184 254.752L490.88 260.972L501.006 278.002L491.012 295.055L487.328 301.338L459.829 301.423ZM459.681 253.519L445.873 230.255L459.537 206.919L487.036 206.834L490.759 213.107L500.857 230.085L490.864 247.138L487.18 253.434L459.681 253.519ZM459.533 205.602L445.725 182.351L459.389 159.015L486.888 158.93L490.611 165.19L500.709 182.181L490.689 199.274L487.032 205.517L459.533 205.602ZM459.385 157.698L445.577 134.447L459.241 111.111L486.74 111.026L490.463 117.286L500.561 134.277L490.541 151.356L486.884 157.613L459.385 157.698ZM444.403 133.792L416.905 133.877L413.182 127.604L403.097 110.626L413.077 93.573L416.761 87.2771L444.259 87.1921L458.081 110.456L444.403 133.792ZM411.132 126.78L415.749 134.539L402.071 157.875L374.572 157.96L360.751 134.709L374.428 111.373L401.927 111.288L411.132 126.78ZM359.591 134.054L332.092 134.139L318.271 110.888L331.948 87.5393L359.447 87.4543L373.268 110.718L359.591 134.054ZM330.922 134.801L317.258 158.137L289.76 158.222L275.938 134.971L289.616 111.636L317.114 111.551L330.922 134.801ZM274.765 134.316L247.279 134.401L238.061 118.896L233.458 111.15L247.135 87.8015L274.621 87.7165L288.442 110.967L274.765 134.316ZM236.011 118.073L246.11 135.064L236.103 152.143L232.432 158.399L204.947 158.484L191.126 135.234L204.803 111.898L232.288 111.813L236.011 118.073ZM189.952 134.578L162.467 134.663L158.744 128.39L148.645 111.413L158.639 94.3596L162.323 88.0637L189.808 87.9787L203.629 111.243L189.952 134.578ZM156.694 127.567L161.297 135.326L147.62 158.662L120.134 158.747L106.313 135.496L119.99 112.16L147.476 112.075L156.694 127.567ZM105.139 134.841L77.6405 134.926L70.7365 123.3L63.8326 111.675L70.6645 99.9938L77.4964 88.326L104.995 88.2409L118.817 111.505L105.139 134.841ZM69.567 123.963L76.4844 135.588L69.639 147.256L62.807 158.924L35.3082 159.009L21.5003 135.758L35.1642 112.422L62.663 112.337L69.567 123.963ZM20.3266 135.103L-7.17216 135.188L-20.9936 111.937L-7.31622 88.5882L20.1826 88.5031L34.004 111.767L20.3266 135.103ZM-12.0645 129.577L-8.32826 135.85L-11.9989 142.093L-22.0057 159.186L-49.5045 159.271L-63.3259 136.02L-49.6485 112.684L-22.1497 112.599L-12.0645 129.577ZM-64.486 135.365L-91.9848 135.45L-95.7076 129.177L-105.806 112.199L-95.8128 95.1463L-92.1289 88.8504L-64.6301 88.7654L-50.8221 112.029L-64.486 135.365ZM-97.7571 128.353L-93.1544 136.112L-106.832 159.448L-134.317 159.533L-148.139 136.282L-134.461 112.947L-106.976 112.862L-97.7571 128.353ZM-106.828 160.766L-97.6089 176.271L-93.0063 184.017L-106.684 207.352L-134.169 207.437L-147.99 184.187L-134.313 160.851L-106.828 160.766ZM-106.68 208.67L-97.4608 224.175L-92.8582 231.921L-106.536 255.27L-134.021 255.355L-147.842 232.091L-134.165 208.755L-106.68 208.67ZM-106.531 256.587L-92.71 279.838L-106.387 303.174L-133.873 303.259L-147.694 280.008L-134.017 256.672L-106.531 256.587ZM-106.383 304.491L-97.1646 319.996L-92.5619 327.742L-106.239 351.078L-133.725 351.163L-147.546 327.912L-133.869 304.576L-106.383 304.491ZM-106.235 352.395L-92.4138 375.659L-106.091 398.995L-133.577 399.08L-147.398 375.829L-133.721 352.48L-106.235 352.395ZM-106.087 400.312L-96.8683 415.817L-92.2657 423.563L-105.943 446.899L-133.428 446.984L-147.25 423.733L-133.572 400.397L-106.087 400.312ZM-105.939 448.217L-96.7202 463.721L-92.1176 471.467L-105.795 494.803L-133.28 494.888L-147.102 471.637L-133.424 448.302L-105.939 448.217ZM-94.6279 478.418L-90.944 472.122L-63.4452 472.037L-49.6372 495.288L-63.3011 518.637L-90.7999 518.722L-94.482 512.528L-104.621 495.458L-94.6279 478.418ZM-62.2891 471.375L-48.6117 448.039L-21.1129 447.954L-11.0276 464.945L-7.29148 471.205L-10.9888 477.501L-20.9689 494.541L-48.4677 494.626L-62.2891 471.375ZM-6.13131 471.86L21.3675 471.775L35.1889 495.026L21.5116 518.375L-5.98724 518.46L-19.8087 495.196L-6.13131 471.86ZM22.537 471.113L36.201 447.777L63.6998 447.692L70.6037 459.318L77.5212 470.943L70.6757 482.611L63.8438 494.279L36.345 494.364L22.537 471.113ZM71.8494 483.266L78.6814 471.598L106.18 471.513L120.002 494.764L106.324 518.113L78.8254 518.198L71.9214 506.572L65.0174 494.934L71.8494 483.266ZM107.35 470.851L121.027 447.515L148.512 447.43L157.731 462.935L162.334 470.681L148.656 494.017L121.171 494.101L107.35 470.851ZM159.824 477.632L163.507 471.336L190.993 471.251L204.814 494.502L191.137 517.851L163.652 517.936L159.969 511.741L149.83 494.672L159.824 477.632ZM192.162 470.588L205.84 447.253L233.325 447.168L237.048 453.428L247.147 470.418L237.153 487.472L233.469 493.754L205.984 493.839L192.162 470.588ZM248.32 471.074L275.805 470.989L289.627 494.239L275.95 517.588L248.464 517.673L234.643 494.409L248.32 471.074ZM276.975 470.326L290.652 446.99L318.151 446.905L331.959 470.156L318.295 493.492L290.796 493.577L276.975 470.326ZM333.133 470.811L360.632 470.726L374.453 493.977L360.776 517.326L333.277 517.411L319.455 494.147L333.133 470.811ZM361.788 470.064L375.465 446.728L402.964 446.643L412.169 462.148L416.785 469.894L403.108 493.23L375.609 493.315L361.788 470.064ZM414.262 476.845L417.945 470.549L445.444 470.464L459.266 493.715L445.588 517.064L418.09 517.149L414.421 510.955L404.282 493.885L414.262 476.845ZM446.614 469.802L460.278 446.466L487.777 446.381L491.499 452.641L501.598 469.632L491.605 486.685L487.921 492.968L460.422 493.053L446.614 469.802ZM502.772 470.287L530.257 470.202L544.078 493.453L530.401 516.802L502.916 516.887L489.094 493.623L502.772 470.287ZM502.767 468.969L493.549 453.465L488.946 445.719L502.623 422.383L530.109 422.298L543.93 445.549L530.253 468.884L502.767 468.969ZM502.619 421.065L493.401 405.56L488.798 397.815L502.475 374.479L529.961 374.394L543.782 397.645L530.105 420.98L502.619 421.065ZM502.471 373.161L488.65 349.897L502.327 326.562L529.813 326.477L543.634 349.727L529.957 373.076L502.471 373.161ZM502.323 325.244L493.104 309.739L488.502 301.993L502.179 278.657L529.665 278.573L543.486 301.823L529.809 325.159L502.323 325.244ZM502.175 277.34L488.354 254.089L502.031 230.74L529.516 230.655L543.338 253.919L529.66 277.255L502.175 277.34ZM502.027 229.423L492.808 213.931L488.206 206.172L501.883 182.836L529.368 182.751L543.19 206.002L529.512 229.338L502.027 229.423ZM501.879 181.519L492.66 166.014L488.057 158.268L501.735 134.932L529.22 134.847L543.042 158.098L529.364 181.434L501.879 181.519ZM501.731 133.615L492.512 118.11L487.909 110.364L501.587 87.0149L529.072 86.9299L542.893 110.194L529.216 133.53L501.731 133.615ZM486.592 63.1089L490.287 69.3425L500.413 86.3597L490.42 103.413L486.736 109.709L459.237 109.794L445.429 86.5297L459.093 63.194L486.592 63.1089ZM412.929 45.6557L416.612 39.373L444.111 39.288L457.933 62.5388L444.255 85.8746L416.756 85.9596L413.061 79.7392L402.949 62.7088L412.929 45.6557ZM401.779 63.3711L415.6 86.6219L401.923 109.971L374.424 110.056L360.603 86.792L374.28 63.4562L401.779 63.3711ZM331.8 39.6352L359.299 39.5502L373.12 62.801L359.443 86.1368L331.944 86.2218L318.122 62.971L331.8 39.6352ZM316.966 63.6334L330.774 86.8842L317.11 110.233L289.612 110.318L275.79 87.0542L289.467 63.7184L316.966 63.6334ZM246.987 39.8974L274.472 39.8125L288.294 63.0632L274.616 86.399L247.131 86.484L233.31 63.2332L246.987 39.8974ZM232.14 63.8956L235.849 70.1291L245.962 87.1464L235.968 104.199L232.284 110.495L204.799 110.58L190.977 87.3164L204.655 63.9806L232.14 63.8956ZM158.491 46.4424L162.174 40.1596L189.66 40.0747L203.481 63.3254L189.804 86.6612L162.318 86.7462L158.609 80.5259L148.497 63.4954L158.491 46.4424ZM147.328 64.1578L161.149 87.4086L147.472 110.758L119.986 110.843L106.165 87.5786L119.842 64.2428L147.328 64.1578ZM70.5164 52.0898L77.3483 40.4219L104.847 40.3369L118.669 63.5877L104.991 86.9235L77.4924 87.0085L70.5884 75.3831L63.6844 63.7576L70.5164 52.0898ZM62.5149 64.42L69.4188 76.0454L76.3363 87.6708L69.4908 99.3387L62.6589 111.02L35.1601 111.105L21.3521 87.8408L35.0161 64.505L62.5149 64.42ZM-7.46432 40.6841L20.0345 40.5991L33.8559 63.8499L20.1785 87.1857L-7.3203 87.2707L-21.1417 64.0199L-7.46432 40.6841ZM-22.2978 64.6822L-12.1855 81.7127L-8.4764 87.933L-12.1737 94.2289L-22.1538 111.282L-49.6526 111.367L-63.474 88.103L-49.7966 64.7672L-22.2978 64.6822ZM-95.9609 47.229L-92.277 40.9463L-64.7782 40.8613L-50.9702 64.1121L-64.6342 87.4479L-92.133 87.5329L-95.8286 81.3125L-105.954 64.2821L-95.9609 47.229ZM-107.124 64.9445L-93.3025 88.1952L-106.98 111.544L-134.465 111.629L-148.287 88.3652L-134.609 65.0294L-107.124 64.9445ZM-183.863 76.1697L-190.767 64.5443L-183.935 52.8764L-177.09 41.2085L-149.604 41.1235L-135.783 64.3743L-149.46 87.7101L-176.946 87.7951L-183.863 76.1697ZM-183.715 124.087L-190.619 112.462L-183.787 100.78L-176.942 89.1126L-149.456 89.0276L-135.635 112.292L-149.312 135.627L-176.797 135.712L-183.715 124.087ZM-183.567 171.991L-190.471 160.366L-183.639 148.698L-176.793 137.03L-149.308 136.945L-135.487 160.196L-149.164 183.531L-176.649 183.616L-183.567 171.991ZM-183.419 219.895L-190.323 208.27L-183.491 196.602L-176.645 184.934L-149.16 184.849L-135.339 208.1L-149.016 231.435L-176.501 231.52L-183.419 219.895ZM-183.271 267.812L-190.175 256.187L-183.343 244.519L-176.497 232.838L-149.012 232.753L-135.19 256.017L-148.868 279.353L-176.353 279.438L-183.271 267.812ZM-183.122 315.716L-190.026 304.091L-183.195 292.423L-176.349 280.755L-148.864 280.67L-135.042 303.921L-148.72 327.257L-176.205 327.342L-183.122 315.716ZM-182.974 363.62L-189.878 351.995L-183.046 340.327L-176.201 328.659L-148.716 328.574L-134.894 351.825L-148.572 375.174L-176.057 375.259L-182.974 363.62ZM-182.826 411.538L-189.73 399.912L-182.898 388.244L-176.053 376.577L-148.568 376.492L-134.746 399.742L-148.423 423.078L-175.909 423.163L-182.826 411.538ZM-182.678 459.442L-189.582 447.816L-182.75 436.149L-175.905 424.481L-148.419 424.396L-134.598 447.646L-148.275 470.982L-175.761 471.067L-182.678 459.442ZM-182.53 507.359L-189.434 495.72L-182.602 484.053L-175.757 472.385L-148.271 472.3L-134.45 495.551L-148.127 518.899L-175.613 518.984L-182.53 507.359ZM-147.979 566.804L-175.464 566.888L-182.382 555.263L-189.286 543.638L-182.454 531.97L-175.609 520.302L-148.123 520.217L-134.302 543.468L-147.979 566.804ZM-133.132 542.805L-146.954 519.555L-133.276 496.206L-105.791 496.121L-91.9695 519.385L-105.647 542.72L-133.132 542.805ZM-63.153 566.541L-90.6518 566.626L-94.3745 560.366L-104.473 543.376L-94.4798 526.322L-90.7958 520.04L-63.297 519.955L-49.4891 543.206L-63.153 566.541ZM-48.3195 542.543L-62.141 519.292L-48.4636 495.943L-20.9648 495.858L-10.8254 512.928L-7.14334 519.122L-10.8407 525.405L-20.8207 542.458L-48.3195 542.543ZM21.6597 566.279L-5.83914 566.364L-19.6606 543.113L-5.98317 519.778L21.5156 519.692L35.337 542.943L21.6597 566.279ZM36.4931 542.281L22.6852 519.03L36.3491 495.681L63.8479 495.596L70.7519 507.235L77.6693 518.86L70.8239 530.528L63.9919 542.196L36.4931 542.281ZM106.472 566.017L78.9735 566.102L72.0695 554.476L65.1656 542.851L71.9975 531.183L78.8295 519.515L106.328 519.43L120.15 542.681L106.472 566.017ZM121.319 542.019L107.498 518.768L121.175 495.419L148.661 495.334L162.482 518.598L148.805 541.934L121.319 542.019ZM191.285 565.755L163.8 565.84L160.077 559.58L149.978 542.589L159.972 525.536L163.656 519.253L191.141 519.168L204.962 542.419L191.285 565.755ZM206.132 541.756L192.31 518.506L205.988 495.157L233.473 495.072L237.155 501.266L247.295 518.336L237.301 535.376L233.617 541.672L206.132 541.756ZM276.098 565.492L248.612 565.577L239.394 550.073L234.791 542.327L248.468 518.991L275.954 518.906L289.775 542.157L276.098 565.492ZM290.945 541.494L277.123 518.244L290.801 494.895L318.299 494.81L332.107 518.074L318.443 541.409L290.945 541.494ZM360.924 565.23L333.425 565.315L319.604 542.064L333.281 518.729L360.78 518.644L374.601 541.894L360.924 565.23ZM375.757 541.232L361.936 517.981L375.613 494.632L403.112 494.547L416.933 517.811L403.256 541.147L375.757 541.232ZM445.736 564.968L418.238 565.053L414.515 558.793L404.43 541.802L414.41 524.749L418.094 518.466L445.592 518.381L459.414 541.632L445.736 564.968ZM460.57 540.97L446.762 517.719L460.426 494.37L487.925 494.285L491.607 500.479L501.746 517.549L491.753 534.589L488.069 540.885L460.57 540.97ZM530.549 564.706L503.064 564.791L493.845 549.286L489.242 541.54L502.92 518.204L530.405 518.119L544.226 541.37L530.549 564.706ZM579.655 505.661L586.559 517.287L579.727 528.955L572.881 540.623L545.396 540.708L531.575 517.457L545.252 494.108L572.737 494.023L579.655 505.661ZM579.507 457.744L586.411 469.37L579.579 481.037L572.733 492.705L545.248 492.79L531.426 469.54L545.104 446.204L572.589 446.119L579.507 457.744ZM579.359 409.84L586.263 421.466L579.431 433.133L572.585 444.801L545.1 444.886L531.278 421.636L544.956 398.3L572.441 398.215L579.359 409.84ZM579.21 361.923L586.114 373.561L579.282 385.229L572.437 396.897L544.952 396.982L531.13 373.731L544.808 350.382L572.293 350.298L579.21 361.923ZM579.062 314.019L585.966 325.644L579.134 337.312L572.289 348.98L544.804 349.065L530.982 325.814L544.66 302.478L572.145 302.393L579.062 314.019ZM578.914 266.115L585.818 277.74L578.986 289.408L572.141 301.076L544.655 301.161L530.834 277.91L544.511 254.574L571.997 254.489L578.914 266.115ZM578.766 218.197L585.67 229.823L578.838 241.504L571.993 253.172L544.507 253.257L530.686 229.993L544.363 206.657L571.849 206.572L578.766 218.197ZM578.618 170.293L585.522 181.919L578.69 193.587L571.845 205.255L544.359 205.34L530.538 182.089L544.215 158.753L571.701 158.668L578.618 170.293ZM578.47 122.389L585.374 134.015L578.542 145.683L571.696 157.351L544.211 157.436L530.39 134.185L544.067 110.849L571.552 110.764L578.47 122.389ZM578.322 74.4721L585.226 86.0975L578.394 97.7654L571.548 109.446L544.063 109.531L530.242 86.2675L543.919 62.9317L571.404 62.8467L578.322 74.4721Z" fill="url(#paint0_radial_0_1)"/>
<path id="Vector_2" d="M841.25 38.0602L856.117 38.0143L856.115 37.3555L840.076 37.4051L833.244 49.073L826.399 60.7409L798.914 60.8259L785.092 37.5751L755.264 37.6673L745.27 54.7204L741.586 61.0031L714.088 61.0881L700.28 37.8373L670.451 37.9295L656.774 61.2653L629.275 61.3503L615.453 38.0996L585.625 38.1918L571.961 61.5275L544.462 61.6125L530.641 38.3618L500.812 38.454L490.819 55.5071L487.135 61.7898L459.65 61.8747L445.828 38.624L416 38.7162L402.322 62.052L374.837 62.137L361.015 38.8862L331.187 38.9784L324.342 50.6463L317.51 62.3142L290.011 62.3992L276.203 39.1484L246.374 39.2406L242.677 45.5234L232.697 62.5764L205.198 62.6614L191.377 39.4106L161.548 39.5028L147.871 62.8386L120.385 62.9236L106.564 39.6728L76.7355 39.765L69.9035 51.4329L63.0581 63.1008L48.191 63.1468L48.195 64.4643L63.0622 64.4183L69.9796 76.0437L76.8836 87.6691L70.0516 99.337L63.2062 111.018L48.3391 111.064L48.3432 112.382L63.2103 112.336L70.1278 123.961L77.0317 135.586L70.1998 147.254L63.3543 158.922L48.4872 158.968L48.4913 160.286L63.3584 160.24L70.2759 171.865L77.1798 183.49L70.3479 195.158L63.5024 206.826L48.6353 206.872L48.6394 208.19L63.5065 208.144L70.424 219.769L77.3279 231.395L70.496 243.076L63.6506 254.743L48.7834 254.789L48.7875 256.107L63.6547 256.061L70.5721 267.686L77.4761 279.312L70.6441 290.98L63.7987 302.648L48.9315 302.694L48.9356 304.011L63.8027 303.965L70.7202 315.59L77.6242 327.216L70.7922 338.884L63.9468 350.552L49.0796 350.598L49.0837 351.915L63.9508 351.869L70.8683 363.494L77.7723 375.133L70.9403 386.801L64.0949 398.469L49.2278 398.515L49.2319 399.832L64.099 399.786L71.0164 411.412L77.9204 423.037L71.0884 434.705L64.243 446.373L49.3759 446.419L49.38 447.736L64.2471 447.69L71.1645 459.316L78.0685 470.941L71.2365 482.609L64.3911 494.277L49.524 494.323L49.5281 495.64L64.3952 495.595L71.3127 507.233L78.2166 518.858L71.3847 530.526L64.5393 542.194L49.6721 542.24L49.6762 543.558L64.5433 543.512L71.4608 555.137L78.3647 566.763L108.193 566.67L121.871 543.335L149.356 543.25L158.575 558.754L163.177 566.5L193.006 566.408L206.683 543.072L234.182 542.987L244.267 559.978L248.004 566.238L277.832 566.146L291.496 542.81L318.995 542.725L325.899 554.351L332.816 565.976L362.645 565.884L376.322 542.548L403.807 542.463L413.026 557.968L417.629 565.714L447.457 565.621L461.135 542.286L488.62 542.201L492.343 548.46L502.442 565.451L532.27 565.359L545.947 542.023L573.446 541.938L587.254 565.189L617.083 565.097L630.76 541.761L658.259 541.676L667.464 557.181L672.08 564.927L701.909 564.835L715.573 541.499L743.072 541.414L746.794 547.674L756.893 564.665L786.722 564.573L800.399 541.237L827.884 541.152L834.802 552.777L841.706 564.403L857.744 564.353L857.742 563.694L842.875 563.74L835.958 552.115L829.054 540.489L835.886 528.822L842.731 517.154L857.598 517.108L857.594 515.79L842.727 515.836L835.81 504.211L828.906 492.572L835.738 480.904L842.583 469.236L857.45 469.19L857.446 467.873L842.579 467.919L835.662 456.294L828.758 444.668L835.59 433L842.435 421.332L857.302 421.286L857.298 419.969L842.431 420.015L835.513 408.389L828.609 396.764L835.441 385.096L842.287 373.428L857.154 373.382L857.15 372.065L842.283 372.111L835.365 360.472L828.461 348.847L835.293 337.179L842.139 325.511L857.006 325.465L857.002 324.148L842.135 324.194L835.217 312.568L828.313 300.943L835.145 289.275L841.991 277.607L856.858 277.561L856.854 276.244L841.987 276.289L835.069 264.664L828.165 253.039L834.997 241.371L841.843 229.69L856.71 229.644L856.706 228.326L841.838 228.372L834.921 216.747L828.017 205.121L834.849 193.454L841.694 181.786L856.561 181.74L856.557 180.422L841.69 180.468L834.773 168.843L827.869 157.217L834.701 145.549L841.546 133.882L856.413 133.836L856.409 132.518L841.542 132.564L834.625 120.939L827.721 109.313L834.553 97.6322L841.398 85.9643L856.265 85.9184L856.261 84.6009L841.394 84.6468L834.477 73.0215L827.573 61.396L834.405 49.7282L841.25 38.0602ZM756.437 38.3224L783.923 38.2375L797.744 61.4883L784.067 84.8241L756.581 84.909L742.76 61.6582L756.437 38.3224ZM587.535 277.076L573.714 253.825L587.391 230.476L614.89 230.391L628.711 253.655L615.034 276.991L587.535 277.076ZM628.859 301.559L615.182 324.895L587.683 324.98L573.862 301.729L587.539 278.394L615.038 278.309L628.859 301.559ZM586.366 277.738L572.702 301.074L545.203 301.159L531.381 277.908L545.059 254.573L572.558 254.488L586.366 277.738ZM544.033 301.822L530.356 325.157L502.87 325.242L493.652 309.737L489.049 301.992L502.726 278.656L530.212 278.571L544.033 301.822ZM530.208 277.253L502.722 277.338L488.901 254.088L502.578 230.739L530.064 230.654L543.885 253.918L530.208 277.253ZM491.441 260.97L501.553 278.001L491.559 295.054L487.875 301.336L460.39 301.421L446.569 278.171L460.246 254.835L487.731 254.75L491.441 260.97ZM459.221 302.084L445.543 325.42L418.058 325.505L414.335 319.245L404.236 302.254L414.23 285.201L417.914 278.918L445.399 278.833L459.221 302.084ZM445.395 277.516L417.91 277.601L414.201 271.367L404.088 254.35L414.082 237.297L417.766 231.001L445.251 230.916L459.072 254.18L445.395 277.516ZM416.74 278.263L403.063 301.599L375.577 301.684L361.756 278.433L375.433 255.097L402.919 255.012L416.74 278.263ZM374.408 302.346L360.731 325.682L333.232 325.767L326.328 314.141L319.424 302.516L326.256 290.848L333.088 279.18L360.586 279.095L374.408 302.346ZM360.582 277.778L333.084 277.863L326.18 266.237L319.276 254.612L326.108 242.944L332.94 231.263L360.438 231.178L374.26 254.442L360.582 277.778ZM325.01 266.9L331.928 278.525L325.082 290.193L318.25 301.861L290.751 301.946L276.943 278.695L290.607 255.359L318.106 255.274L325.01 266.9ZM275.77 278.04L248.271 278.125L234.45 254.874L248.127 231.525L275.626 231.44L289.447 254.704L275.77 278.04ZM275.774 279.357L289.595 302.608L275.918 325.944L248.419 326.029L234.598 302.778L248.275 279.442L275.774 279.357ZM275.922 327.262L289.743 350.512L276.066 373.861L248.567 373.946L234.746 350.682L248.423 327.347L275.922 327.262ZM277.091 326.599L290.755 303.263L318.254 303.178L325.158 314.804L332.076 326.429L325.23 338.097L318.398 349.765L290.899 349.85L277.091 326.599ZM326.404 338.752L333.236 327.084L360.735 326.999L374.556 350.25L360.879 373.599L333.38 373.684L326.476 362.045L319.572 350.42L326.404 338.752ZM361.904 326.337L375.582 303.001L403.067 302.916L412.286 318.421L416.888 326.167L403.211 349.503L375.726 349.588L361.904 326.337ZM414.378 333.118L418.062 326.822L445.547 326.737L459.369 349.988L445.691 373.337L418.206 373.422L414.524 367.228L404.385 350.158L414.378 333.118ZM446.717 326.075L460.394 302.739L487.88 302.654L491.602 308.914L501.701 325.905L491.708 342.958L488.024 349.241L460.538 349.326L446.717 326.075ZM502.875 326.56L530.36 326.475L544.181 349.726L530.504 373.075L503.019 373.16L489.197 349.896L502.875 326.56ZM531.529 325.813L545.207 302.477L572.706 302.392L586.514 325.643L572.85 348.978L545.351 349.063L531.529 325.813ZM587.687 326.298L615.186 326.213L629.008 349.463L615.33 372.812L587.831 372.897L574.01 349.633L587.687 326.298ZM616.342 325.55L630.02 302.215L657.518 302.13L666.724 317.634L671.34 325.38L657.662 348.716L630.164 348.801L616.342 325.55ZM630.015 300.897L616.194 277.646L629.871 254.31L657.37 254.225L671.192 277.476L657.514 300.812L630.015 300.897ZM629.867 252.993L616.046 229.742L629.723 206.393L657.222 206.308L666.427 221.813L671.044 229.559L657.366 252.908L629.867 252.993ZM614.886 229.074L587.387 229.159L573.566 205.908L587.243 182.572L614.742 182.487L628.563 205.738L614.886 229.074ZM586.217 229.821L572.553 253.17L545.055 253.255L531.233 229.991L544.911 206.655L572.409 206.57L586.217 229.821ZM530.06 229.336L502.574 229.421L493.356 213.929L488.753 206.17L502.43 182.834L529.916 182.75L543.737 206L530.06 229.336ZM491.306 213.106L501.405 230.083L491.411 247.137L487.727 253.432L460.242 253.517L446.421 230.253L460.098 206.918L487.583 206.833L491.306 213.106ZM445.247 229.598L417.762 229.683L414.039 223.423L403.94 206.432L413.947 189.353L417.618 183.097L445.103 183.012L458.924 206.263L445.247 229.598ZM411.989 222.6L416.592 230.346L402.915 253.695L375.429 253.78L361.608 230.529L375.285 207.18L402.771 207.095L411.989 222.6ZM360.434 229.861L332.935 229.946L326.031 218.32L319.128 206.695L325.959 195.027L332.791 183.359L360.29 183.274L374.112 206.525L360.434 229.861ZM324.862 218.982L331.779 230.608L324.934 242.289L318.102 253.957L290.603 254.042L276.795 230.778L290.459 207.442L317.958 207.357L324.862 218.982ZM275.622 230.123L248.123 230.208L234.301 206.957L247.979 183.621L275.478 183.536L289.299 206.787L275.622 230.123ZM243.231 224.61L246.967 230.87L243.269 237.166L233.289 254.219L205.791 254.304L191.969 231.04L205.646 207.704L233.145 207.619L243.231 224.61ZM233.293 255.537L243.406 272.554L247.115 278.787L243.417 285.07L233.437 302.123L205.939 302.208L192.117 278.957L205.795 255.622L233.293 255.537ZM233.442 303.441L243.527 320.432L247.263 326.691L243.566 332.987L233.586 350.027L206.087 350.112L192.265 326.861L205.943 303.526L233.442 303.441ZM233.59 351.345L243.729 368.415L247.411 374.609L243.714 380.891L233.734 397.944L206.235 398.029L192.413 374.779L206.091 351.43L233.59 351.345ZM248.571 375.264L276.07 375.179L289.891 398.43L276.214 421.765L248.715 421.85L234.894 398.6L248.571 375.264ZM277.24 374.516L290.904 351.167L318.402 351.082L325.306 362.708L332.224 374.346L325.378 386.014L318.546 397.682L291.048 397.767L277.24 374.516ZM326.552 386.669L333.384 375.002L360.883 374.917L374.704 398.167L361.027 421.503L333.528 421.588L326.624 409.963L319.72 398.337L326.552 386.669ZM362.052 374.254L375.73 350.905L403.215 350.82L417.036 374.084L403.359 397.42L375.874 397.505L362.052 374.254ZM414.526 381.022L418.21 374.739L445.695 374.654L459.517 397.905L445.839 421.241L418.354 421.326L414.631 415.066L404.533 398.075L414.526 381.022ZM446.865 373.992L460.542 350.643L488.028 350.558L491.71 356.752L501.849 373.822L491.856 390.862L488.172 397.158L460.686 397.243L446.865 373.992ZM503.023 374.477L530.508 374.392L544.329 397.643L530.652 420.979L503.167 421.064L493.948 405.559L489.345 397.813L503.023 374.477ZM531.678 373.73L545.355 350.381L572.854 350.296L586.662 373.56L572.998 396.896L545.499 396.981L531.678 373.73ZM587.835 374.215L615.334 374.13L629.156 397.381L615.478 420.716L587.979 420.802L574.158 397.551L587.835 374.215ZM616.49 373.468L630.168 350.119L657.666 350.034L671.488 373.298L657.811 396.633L630.312 396.718L616.49 373.468ZM668.964 380.235L672.648 373.953L700.147 373.868L713.968 397.118L700.291 420.454L672.792 420.539L669.069 414.279L658.984 397.288L668.964 380.235ZM672.644 372.635L668.975 366.441L658.836 349.371L668.816 332.331L672.5 326.035L699.999 325.95L713.82 349.201L700.143 372.55L672.644 372.635ZM672.496 324.718L668.773 318.458L658.688 301.467L668.668 284.414L672.352 278.131L699.851 278.046L713.672 301.297L699.995 324.633L672.496 324.718ZM672.348 276.814L668.652 270.58L658.54 253.563L668.52 236.51L672.204 230.214L699.702 230.129L713.524 253.393L699.847 276.729L672.348 276.814ZM672.2 228.897L668.477 222.637L658.392 205.646L668.399 188.566L672.056 182.31L699.554 182.225L713.376 205.476L699.698 228.812L672.2 228.897ZM672.052 180.993L668.329 174.733L658.244 157.742L668.25 140.649L671.907 134.406L699.406 134.321L713.228 157.572L699.55 180.908L672.052 180.993ZM666.279 173.909L670.895 181.655L657.218 204.991L629.719 205.076L615.898 181.825L629.575 158.489L657.074 158.404L666.279 173.909ZM614.738 181.17L587.239 181.255L573.417 158.004L587.095 134.668L614.594 134.583L628.415 157.834L614.738 181.17ZM586.069 181.917L572.405 205.253L544.907 205.338L531.085 182.087L544.763 158.751L572.261 158.666L586.069 181.917ZM529.912 181.432L502.426 181.517L493.207 166.012L488.605 158.266L502.282 134.93L529.767 134.845L543.589 158.096L529.912 181.432ZM491.158 165.188L501.257 182.179L491.25 199.272L487.579 205.515L460.094 205.6L446.272 182.349L459.95 159.014L487.435 158.929L491.158 165.188ZM445.099 181.694L417.613 181.779L413.891 175.519L403.792 158.528L413.799 141.436L417.469 135.193L444.955 135.108L458.776 158.358L445.099 181.694ZM411.841 174.696L416.444 182.442L402.767 205.777L375.281 205.862L361.46 182.612L375.137 159.276L402.623 159.191L411.841 174.696ZM360.286 181.956L332.787 182.041L325.883 170.416L318.979 158.791L325.811 147.123L332.643 135.455L360.142 135.37L373.964 158.621L360.286 181.956ZM324.714 171.078L331.631 182.704L324.786 194.372L317.954 206.04L290.455 206.125L276.647 182.874L290.311 159.538L317.81 159.453L324.714 171.078ZM275.474 182.219L247.975 182.304L234.153 159.053L247.831 135.717L275.329 135.632L289.151 158.883L275.474 182.219ZM243.082 176.706L246.819 182.966L243.148 189.222L233.141 206.302L205.642 206.387L191.821 183.136L205.498 159.8L232.997 159.715L243.082 176.706ZM190.661 182.481L163.162 182.566L159.439 176.306L149.341 159.315L159.361 142.222L163.018 135.979L190.517 135.894L204.325 159.145L190.661 182.481ZM190.665 183.798L204.473 207.049L190.809 230.385L163.31 230.47L159.587 224.21L149.489 207.219L159.509 190.14L163.166 183.883L190.665 183.798ZM190.813 231.702L204.621 254.966L190.957 278.302L163.458 278.387L159.763 272.154L149.637 255.136L159.63 238.083L163.314 231.787L190.813 231.702ZM190.961 279.62L204.769 302.87L191.105 326.206L163.606 326.291L159.884 320.031L149.785 303.04L159.778 285.987L163.462 279.705L190.961 279.62ZM191.109 327.524L204.917 350.775L191.253 374.123L163.755 374.208L160.072 368.014L149.933 350.945L159.927 333.905L163.61 327.609L191.109 327.524ZM191.257 375.441L205.065 398.692L191.401 422.028L163.903 422.113L160.18 415.853L150.081 398.862L160.075 381.809L163.759 375.526L191.257 375.441ZM191.405 423.345L205.213 446.596L191.55 469.932L164.051 470.017L160.328 463.757L150.229 446.766L160.223 429.713L163.907 423.43L191.405 423.345ZM192.562 422.683L206.239 399.347L233.738 399.262L243.823 416.253L247.559 422.513L243.862 428.795L233.882 445.848L206.383 445.933L192.562 422.683ZM248.719 423.168L276.218 423.083L290.04 446.334L276.362 469.669L248.863 469.754L235.042 446.504L248.719 423.168ZM277.388 422.42L291.052 399.085L318.55 399L325.454 410.625L332.372 422.25L325.526 433.918L318.694 445.586L291.196 445.671L277.388 422.42ZM326.7 434.574L333.532 422.906L361.031 422.821L374.852 446.071L361.175 469.407L333.676 469.492L326.772 457.867L319.868 446.241L326.7 434.574ZM362.2 422.158L375.878 398.822L403.363 398.738L412.582 414.242L417.185 421.988L403.507 445.324L376.022 445.409L362.2 422.158ZM414.674 428.926L418.358 422.643L445.843 422.558L459.665 445.809L445.988 469.145L418.502 469.23L414.779 462.97L404.681 445.979L414.674 428.926ZM447.013 421.896L460.69 398.56L488.176 398.475L491.898 404.735L501.997 421.726L492.004 438.779L488.32 445.062L460.834 445.147L447.013 421.896ZM503.171 422.381L530.656 422.296L544.478 445.547L530.8 468.883L503.315 468.968L494.096 453.463L489.493 445.717L503.171 422.381ZM531.826 421.634L545.503 398.298L573.002 398.213L586.81 421.464L573.146 444.8L545.647 444.885L531.826 421.634ZM587.984 422.119L615.482 422.034L629.304 445.285L615.626 468.621L588.128 468.706L574.306 445.455L587.984 422.119ZM616.638 421.372L630.316 398.036L657.815 397.951L667.02 413.456L671.636 421.202L657.959 444.537L630.46 444.622L616.638 421.372ZM669.112 428.14L672.796 421.857L700.295 421.772L714.116 445.023L700.439 468.358L672.94 468.443L669.217 462.184L659.132 445.193L669.112 428.14ZM701.465 421.109L715.128 397.774L742.627 397.689L746.35 403.948L756.449 420.939L746.455 437.992L742.771 444.275L715.272 444.36L701.465 421.109ZM715.124 396.456L701.316 373.205L714.98 349.856L742.479 349.771L746.161 355.965L756.301 373.035L746.307 390.075L742.623 396.371L715.124 396.456ZM714.976 348.539L701.168 325.288L714.832 301.952L742.331 301.867L746.054 308.127L756.152 325.118L746.159 342.171L742.475 348.454L714.976 348.539ZM714.828 300.635L701.02 277.384L714.684 254.048L742.183 253.963L745.879 260.184L756.004 277.214L746.011 294.267L742.327 300.55L714.828 300.635ZM714.68 252.731L700.872 229.467L714.536 206.131L742.035 206.046L745.758 212.319L755.856 229.297L745.863 246.35L742.179 252.646L714.68 252.731ZM714.532 204.814L700.724 181.563L714.388 158.227L741.887 158.142L745.609 164.402L755.708 181.393L745.688 198.485L742.031 204.729L714.532 204.814ZM714.384 156.909L700.576 133.659L714.24 110.323L741.739 110.238L745.461 116.498L755.56 133.489L745.54 150.568L741.883 156.824L714.384 156.909ZM699.402 133.004L671.903 133.089L668.181 126.816L658.095 109.838L668.075 92.7847L671.759 86.4888L699.258 86.4038L713.08 109.668L699.402 133.004ZM666.131 125.992L670.747 133.751L657.07 157.087L629.571 157.172L615.75 133.921L629.427 110.585L656.926 110.5L666.131 125.992ZM614.59 133.266L587.091 133.351L573.269 110.1L586.947 86.751L614.445 86.666L628.267 109.93L614.59 133.266ZM585.921 134.013L572.257 157.349L544.758 157.434L530.937 134.183L544.614 110.847L572.113 110.762L585.921 134.013ZM529.763 133.528L502.278 133.613L493.059 118.108L488.457 110.362L502.134 87.0132L529.619 86.9282L543.441 110.179L529.763 133.528ZM491.01 117.284L501.109 134.275L491.102 151.355L487.431 157.611L459.946 157.696L446.124 134.445L459.802 111.109L487.287 111.025L491.01 117.284ZM444.951 133.79L417.465 133.875L413.743 127.602L403.644 110.624L413.637 93.5713L417.321 87.2754L444.807 87.1904L458.628 110.454L444.951 133.79ZM411.693 126.778L416.296 134.538L402.618 157.873L375.133 157.958L361.312 134.707L374.989 111.372L402.474 111.287L411.693 126.778ZM360.138 134.052L332.639 134.137L325.735 122.512L318.831 110.887L325.663 99.2055L332.495 87.5376L359.994 87.4526L373.815 110.717L360.138 134.052ZM324.566 123.174L331.483 134.8L324.638 146.468L317.806 158.136L290.307 158.221L276.499 134.97L290.163 111.634L317.662 111.549L324.566 123.174ZM275.325 134.315L247.827 134.4L234.005 111.149L247.683 87.7998L275.181 87.7148L289.003 110.979L275.325 134.315ZM242.934 128.789L246.671 135.062L243 141.305L232.993 158.398L205.494 158.483L191.673 135.232L205.35 111.896L232.849 111.811L242.934 128.789ZM190.513 134.577L163.014 134.662L159.291 128.389L149.193 111.411L159.186 94.3579L162.87 88.062L190.369 87.977L204.177 111.241L190.513 134.577ZM157.242 127.565L161.844 135.324L148.167 158.66L120.682 158.745L106.86 135.494L120.538 112.158L148.023 112.073L157.242 127.565ZM148.171 159.977L157.39 175.482L161.992 183.228L148.315 206.564L120.83 206.649L107.008 183.398L120.686 160.062L148.171 159.977ZM148.319 207.882L157.538 223.386L162.141 231.132L148.463 254.481L120.978 254.566L107.156 231.302L120.834 207.966L148.319 207.882ZM148.467 255.799L162.289 279.05L148.611 302.385L121.126 302.47L107.305 279.22L120.982 255.884L148.467 255.799ZM148.615 303.703L157.834 319.208L162.437 326.954L148.759 350.289L121.274 350.374L107.453 327.124L121.13 303.788L148.615 303.703ZM148.764 351.607L162.585 374.871L148.908 398.207L121.422 398.292L107.601 375.041L121.278 351.692L148.764 351.607ZM148.912 399.524L158.13 415.029L162.733 422.775L149.056 446.111L121.57 446.196L107.749 422.945L121.426 399.609L148.912 399.524ZM149.06 447.428L158.279 462.933L162.881 470.679L149.204 494.015L121.718 494.1L107.897 470.849L121.574 447.513L149.06 447.428ZM160.371 477.63L164.055 471.334L191.554 471.249L205.362 494.5L191.698 517.849L164.199 517.934L160.517 511.74L150.377 494.67L160.371 477.63ZM192.71 470.587L206.387 447.251L233.886 447.166L243.971 464.157L247.707 470.417L244.01 476.713L234.03 493.753L206.531 493.838L192.71 470.587ZM248.867 471.072L276.366 470.987L290.188 494.238L276.51 517.587L249.012 517.672L235.19 494.408L248.867 471.072ZM277.536 470.325L291.2 446.989L318.699 446.904L325.603 458.529L332.52 470.155L325.675 481.822L318.843 493.49L291.344 493.575L277.536 470.325ZM326.848 482.478L333.68 470.81L361.179 470.725L375 493.976L361.323 517.324L333.824 517.41L326.92 505.784L320.016 494.146L326.848 482.478ZM362.348 470.062L376.026 446.727L403.511 446.642L412.73 462.146L417.333 469.892L403.655 493.228L376.17 493.313L362.348 470.062ZM414.822 476.843L418.506 470.547L445.992 470.462L459.813 493.713L446.136 517.062L418.65 517.147L414.968 510.953L404.829 493.883L414.822 476.843ZM447.161 469.8L460.839 446.464L488.324 446.379L492.047 452.639L502.145 469.63L492.152 486.683L488.468 492.966L460.983 493.051L447.161 469.8ZM503.319 470.285L530.804 470.2L544.626 493.451L530.948 516.8L503.463 516.885L489.642 493.621L503.319 470.285ZM531.974 469.538L545.651 446.202L573.15 446.117L586.958 469.368L573.294 492.704L545.795 492.789L531.974 469.538ZM588.132 470.023L615.63 469.938L629.452 493.189L615.774 516.538L588.276 516.623L574.454 493.359L588.132 470.023ZM616.786 469.276L630.464 445.94L657.963 445.855L667.168 461.36L671.784 469.106L658.107 492.442L630.608 492.527L616.786 469.276ZM669.26 476.057L672.944 469.761L700.443 469.676L714.264 492.927L700.587 516.276L673.088 516.361L669.42 510.166L659.28 493.097L669.26 476.057ZM701.613 469.013L715.277 445.678L742.775 445.593L746.498 451.853L756.597 468.843L746.603 485.897L742.919 492.179L715.421 492.264L701.613 469.013ZM757.77 469.499L785.256 469.414L799.077 492.664L785.4 516.013L757.914 516.098L744.093 492.834L757.77 469.499ZM757.766 468.181L748.548 452.676L743.945 444.93L757.622 421.595L785.108 421.51L798.929 444.76L785.252 468.096L757.766 468.181ZM757.618 420.277L748.399 404.772L743.797 397.026L757.474 373.69L784.96 373.606L798.781 396.856L785.104 420.192L757.618 420.277ZM757.47 372.373L743.649 349.109L757.326 325.773L784.811 325.688L798.633 348.939L784.955 372.288L757.47 372.373ZM757.322 324.456L748.103 308.951L743.501 301.205L757.178 277.869L784.663 277.784L798.485 301.035L784.807 324.371L757.322 324.456ZM757.174 276.552L743.352 253.301L757.03 229.952L784.515 229.867L798.337 253.131L784.659 276.467L757.174 276.552ZM757.026 228.634L747.807 213.143L743.204 205.384L756.882 182.048L784.367 181.963L798.188 205.214L784.511 228.549L757.026 228.634ZM756.878 180.73L747.659 165.225L743.056 157.48L756.734 134.144L784.219 134.059L798.04 157.31L784.363 180.645L756.878 180.73ZM756.729 132.826L747.511 117.321L742.908 109.575L756.585 86.2265L784.071 86.1415L797.892 109.406L784.215 132.741L756.729 132.826ZM741.59 62.3206L745.286 68.5542L755.412 85.5714L745.418 102.624L741.735 108.92L714.236 109.005L700.428 85.7414L714.092 62.4056L741.59 62.3206ZM667.927 44.8674L671.611 38.5847L699.11 38.4997L712.931 61.7505L699.254 85.0863L671.755 85.1713L668.06 78.9509L657.947 61.9205L667.927 44.8674ZM656.778 62.5828L670.599 85.8336L656.922 109.183L629.423 109.268L615.602 86.0036L629.279 62.6678L656.778 62.5828ZM586.799 38.8469L614.297 38.7619L628.119 62.0127L614.441 85.3485L586.943 85.4335L573.121 62.1827L586.799 38.8469ZM571.965 62.845L585.773 86.0958L572.109 109.445L544.61 109.53L530.789 86.2658L544.466 62.93L571.965 62.845ZM501.986 39.1091L529.471 39.0241L543.293 62.2749L529.615 85.6107L502.13 85.6957L488.309 62.4449L501.986 39.1091ZM487.139 63.1073L490.848 69.3408L500.96 86.3581L490.967 103.411L487.283 109.707L459.798 109.792L445.976 86.528L459.654 63.1922L487.139 63.1073ZM413.489 45.654L417.173 39.3713L444.659 39.2863L458.48 62.5371L444.803 85.8729L417.317 85.9579L413.608 79.7375L403.496 62.7071L413.489 45.654ZM402.326 63.3695L416.148 86.6203L402.47 109.969L374.985 110.054L361.164 86.7902L374.841 63.4544L402.326 63.3695ZM325.515 51.3014L332.347 39.6336L359.846 39.5485L373.667 62.7993L359.99 86.1351L332.491 86.2201L325.587 74.5947L318.683 62.9693L325.515 51.3014ZM317.514 63.6317L324.418 75.2571L331.335 86.8825L324.49 98.5504L317.658 110.231L290.159 110.316L276.351 87.0524L290.015 63.7167L317.514 63.6317ZM247.534 39.8958L275.033 39.8107L288.855 63.0615L275.177 86.3973L247.678 86.4823L233.857 63.2316L247.534 39.8958ZM232.701 63.8939L242.813 80.9243L246.522 87.1447L242.825 93.4406L232.845 110.494L205.346 110.579L191.525 87.3147L205.202 63.9789L232.701 63.8939ZM159.038 46.4407L162.722 40.158L190.221 40.073L204.029 63.3238L190.365 86.6595L162.866 86.7445L159.17 80.5242L149.044 63.4938L159.038 46.4407ZM147.875 64.1561L161.696 87.4069L148.019 110.756L120.534 110.841L106.712 87.5769L120.39 64.2411L147.875 64.1561ZM71.1357 75.3814L64.2317 63.756L71.0637 52.0881L77.9091 40.4202L105.394 40.3352L119.216 63.586L105.538 86.9218L78.0531 87.0068L71.1357 75.3814ZM71.2838 123.299L64.3799 111.673L71.2118 99.9922L78.0572 88.3242L105.543 88.2393L119.364 111.503L105.687 134.839L78.2013 134.924L71.2838 123.299ZM71.4319 171.203L64.528 159.577L71.3599 147.909L78.2054 136.241L105.691 136.157L119.512 159.407L105.835 182.743L78.3494 182.828L71.4319 171.203ZM71.58 219.107L64.6761 207.481L71.508 195.813L78.3535 184.146L105.839 184.061L119.66 207.311L105.983 230.647L78.4975 230.732L71.58 219.107ZM71.7282 267.024L64.8242 255.399L71.6562 243.731L78.5016 232.05L105.987 231.965L119.808 255.229L106.131 278.564L78.6456 278.649L71.7282 267.024ZM71.8763 314.928L64.9723 303.303L71.8043 291.635L78.6497 279.967L106.135 279.882L119.956 303.133L106.279 326.468L78.7937 326.553L71.8763 314.928ZM72.0244 362.832L65.1204 351.207L71.9524 339.539L78.7978 327.871L106.283 327.786L120.105 351.037L106.427 374.386L78.9419 374.471L72.0244 362.832ZM72.1725 410.749L65.2685 399.124L72.1005 387.456L78.9459 375.788L106.431 375.703L120.253 398.954L106.575 422.29L79.09 422.375L72.1725 410.749ZM72.3206 458.653L65.4166 447.028L72.2486 435.36L79.094 423.692L106.579 423.607L120.401 446.858L106.723 470.194L79.2381 470.279L72.3206 458.653ZM72.4688 506.571L65.5647 494.932L72.3967 483.264L79.2421 471.596L106.727 471.511L120.549 494.762L106.872 518.111L79.3862 518.196L72.4688 506.571ZM107.02 566.015L79.5343 566.1L72.6169 554.475L65.7129 542.849L72.5448 531.182L79.3903 519.514L106.876 519.429L120.697 542.679L107.02 566.015ZM121.867 542.017L108.045 518.766L121.723 495.417L149.208 495.332L163.029 518.596L149.352 541.932L121.867 542.017ZM191.846 565.753L164.347 565.838L160.624 559.578L150.526 542.587L160.519 525.534L164.203 519.251L191.702 519.166L205.51 542.417L191.846 565.753ZM206.679 541.755L192.858 518.504L206.535 495.155L234.034 495.07L244.173 512.14L247.855 518.334L244.158 524.617L234.178 541.67L206.679 541.755ZM276.658 565.491L249.16 565.576L235.338 542.325L249.016 518.989L276.514 518.904L290.336 542.155L276.658 565.491ZM291.492 541.493L277.684 518.242L291.348 494.893L318.847 494.808L325.751 506.446L332.668 518.072L325.823 529.74L318.991 541.408L291.492 541.493ZM361.471 565.229L333.972 565.314L327.068 553.688L320.164 542.063L326.996 530.395L333.828 518.727L361.327 518.642L375.148 541.893L361.471 565.229ZM376.318 541.23L362.497 517.98L376.174 494.631L403.659 494.546L417.481 517.81L403.803 541.145L376.318 541.23ZM446.284 564.966L418.798 565.051L415.076 558.791L404.977 541.801L414.97 524.747L418.654 518.465L446.14 518.38L459.961 541.631L446.284 564.966ZM461.131 540.968L447.309 517.717L460.987 494.368L488.472 494.283L492.154 500.478L502.293 517.547L492.3 534.587L488.616 540.883L461.131 540.968ZM531.096 564.704L503.611 564.789L494.392 549.284L489.79 541.538L503.467 518.203L530.952 518.118L544.774 541.368L531.096 564.704ZM545.943 540.706L532.122 517.455L545.799 494.106L573.298 494.021L587.106 517.285L573.442 540.621L545.943 540.706ZM615.923 564.442L588.424 564.527L574.602 541.276L588.28 517.94L615.779 517.855L629.6 541.106L615.923 564.442ZM630.756 540.444L616.935 517.193L630.612 493.844L658.111 493.759L671.932 517.023L658.255 540.359L630.756 540.444ZM700.735 564.18L673.236 564.265L669.514 558.005L659.428 541.014L669.408 523.961L673.092 517.678L700.591 517.593L714.413 540.844L700.735 564.18ZM715.569 540.182L701.761 516.931L715.425 493.582L742.923 493.497L746.606 499.691L756.745 516.761L746.751 533.801L743.068 540.097L715.569 540.182ZM785.548 563.917L758.062 564.002L748.844 548.498L744.241 540.752L757.918 517.416L785.404 517.331L799.225 540.582L785.548 563.917ZM834.654 504.873L841.558 516.499L834.726 528.166L827.88 539.834L800.395 539.919L786.573 516.669L800.251 493.32L827.736 493.235L834.654 504.873ZM834.505 456.956L841.409 468.581L834.577 480.249L827.732 491.917L800.247 492.002L786.425 468.751L800.103 445.415L827.588 445.331L834.505 456.956ZM834.357 409.052L841.261 420.677L834.429 432.345L827.584 444.013L800.099 444.098L786.277 420.847L799.955 397.511L827.44 397.426L834.357 409.052ZM834.209 361.135L841.113 372.773L834.281 384.441L827.436 396.109L799.95 396.194L786.129 372.943L799.806 349.594L827.292 349.509L834.209 361.135ZM834.061 313.23L840.965 324.856L834.133 336.524L827.288 348.192L799.802 348.277L785.981 325.026L799.658 301.69L827.144 301.605L834.061 313.23ZM833.913 265.326L840.817 276.952L833.985 288.62L827.14 300.288L799.654 300.373L785.833 277.122L799.51 253.786L826.996 253.701L833.913 265.326ZM833.765 217.409L840.669 229.035L833.837 240.716L826.991 252.384L799.506 252.469L785.685 229.205L799.362 205.869L826.847 205.784L833.765 217.409ZM833.617 169.505L840.521 181.131L833.689 192.798L826.843 204.466L799.358 204.551L785.537 181.3L799.214 157.965L826.699 157.88L833.617 169.505ZM833.469 121.601L840.373 133.226L833.541 144.894L826.695 156.562L799.21 156.647L785.388 133.396L799.066 110.061L826.551 109.976L833.469 121.601ZM833.321 73.6838L840.225 85.3092L833.393 96.9771L826.547 108.658L799.062 108.743L785.24 85.4792L798.918 62.1434L826.403 62.0584L833.321 73.6838Z" fill="url(#paint1_radial_0_1)"/>
</g>
</g>
</g>
<g id="Navigation" filter="url(#filter0_d_0_1)">
<rect width="1920" height="56" transform="translate(-300 -4)" fill="#FFAD61"/>
<g id="Logo" clip-path="url(#clip1_0_1)">
<g id="Group">
<g id="Group_2">
<path id="Vector_3" d="M73.6437 43.9451C73.0565 43.7859 72.4778 43.6183 71.9745 43.4424C71.8823 43.4088 71.79 43.3753 71.7061 43.3753C70.6744 43.3334 69.7853 42.5794 69.7853 41.1802C69.7853 39.7809 70.6409 38.8928 71.8152 38.8928C72.9894 38.8928 73.7611 39.8061 73.7611 41.088C73.7611 42.2023 73.241 42.9229 72.5197 43.1742V43.1994C72.9559 43.3083 73.4256 43.4088 73.7946 43.4759L73.6353 43.9451H73.6437ZM73.1823 41.1131C73.1823 40.2418 72.7294 39.3453 71.8068 39.3453C70.8841 39.3453 70.3893 40.225 70.3976 41.1634C70.3976 42.085 70.9009 42.9145 71.7816 42.9145C72.6623 42.9145 73.1823 42.1018 73.1823 41.1048V41.1131Z" fill="#58595B"/>
<path id="Vector_4" d="M77.5018 42.4621C77.5018 42.7804 77.5018 43.0653 77.527 43.3167H77.0238L76.9902 42.8056H76.9734C76.8224 43.0569 76.4953 43.3837 75.9417 43.3837C75.4553 43.3837 74.8597 43.1156 74.8597 42.018V40.1915H75.4301V41.9175C75.4301 42.5123 75.6146 42.9145 76.1263 42.9145C76.5037 42.9145 76.7721 42.6464 76.8728 42.395C76.9063 42.3112 76.9231 42.2107 76.9231 42.1018V40.1831H77.4935V42.4537L77.5018 42.4621Z" fill="#58595B"/>
<path id="Vector_5" d="M80.5633 43.3083L80.5214 42.9145H80.5046C80.3285 43.1574 79.993 43.3753 79.5484 43.3753C78.9193 43.3753 78.5922 42.9312 78.5922 42.4788C78.5922 41.7247 79.2632 41.3142 80.4711 41.3142V41.2471C80.4711 40.9874 80.404 40.5266 79.7581 40.5266C79.4645 40.5266 79.1626 40.6188 78.9445 40.7612L78.8187 40.3842C79.0787 40.2166 79.4478 40.1077 79.842 40.1077C80.7982 40.1077 81.033 40.7612 81.033 41.3812V42.5458C81.033 42.8139 81.0498 43.082 81.0834 43.2915H80.5633V43.3083ZM80.4794 41.7163C79.8588 41.6996 79.1542 41.8169 79.1542 42.4201C79.1542 42.7888 79.3974 42.9647 79.691 42.9647C80.102 42.9647 80.3536 42.705 80.4459 42.4453C80.4627 42.3866 80.4794 42.3196 80.4794 42.2609V41.7163Z" fill="#58595B"/>
<path id="Vector_6" d="M82.3331 38.7336H82.9035V43.3167H82.3331V38.7336Z" fill="#58595B"/>
<path id="Vector_7" d="M84.883 39.3119C84.883 39.5046 84.7488 39.6638 84.5223 39.6638C84.321 39.6638 84.1784 39.5046 84.1784 39.3119C84.1784 39.1192 84.3294 38.96 84.5307 38.96C84.732 38.96 84.883 39.1192 84.883 39.3119ZM84.2539 43.3084V40.1832H84.8243V43.3084H84.2539Z" fill="#58595B"/>
<path id="Vector_8" d="M86.8289 39.295V40.1915H87.6425V40.6272H86.8289V42.3113C86.8289 42.6967 86.9379 42.9145 87.2567 42.9145C87.4076 42.9145 87.5167 42.8978 87.5838 42.8726L87.6089 43.2999C87.4999 43.3418 87.3238 43.3753 87.1057 43.3753C86.8373 43.3753 86.6276 43.2915 86.4934 43.1324C86.334 42.9648 86.2753 42.6883 86.2753 42.3196V40.6188H85.7888V40.1831H86.2753V39.4374L86.8289 39.2866V39.295Z" fill="#58595B"/>
<path id="Vector_9" d="M88.9342 40.1915L89.622 42.0348C89.6891 42.2442 89.773 42.4872 89.8233 42.6715H89.8401C89.8988 42.4872 89.9659 42.2442 90.0414 42.018L90.6621 40.1831H91.266L90.4104 42.4118C90.0078 43.4842 89.7227 44.0288 89.3368 44.364C89.06 44.607 88.7832 44.7075 88.6407 44.7326L88.4981 44.2551C88.6407 44.2132 88.8252 44.121 88.9929 43.9786C89.1439 43.8529 89.3452 43.635 89.471 43.3502C89.4962 43.2915 89.513 43.2496 89.513 43.2161C89.513 43.1826 89.4962 43.1407 89.471 43.0653L88.3135 40.1915H88.9342Z" fill="#58595B"/>
<path id="Vector_10" d="M94.4952 39.4375H93.17V38.96H96.3908V39.4375H95.0572V43.3084H94.4868V39.4375H94.4952Z" fill="#58595B"/>
<path id="Vector_11" d="M97.1038 41.8506C97.1205 42.6214 97.607 42.9314 98.1774 42.9314C98.58 42.9314 98.8316 42.8644 99.0413 42.7722L99.142 43.1827C98.9407 43.2749 98.5968 43.3754 98.1019 43.3754C97.1373 43.3754 96.567 42.7471 96.567 41.8003C96.567 40.8535 97.1205 40.1162 98.0348 40.1162C99.0581 40.1162 99.3265 41.0127 99.3265 41.5908C99.3265 41.7081 99.3097 41.8003 99.3097 41.8589H97.1122L97.1038 41.8506ZM98.7729 41.4484C98.7729 41.0881 98.6219 40.5268 97.9845 40.5268C97.4057 40.5268 97.1541 41.0546 97.1122 41.4484H98.7729Z" fill="#58595B"/>
<path id="Vector_12" d="M102.64 43.191C102.489 43.2665 102.161 43.3754 101.742 43.3754C100.803 43.3754 100.182 42.7386 100.182 41.7835C100.182 40.8283 100.845 40.1245 101.86 40.1245C102.195 40.1245 102.489 40.2083 102.648 40.2837L102.522 40.7194C102.388 40.644 102.17 40.5686 101.86 40.5686C101.147 40.5686 100.752 41.0964 100.752 41.7499C100.752 42.4705 101.214 42.9146 101.834 42.9146C102.153 42.9146 102.371 42.8308 102.531 42.7637L102.631 43.191H102.64Z" fill="#58595B"/>
<path id="Vector_13" d="M103.696 38.7336H104.267V40.6858H104.284C104.376 40.5266 104.518 40.3842 104.686 40.2837C104.854 40.1831 105.055 40.1245 105.265 40.1245C105.684 40.1245 106.355 40.3842 106.355 41.4567V43.3167H105.785V41.5237C105.785 41.021 105.6 40.5937 105.064 40.5937C104.695 40.5937 104.401 40.8534 104.3 41.1634C104.267 41.2388 104.258 41.3226 104.258 41.4315V43.3167H103.688V38.7336H103.696Z" fill="#58595B"/>
<path id="Vector_14" d="M109.366 42.6296C109.618 42.7805 109.987 42.9145 110.373 42.9145C110.952 42.9145 111.287 42.6129 111.287 42.1688C111.287 41.7666 111.052 41.5321 110.465 41.3058C109.752 41.0545 109.316 40.6858 109.316 40.0742C109.316 39.3955 109.878 38.8928 110.725 38.8928C111.17 38.8928 111.497 38.9934 111.69 39.1023L111.539 39.5631C111.396 39.4877 111.103 39.3536 110.708 39.3536C110.113 39.3536 109.886 39.7055 109.886 40.0072C109.886 40.4093 110.155 40.6104 110.75 40.845C111.489 41.1299 111.858 41.4818 111.858 42.1185C111.858 42.7888 111.363 43.3669 110.331 43.3669C109.912 43.3669 109.45 43.2413 109.224 43.0905L109.366 42.6213V42.6296Z" fill="#58595B"/>
<path id="Vector_15" d="M115.859 41.7249C115.859 42.8811 115.062 43.3838 114.298 43.3838C113.451 43.3838 112.797 42.7638 112.797 41.7752C112.797 40.7278 113.485 40.1162 114.349 40.1162C115.213 40.1162 115.85 40.7697 115.85 41.7249H115.859ZM113.376 41.7584C113.376 42.4454 113.77 42.9565 114.324 42.9565C114.877 42.9565 115.271 42.4454 115.271 41.7416C115.271 41.2138 115.003 40.5435 114.332 40.5435C113.661 40.5435 113.367 41.1635 113.367 41.7584H113.376Z" fill="#58595B"/>
<path id="Vector_16" d="M116.966 38.7336H117.536V43.3167H116.966V38.7336Z" fill="#58595B"/>
<path id="Vector_17" d="M121.495 42.4621C121.495 42.7804 121.495 43.0653 121.52 43.3167H121.017L120.983 42.8056H120.967C120.816 43.0569 120.489 43.3837 119.935 43.3837C119.448 43.3837 118.853 43.1156 118.853 42.018V40.1915H119.423V41.9175C119.423 42.5123 119.608 42.9145 120.119 42.9145C120.497 42.9145 120.765 42.6464 120.866 42.395C120.899 42.3112 120.916 42.2107 120.916 42.1018V40.1831H121.487V42.4537L121.495 42.4621Z" fill="#58595B"/>
<path id="Vector_18" d="M123.508 39.295V40.1915H124.322V40.6272H123.508V42.3113C123.508 42.6967 123.617 42.9145 123.936 42.9145C124.087 42.9145 124.196 42.8978 124.263 42.8726L124.288 43.2999C124.179 43.3418 124.003 43.3753 123.785 43.3753C123.516 43.3753 123.307 43.2915 123.173 43.1324C123.013 42.9648 122.954 42.6883 122.954 42.3196V40.6188H122.468V40.1831H122.954V39.4374L123.508 39.2866V39.295Z" fill="#58595B"/>
<path id="Vector_19" d="M125.982 39.3119C125.982 39.5046 125.848 39.6638 125.622 39.6638C125.42 39.6638 125.278 39.5046 125.278 39.3119C125.278 39.1192 125.429 38.96 125.63 38.96C125.831 38.96 125.982 39.1192 125.982 39.3119ZM125.353 43.3084V40.1832H125.924V43.3084H125.353Z" fill="#58595B"/>
<path id="Vector_20" d="M130.076 41.7249C130.076 42.8811 129.279 43.3838 128.515 43.3838C127.668 43.3838 127.014 42.7638 127.014 41.7752C127.014 40.7278 127.702 40.1162 128.566 40.1162C129.43 40.1162 130.067 40.7697 130.067 41.7249H130.076ZM127.593 41.7584C127.593 42.4454 127.987 42.9565 128.541 42.9565C129.094 42.9565 129.488 42.4454 129.488 41.7416C129.488 41.2138 129.22 40.5435 128.549 40.5435C127.878 40.5435 127.584 41.1635 127.584 41.7584H127.593Z" fill="#58595B"/>
<path id="Vector_21" d="M131.183 41.0378C131.183 40.711 131.183 40.4513 131.158 40.1915H131.661L131.694 40.711H131.711C131.862 40.4178 132.231 40.1245 132.743 40.1245C133.179 40.1245 133.85 40.3842 133.85 41.4567V43.3167H133.28V41.5153C133.28 41.0126 133.095 40.5937 132.558 40.5937C132.181 40.5937 131.896 40.8618 131.795 41.1718C131.77 41.2389 131.753 41.3394 131.753 41.4399V43.3167H131.183V41.0378Z" fill="#58595B"/>
<path id="Vector_22" d="M139.973 43.1659C139.763 43.2664 139.352 43.3753 138.824 43.3753C137.599 43.3753 136.677 42.6045 136.677 41.1802C136.677 39.7558 137.599 38.8928 138.95 38.8928C139.495 38.8928 139.83 39.0101 139.981 39.0855L139.847 39.5463C139.637 39.4458 139.327 39.362 138.966 39.362C137.943 39.362 137.272 40.0155 137.272 41.155C137.272 42.2191 137.884 42.9061 138.941 42.9061C139.285 42.9061 139.629 42.8391 139.856 42.7218L139.973 43.1659Z" fill="#58595B"/>
<path id="Vector_23" d="M143.798 41.7249C143.798 42.8811 143.001 43.3838 142.238 43.3838C141.391 43.3838 140.736 42.7638 140.736 41.7752C140.736 40.7278 141.424 40.1162 142.288 40.1162C143.152 40.1162 143.789 40.7697 143.789 41.7249H143.798ZM141.315 41.7584C141.315 42.4454 141.709 42.9565 142.263 42.9565C142.816 42.9565 143.211 42.4454 143.211 41.7416C143.211 41.2138 142.942 40.5435 142.271 40.5435C141.6 40.5435 141.307 41.1635 141.307 41.7584H141.315Z" fill="#58595B"/>
<path id="Vector_24" d="M144.905 41.0378C144.905 40.7111 144.905 40.4514 144.88 40.1916H145.375L145.4 40.6943H145.417C145.593 40.4011 145.878 40.1162 146.398 40.1162C146.826 40.1162 147.144 40.3759 147.279 40.7446H147.295C147.396 40.5687 147.513 40.4346 147.648 40.3424C147.832 40.2 148.042 40.1246 148.335 40.1246C148.746 40.1246 149.359 40.3927 149.359 41.4819V43.3168H148.805V41.5489C148.805 40.9457 148.587 40.5854 148.126 40.5854C147.807 40.5854 147.547 40.82 147.455 41.1049C147.43 41.1803 147.413 41.2892 147.413 41.3897V43.3168H146.859V41.4484C146.859 40.9541 146.641 40.5938 146.205 40.5938C145.853 40.5938 145.593 40.8787 145.5 41.1635C145.467 41.2473 145.459 41.3478 145.459 41.44V43.3252H144.905V41.0462V41.0378Z" fill="#58595B"/>
<path id="Vector_25" d="M150.684 41.2054C150.684 40.8032 150.667 40.4849 150.659 40.1832H151.17L151.196 40.7195H151.212C151.447 40.3424 151.816 40.1162 152.32 40.1162C153.074 40.1162 153.645 40.753 153.645 41.6997C153.645 42.8225 152.957 43.3754 152.227 43.3754C151.816 43.3754 151.456 43.1911 151.263 42.8895H151.246V44.582H150.684V41.2054ZM151.246 42.0349C151.246 42.1187 151.263 42.1941 151.271 42.2695C151.372 42.6633 151.716 42.9314 152.127 42.9314C152.731 42.9314 153.074 42.4371 153.074 41.7249C153.074 41.0965 152.747 40.5603 152.143 40.5603C151.758 40.5603 151.397 40.8368 151.288 41.2641C151.271 41.3311 151.246 41.4149 151.246 41.4987V42.0349Z" fill="#58595B"/>
<path id="Vector_26" d="M154.744 38.7336H155.314V43.3167H154.744V38.7336Z" fill="#58595B"/>
<path id="Vector_27" d="M156.966 41.8506C156.983 42.6214 157.47 42.9314 158.04 42.9314C158.443 42.9314 158.694 42.8644 158.904 42.7722L159.005 43.1827C158.803 43.2749 158.459 43.3754 157.965 43.3754C157 43.3754 156.43 42.7471 156.43 41.8003C156.43 40.8535 156.983 40.1162 157.897 40.1162C158.921 40.1162 159.189 41.0127 159.189 41.5908C159.189 41.7081 159.172 41.8003 159.172 41.8589H156.975L156.966 41.8506ZM158.636 41.4484C158.636 41.0881 158.485 40.5268 157.847 40.5268C157.268 40.5268 157.017 41.0546 156.975 41.4484H158.636Z" fill="#58595B"/>
<path id="Vector_28" d="M160.523 40.1914L160.967 40.8617C161.085 41.0376 161.177 41.1968 161.286 41.3728H161.303C161.403 41.1884 161.512 41.0209 161.613 40.8533L162.049 40.1914H162.662L161.596 41.6995L162.695 43.3082H162.049L161.588 42.6044C161.462 42.4201 161.361 42.2525 161.252 42.0598H161.236C161.135 42.2441 161.026 42.4117 160.909 42.6044L160.456 43.3082H159.827L160.934 41.7163L159.877 40.1914H160.506H160.523Z" fill="#58595B"/>
</g>
<g id="Group_3">
<path id="Vector_29" d="M101.415 15.3826C100.408 15.3826 99.8549 15.9523 99.8549 16.9829V26.4422C99.8549 27.8246 99.469 28.9893 98.6974 29.7852C97.8838 30.6147 96.7095 31.0336 95.2081 31.0336C93.7067 31.0336 92.5492 30.6147 91.7272 29.7852C90.964 28.9976 90.5697 27.8246 90.5697 26.5176V17.0583C90.5697 15.9607 90.0162 15.3909 89.0096 15.3909C88.0031 15.3909 87.4076 15.9607 87.4076 16.9912V26.4254C87.4076 28.7882 88.1038 30.6817 89.4877 32.0474C90.8717 33.4382 92.7925 34.142 95.1997 34.142C97.607 34.142 99.5445 33.4382 100.92 32.0474C102.304 30.6733 103 28.7882 103 26.4254V16.9912C103 15.9607 102.43 15.3909 101.398 15.3909L101.415 15.3826Z" fill="#AB2D29"/>
<path id="Vector_30" d="M143.773 15.3911C142.925 15.3911 142.229 16.0782 142.229 16.9328V32.5084C142.229 33.3546 142.917 34.05 143.773 34.05C144.628 34.05 145.316 33.363 145.316 32.5084V16.9328C145.316 16.0865 144.628 15.3911 143.773 15.3911Z" fill="#AB2D29"/>
<path id="Vector_31" d="M117.293 30.9331H108.368V26.04H113.879C114.726 26.04 115.422 25.353 115.422 24.4984C115.422 23.6438 114.735 22.9568 113.879 22.9568H108.368V18.5329H116.857C117.704 18.5329 118.4 17.8459 118.4 16.9913C118.4 16.4048 118.123 15.4329 116.756 15.4329H106.791C105.751 15.4329 105.173 15.9942 105.173 17.0248V32.4077C105.173 33.4299 105.743 33.9996 106.791 33.9996H107.37C107.412 33.9996 107.462 34.0164 107.504 34.0164H117.301C118.148 34.0164 118.845 33.3293 118.845 32.4747C118.845 31.6201 118.157 30.9331 117.301 30.9331H117.293Z" fill="#AB2D29"/>
<path id="Vector_32" d="M83.6835 15.3911C82.8363 15.3911 82.1402 16.0782 82.1402 16.9328V23.0407H72.8467V16.9328C72.8467 16.0865 72.1589 15.3911 71.3033 15.3911C70.4478 15.3911 69.76 16.0782 69.76 16.9328V32.5084C69.76 33.3546 70.4478 34.05 71.3033 34.05C72.1589 34.05 72.8467 33.363 72.8467 32.5084V26.124H82.1402V32.5084C82.1402 33.3546 82.828 34.05 83.6835 34.05C84.539 34.05 85.2268 33.363 85.2268 32.5084V16.9328C85.2268 16.0865 84.539 15.3911 83.6835 15.3911Z" fill="#AB2D29"/>
<path id="Vector_33" d="M161.177 15.4498H148.746C147.899 15.4498 147.203 16.1368 147.203 16.9914C147.203 17.846 147.891 18.5331 148.746 18.5331H153.427V32.5168C153.427 33.363 154.115 34.0585 154.97 34.0585C155.826 34.0585 156.513 33.3714 156.513 32.5168V18.5247H161.177C162.024 18.5247 162.72 17.8377 162.72 16.9831C162.72 16.1284 162.032 15.4414 161.177 15.4414V15.4498Z" fill="#AB2D29"/>
<path id="Vector_34" d="M139.696 29.2407C139.109 28.6459 138.136 28.6375 137.541 29.2323C137.029 29.7351 136.442 30.154 135.788 30.464C134.244 31.2013 132.5 31.2851 130.889 30.7153C129.287 30.1456 128.004 28.9977 127.274 27.4896L127.249 27.431C126.838 26.568 126.637 25.6463 126.628 24.7163C126.628 23.7863 126.838 22.8647 127.249 22.0017L127.274 21.943C128.004 20.4349 129.287 19.2871 130.889 18.7173C132.5 18.1476 134.244 18.2314 135.788 18.9687C136.442 19.2787 137.037 19.6976 137.541 20.2003C138.136 20.7868 139.109 20.7868 139.696 20.1919C139.814 20.0746 139.914 19.9322 139.99 19.7814C140.275 19.1949 140.149 18.4995 139.688 18.0387C138.933 17.293 138.061 16.6813 137.096 16.2205C134.815 15.1397 132.248 15.0056 129.866 15.8519C127.501 16.6897 125.597 18.3989 124.506 20.6611L124.489 20.6946C123.877 21.9766 123.575 23.3423 123.567 24.7163C123.567 26.0904 123.877 27.4561 124.489 28.738L124.506 28.7715C125.597 31.0337 127.501 32.7346 129.866 33.5808C132.248 34.427 134.815 34.293 137.096 33.2121C138.061 32.7513 138.933 32.1397 139.688 31.394C140.149 30.9332 140.275 30.2378 139.99 29.6513C139.914 29.5005 139.822 29.358 139.696 29.2407Z" fill="#AB2D29"/>
</g>
</g>
<g id="Group_4">
<g id="Group_5">
<path id="Vector_35" d="M10.8871 32.4915C11.7395 32.4915 12.4305 31.8013 12.4305 30.9498C12.4305 30.0984 11.7395 29.4082 10.8871 29.4082C10.0348 29.4082 9.34381 30.0984 9.34381 30.9498C9.34381 31.8013 10.0348 32.4915 10.8871 32.4915Z" fill="url(#paint2_linear_0_1)"/>
<path id="Vector_36" d="M11.6924 26.8194C12.5447 26.8194 13.2357 26.1292 13.2357 25.2777C13.2357 24.4263 12.5447 23.7361 11.6924 23.7361C10.84 23.7361 10.149 24.4263 10.149 25.2777C10.149 26.1292 10.84 26.8194 11.6924 26.8194Z" fill="url(#paint3_linear_0_1)"/>
<path id="Vector_37" d="M14.0745 21.6079C14.9268 21.6079 15.6178 20.9177 15.6178 20.0663C15.6178 19.2149 14.9268 18.5247 14.0745 18.5247C13.2221 18.5247 12.5311 19.2149 12.5311 20.0663C12.5311 20.9177 13.2221 21.6079 14.0745 21.6079Z" fill="url(#paint4_linear_0_1)"/>
<path id="Vector_38" d="M17.8237 17.2762C18.6761 17.2762 19.367 16.5859 19.367 15.7345C19.367 14.8831 18.6761 14.1929 17.8237 14.1929C16.9714 14.1929 16.2804 14.8831 16.2804 15.7345C16.2804 16.5859 16.9714 17.2762 17.8237 17.2762Z" fill="url(#paint5_linear_0_1)"/>
<path id="Vector_39" d="M22.6466 14.1761C23.499 14.1761 24.1899 13.4858 24.1899 12.6344C24.1899 11.783 23.499 11.0928 22.6466 11.0928C21.7942 11.0928 21.1033 11.783 21.1033 12.6344C21.1033 13.4858 21.7942 14.1761 22.6466 14.1761Z" fill="url(#paint6_linear_0_1)"/>
<path id="Vector_40" d="M28.1405 12.3748C28.9928 12.3748 29.6838 11.6846 29.6838 10.8331C29.6838 9.98172 28.9928 9.2915 28.1405 9.2915C27.2881 9.2915 26.5972 9.98172 26.5972 10.8331C26.5972 11.6846 27.2881 12.3748 28.1405 12.3748Z" fill="url(#paint7_linear_0_1)"/>
<path id="Vector_41" d="M13.9486 43.2747C14.801 43.2747 15.4919 42.5845 15.4919 41.7331C15.4919 40.8816 14.801 40.1914 13.9486 40.1914C13.0962 40.1914 12.4053 40.8816 12.4053 41.7331C12.4053 42.5845 13.0962 43.2747 13.9486 43.2747Z" fill="url(#paint8_linear_0_1)"/>
<path id="Vector_42" d="M11.7343 37.9712C12.5867 37.9712 13.2776 37.281 13.2776 36.4296C13.2776 35.5782 12.5867 34.8879 11.7343 34.8879C10.8819 34.8879 10.191 35.5782 10.191 36.4296C10.191 37.281 10.8819 37.9712 11.7343 37.9712Z" fill="url(#paint9_linear_0_1)"/>
<path id="Vector_43" d="M51.1059 32.4915C51.9582 32.4915 52.6492 31.8013 52.6492 30.9498C52.6492 30.0984 51.9582 29.4082 51.1059 29.4082C50.2535 29.4082 49.5626 30.0984 49.5626 30.9498C49.5626 31.8013 50.2535 32.4915 51.1059 32.4915Z" fill="url(#paint10_linear_0_1)"/>
<path id="Vector_44" d="M50.3007 26.8194C51.153 26.8194 51.844 26.1292 51.844 25.2777C51.844 24.4263 51.153 23.7361 50.3007 23.7361C49.4483 23.7361 48.7573 24.4263 48.7573 25.2777C48.7573 26.1292 49.4483 26.8194 50.3007 26.8194Z" fill="url(#paint11_linear_0_1)"/>
<path id="Vector_45" d="M47.9269 21.6079C48.7793 21.6079 49.4703 20.9177 49.4703 20.0663C49.4703 19.2149 48.7793 18.5247 47.9269 18.5247C47.0746 18.5247 46.3836 19.2149 46.3836 20.0663C46.3836 20.9177 47.0746 21.6079 47.9269 21.6079Z" fill="url(#paint12_linear_0_1)"/>
<path id="Vector_46" d="M44.1777 17.2762C45.03 17.2762 45.721 16.5859 45.721 15.7345C45.721 14.8831 45.03 14.1929 44.1777 14.1929C43.3253 14.1929 42.6343 14.8831 42.6343 15.7345C42.6343 16.5859 43.3253 17.2762 44.1777 17.2762Z" fill="url(#paint13_linear_0_1)"/>
<path id="Vector_47" d="M39.3548 14.1761C40.2071 14.1761 40.8981 13.4858 40.8981 12.6344C40.8981 11.783 40.2071 11.0928 39.3548 11.0928C38.5024 11.0928 37.8115 11.783 37.8115 12.6344C37.8115 13.4858 38.5024 14.1761 39.3548 14.1761Z" fill="url(#paint14_linear_0_1)"/>
<path id="Vector_48" d="M33.8525 12.3748C34.7049 12.3748 35.3959 11.6846 35.3959 10.8331C35.3959 9.98172 34.7049 9.2915 33.8525 9.2915C33.0002 9.2915 32.3092 9.98172 32.3092 10.8331C32.3092 11.6846 33.0002 12.3748 33.8525 12.3748Z" fill="url(#paint15_linear_0_1)"/>
<path id="Vector_49" d="M48.0024 43.283C48.8548 43.283 49.5458 42.5928 49.5458 41.7414C49.5458 40.8899 48.8548 40.1997 48.0024 40.1997C47.1501 40.1997 46.4591 40.8899 46.4591 41.7414C46.4591 42.5928 47.1501 43.283 48.0024 43.283Z" fill="url(#paint16_linear_0_1)"/>
<path id="Vector_50" d="M50.2587 37.9712C51.1111 37.9712 51.802 37.281 51.802 36.4296C51.802 35.5782 51.1111 34.8879 50.2587 34.8879C49.4064 34.8879 48.7154 35.5782 48.7154 36.4296C48.7154 37.281 49.4064 37.9712 50.2587 37.9712Z" fill="url(#paint17_linear_0_1)"/>
</g>
<g id="Group_6">
<path id="Vector_51" d="M5.82943 32.1059C6.4687 32.1059 6.98692 31.5883 6.98692 30.9497C6.98692 30.3111 6.4687 29.7935 5.82943 29.7935C5.19016 29.7935 4.67194 30.3111 4.67194 30.9497C4.67194 31.5883 5.19016 32.1059 5.82943 32.1059Z" fill="#F58220"/>
<path id="Vector_52" d="M6.84432 25.0095C7.48359 25.0095 8.00182 24.4918 8.00182 23.8533C8.00182 23.2147 7.48359 22.697 6.84432 22.697C6.20506 22.697 5.68683 23.2147 5.68683 23.8533C5.68683 24.4918 6.20506 25.0095 6.84432 25.0095Z" fill="#F58220"/>
<path id="Vector_53" d="M9.81356 18.4909C10.4528 18.4909 10.9711 17.9733 10.9711 17.3347C10.9711 16.6961 10.4528 16.1785 9.81356 16.1785C9.17429 16.1785 8.65607 16.6961 8.65607 17.3347C8.65607 17.9733 9.17429 18.4909 9.81356 18.4909Z" fill="#F58220"/>
<path id="Vector_54" d="M14.5106 13.07C15.1499 13.07 15.6681 12.5524 15.6681 11.9138C15.6681 11.2752 15.1499 10.7576 14.5106 10.7576C13.8714 10.7576 13.3531 11.2752 13.3531 11.9138C13.3531 12.5524 13.8714 13.07 14.5106 13.07Z" fill="#F58220"/>
<path id="Vector_55" d="M20.5498 9.19089C21.189 9.19089 21.7073 8.67322 21.7073 8.03465C21.7073 7.39608 21.189 6.87842 20.5498 6.87842C19.9105 6.87842 19.3923 7.39608 19.3923 8.03465C19.3923 8.67322 19.9105 9.19089 20.5498 9.19089Z" fill="#F58220"/>
<path id="Vector_56" d="M27.436 6.98727C28.0753 6.98727 28.5935 6.46961 28.5935 5.83104C28.5935 5.19247 28.0753 4.6748 27.436 4.6748C26.7967 4.6748 26.2785 5.19247 26.2785 5.83104C26.2785 6.46961 26.7967 6.98727 27.436 6.98727Z" fill="#F58220"/>
<path id="Vector_57" d="M9.67935 45.6037C10.3186 45.6037 10.8368 45.0861 10.8368 44.4475C10.8368 43.8089 10.3186 43.2913 9.67935 43.2913C9.04008 43.2913 8.52185 43.8089 8.52185 44.4475C8.52185 45.0861 9.04008 45.6037 9.67935 45.6037Z" fill="#F58220"/>
<path id="Vector_58" d="M6.87789 38.9931C7.51716 38.9931 8.03539 38.4755 8.03539 37.8369C8.03539 37.1983 7.51716 36.6807 6.87789 36.6807C6.23863 36.6807 5.7204 37.1983 5.7204 37.8369C5.7204 38.4755 6.23863 38.9931 6.87789 38.9931Z" fill="#F58220"/>
<path id="Vector_59" d="M56.1637 32.1059C56.8029 32.1059 57.3211 31.5883 57.3211 30.9497C57.3211 30.3111 56.8029 29.7935 56.1637 29.7935C55.5244 29.7935 55.0062 30.3111 55.0062 30.9497C55.0062 31.5883 55.5244 32.1059 56.1637 32.1059Z" fill="#F58220"/>
<path id="Vector_60" d="M55.1571 25.0095C55.7964 25.0095 56.3146 24.4918 56.3146 23.8533C56.3146 23.2147 55.7964 22.697 55.1571 22.697C54.5179 22.697 53.9996 23.2147 53.9996 23.8533C53.9996 24.4918 54.5179 25.0095 55.1571 25.0095Z" fill="#F58220"/>
<path id="Vector_61" d="M52.1795 18.4909C52.8188 18.4909 53.337 17.9733 53.337 17.3347C53.337 16.6961 52.8188 16.1785 52.1795 16.1785C51.5403 16.1785 51.022 16.6961 51.022 17.3347C51.022 17.9733 51.5403 18.4909 52.1795 18.4909Z" fill="#F58220"/>
<path id="Vector_62" d="M47.4824 13.07C48.1217 13.07 48.6399 12.5524 48.6399 11.9138C48.6399 11.2752 48.1217 10.7576 47.4824 10.7576C46.8432 10.7576 46.325 11.2752 46.325 11.9138C46.325 12.5524 46.8432 13.07 47.4824 13.07Z" fill="#F58220"/>
<path id="Vector_63" d="M41.4517 9.19089C42.091 9.19089 42.6092 8.67322 42.6092 8.03465C42.6092 7.39608 42.091 6.87842 41.4517 6.87842C40.8125 6.87842 40.2943 7.39608 40.2943 8.03465C40.2943 8.67322 40.8125 9.19089 41.4517 9.19089Z" fill="#F58220"/>
<path id="Vector_64" d="M34.5655 6.98727C35.2048 6.98727 35.723 6.46961 35.723 5.83104C35.723 5.19247 35.2048 4.6748 34.5655 4.6748C33.9262 4.6748 33.408 5.19247 33.408 5.83104C33.408 6.46961 33.9262 6.98727 34.5655 6.98727Z" fill="#F58220"/>
<path id="Vector_65" d="M52.2718 45.6206C52.9111 45.6206 53.4293 45.1029 53.4293 44.4643C53.4293 43.8258 52.9111 43.3081 52.2718 43.3081C51.6325 43.3081 51.1143 43.8258 51.1143 44.4643C51.1143 45.1029 51.6325 45.6206 52.2718 45.6206Z" fill="#F58220"/>
<path id="Vector_66" d="M55.1236 38.9931C55.7628 38.9931 56.2811 38.4755 56.2811 37.8369C56.2811 37.1983 55.7628 36.6807 55.1236 36.6807C54.4843 36.6807 53.9661 37.1983 53.9661 37.8369C53.9661 38.4755 54.4843 38.9931 55.1236 38.9931Z" fill="#F58220"/>
</g>
<g id="Group_7">
<path id="Vector_67" d="M0.771663 31.7208C1.19784 31.7208 1.54333 31.3757 1.54333 30.95C1.54333 30.5243 1.19784 30.1792 0.771663 30.1792C0.345485 30.1792 0 30.5243 0 30.95C0 31.3757 0.345485 31.7208 0.771663 31.7208Z" fill="#F9A45E"/>
<path id="Vector_68" d="M1.98785 23.1998C2.41403 23.1998 2.75951 22.8547 2.75951 22.429C2.75951 22.0033 2.41403 21.6582 1.98785 21.6582C1.56167 21.6582 1.21619 22.0033 1.21619 22.429C1.21619 22.8547 1.56167 23.1998 1.98785 23.1998Z" fill="#F9A45E"/>
<path id="Vector_69" d="M5.56103 15.3659C5.98721 15.3659 6.33269 15.0208 6.33269 14.595C6.33269 14.1693 5.98721 13.8242 5.56103 13.8242C5.13485 13.8242 4.78937 14.1693 4.78937 14.595C4.78937 15.0208 5.13485 15.3659 5.56103 15.3659Z" fill="#F9A45E"/>
<path id="Vector_70" d="M11.2059 8.86416C11.632 8.86416 11.9775 8.51905 11.9775 8.09333C11.9775 7.66762 11.632 7.32251 11.2059 7.32251C10.7797 7.32251 10.4342 7.66762 10.4342 8.09333C10.4342 8.51905 10.7797 8.86416 11.2059 8.86416Z" fill="#F9A45E"/>
<path id="Vector_71" d="M18.4528 4.20571C18.879 4.20571 19.2245 3.8606 19.2245 3.43489C19.2245 3.00917 18.879 2.66406 18.4528 2.66406C18.0266 2.66406 17.6812 3.00917 17.6812 3.43489C17.6812 3.8606 18.0266 4.20571 18.4528 4.20571Z" fill="#F9A45E"/>
<path id="Vector_72" d="M26.723 1.59999C27.1492 1.59999 27.4947 1.25489 27.4947 0.829172C27.4947 0.403459 27.1492 0.0583496 26.723 0.0583496C26.2968 0.0583496 25.9514 0.403459 25.9514 0.829172C25.9514 1.25489 26.2968 1.59999 26.723 1.59999Z" fill="#F9A45E"/>
<path id="Vector_73" d="M5.42681 47.9415C5.85299 47.9415 6.19848 47.5964 6.19848 47.1707C6.19848 46.745 5.85299 46.3999 5.42681 46.3999C5.00064 46.3999 4.65515 46.745 4.65515 47.1707C4.65515 47.5964 5.00064 47.9415 5.42681 47.9415Z" fill="#F9A45E"/>
<path id="Vector_74" d="M2.02142 40.007C2.4476 40.007 2.79308 39.6619 2.79308 39.2362C2.79308 38.8104 2.4476 38.4653 2.02142 38.4653C1.59524 38.4653 1.24976 38.8104 1.24976 39.2362C1.24976 39.6619 1.59524 40.007 2.02142 40.007Z" fill="#F9A45E"/>
<path id="Vector_75" d="M61.2298 31.7208C61.656 31.7208 62.0015 31.3757 62.0015 30.95C62.0015 30.5243 61.656 30.1792 61.2298 30.1792C60.8036 30.1792 60.4581 30.5243 60.4581 30.95C60.4581 31.3757 60.8036 31.7208 61.2298 31.7208Z" fill="#F9A45E"/>
<path id="Vector_76" d="M60.0052 23.1998C60.4314 23.1998 60.7768 22.8547 60.7768 22.429C60.7768 22.0033 60.4314 21.6582 60.0052 21.6582C59.579 21.6582 59.2335 22.0033 59.2335 22.429C59.2335 22.8547 59.579 23.1998 60.0052 23.1998Z" fill="#F9A45E"/>
<path id="Vector_77" d="M56.4321 15.3659C56.8582 15.3659 57.2037 15.0208 57.2037 14.595C57.2037 14.1693 56.8582 13.8242 56.4321 13.8242C56.0059 13.8242 55.6604 14.1693 55.6604 14.595C55.6604 15.0208 56.0059 15.3659 56.4321 15.3659Z" fill="#F9A45E"/>
<path id="Vector_78" d="M50.7955 8.86416C51.2217 8.86416 51.5672 8.51905 51.5672 8.09333C51.5672 7.66762 51.2217 7.32251 50.7955 7.32251C50.3694 7.32251 50.0239 7.66762 50.0239 8.09333C50.0239 8.51905 50.3694 8.86416 50.7955 8.86416Z" fill="#F9A45E"/>
<path id="Vector_79" d="M43.5403 4.20571C43.9665 4.20571 44.3119 3.8606 44.3119 3.43489C44.3119 3.00917 43.9665 2.66406 43.5403 2.66406C43.1141 2.66406 42.7686 3.00917 42.7686 3.43489C42.7686 3.8606 43.1141 4.20571 43.5403 4.20571Z" fill="#F9A45E"/>
<path id="Vector_80" d="M35.2784 1.59999C35.7046 1.59999 36.0501 1.25489 36.0501 0.829172C36.0501 0.403459 35.7046 0.0583496 35.2784 0.0583496C34.8523 0.0583496 34.5068 0.403459 34.5068 0.829172C34.5068 1.25489 34.8523 1.59999 35.2784 1.59999Z" fill="#F9A45E"/>
<path id="Vector_81" d="M56.4991 47.9081C56.9253 47.9081 57.2708 47.563 57.2708 47.1373C57.2708 46.7116 56.9253 46.3665 56.4991 46.3665C56.073 46.3665 55.7275 46.7116 55.7275 47.1373C55.7275 47.563 56.073 47.9081 56.4991 47.9081Z" fill="#F9A45E"/>
<path id="Vector_82" d="M59.98 40.007C60.4062 40.007 60.7517 39.6619 60.7517 39.2362C60.7517 38.8104 60.4062 38.4653 59.98 38.4653C59.5539 38.4653 59.2084 38.8104 59.2084 39.2362C59.2084 39.6619 59.5539 40.007 59.98 40.007Z" fill="#F9A45E"/>
</g>
<path id="Vector_83" d="M38.1721 42.2189C36.4611 40.1913 32.0408 35.0553 32.0408 35.0553C31.3949 34.2928 31.4872 33.1533 32.2505 32.5082C33.0137 31.863 34.1545 31.9552 34.8003 32.7177C34.8003 32.7177 39.2038 37.9877 40.9233 39.8813C42.2066 41.2889 43.5906 39.8813 43.8254 39.5294C45.4778 37.0577 46.4591 34.1085 46.4591 30.9163C46.4591 22.387 39.5393 15.4663 30.9923 15.4663C22.4453 15.4663 15.5255 22.3786 15.5255 30.9163C15.5255 39.454 22.4453 46.3662 30.9923 46.3662C33.3996 46.3662 35.6391 45.7462 37.7024 44.8414C38.8096 44.3554 38.9019 43.107 38.1638 42.2273L38.1721 42.2189ZM32.7705 43.1238C32.2085 43.2075 31.6298 43.2494 31.051 43.2494C31.0343 43.2494 31.0091 43.2494 30.9923 43.2494C27.7128 43.2494 24.6261 41.9843 22.3027 39.6718C19.9626 37.351 18.6625 34.2593 18.6457 30.9665C18.6289 27.6738 19.9039 24.5654 22.2272 22.2278C24.5506 19.8902 27.6457 18.5915 30.942 18.5747C34.2467 18.558 37.3502 19.8315 39.6903 22.1524C42.0305 24.4732 43.3305 27.5649 43.3473 30.8576C43.3473 32.2568 43.1292 33.6225 42.6763 34.9296C42.3492 35.8764 41.3175 36.3791 40.3781 36.0523C39.4303 35.7255 38.927 34.695 39.2542 33.7566C39.5729 32.835 39.7322 31.863 39.7239 30.8744C39.7155 28.5452 38.7928 26.3584 37.1405 24.7162C35.4881 23.074 33.2905 22.1691 30.9588 22.1859C28.627 22.1943 26.4378 23.1159 24.7939 24.7665C23.1499 26.417 22.2524 28.6122 22.2608 30.9414C22.2692 33.2706 23.1918 35.4574 24.8442 37.0996C26.4965 38.7418 28.6941 39.6467 31.0259 39.6299C31.4369 39.6299 31.8395 39.5964 32.2421 39.5378C33.2318 39.3953 34.1461 40.0824 34.2887 41.071C34.4313 42.0597 33.7435 42.9729 32.7537 43.1154L32.7705 43.1238Z" fill="url(#paint18_linear_0_1)"/>
</g>
</g>
</g>
</g>
<defs>
<filter id="filter0_d_0_1" x="-304" y="-6" width="1928" height="64" filterUnits="userSpaceOnUse" color-interpolation-filters="sRGB">
<feFlood flood-opacity="0" result="BackgroundImageFix"/>
<feColorMatrix in="SourceAlpha" type="matrix" values="0 0 0 0 0 0 0 0 0 0 0 0 0 0 0 0 0 0 127 0" result="hardAlpha"/>
<feOffset dy="2"/>
<feGaussianBlur stdDeviation="2"/>
<feComposite in2="hardAlpha" operator="out"/>
<feColorMatrix type="matrix" values="0 0 0 0 0.870833 0 0 0 0 0.51234 0 0 0 0 0.181424 0 0 0 0.2 0"/>
<feBlend mode="normal" in2="BackgroundImageFix" result="effect1_dropShadow_0_1"/>
<feBlend mode="normal" in="SourceGraphic" in2="effect1_dropShadow_0_1" result="shape"/>
</filter>
<radialGradient id="paint0_radial_0_1" cx="0" cy="0" r="1" gradientUnits="userSpaceOnUse" gradientTransform="translate(197.928 301.218) rotate(89.8229) scale(257.545 263.246)">
<stop stop-color="#FFB96B"/>
<stop offset="1" stop-color="#FFD7AA" stop-opacity="0"/>
</radialGradient>
<radialGradient id="paint1_radial_0_1" cx="0" cy="0" r="1" gradientUnits="userSpaceOnUse" gradientTransform="translate(452.927 300.43) rotate(89.8229) scale(257.545 263.246)">
<stop stop-color="#FFB96B"/>
<stop offset="1" stop-color="#FFD7AA" stop-opacity="0"/>
</radialGradient>
<linearGradient id="paint2_linear_0_1" x1="3.41375" y1="22.2111" x2="36.143" y2="60.5779" gradientUnits="userSpaceOnUse">
<stop stop-color="#F58220"/>
<stop offset="0.51" stop-color="#F04B24"/>
<stop offset="1" stop-color="#AB2C29"/>
</linearGradient>
<linearGradient id="paint3_linear_0_1" x1="6.68495" y1="19.4212" x2="39.4142" y2="57.788" gradientUnits="userSpaceOnUse">
<stop stop-color="#F58220"/>
<stop offset="0.51" stop-color="#F04B24"/>
<stop offset="1" stop-color="#AB2C29"/>
</linearGradient>
<linearGradient id="paint4_linear_0_1" x1="10.6355" y1="16.053" x2="43.3647" y2="54.4199" gradientUnits="userSpaceOnUse">
<stop stop-color="#F58220"/>
<stop offset="0.51" stop-color="#F04B24"/>
<stop offset="1" stop-color="#AB2C29"/>
</linearGradient>
<linearGradient id="paint5_linear_0_1" x1="14.9468" y1="12.3747" x2="47.676" y2="50.7416" gradientUnits="userSpaceOnUse">
<stop stop-color="#F58220"/>
<stop offset="0.51" stop-color="#F04B24"/>
<stop offset="1" stop-color="#AB2C29"/>
</linearGradient>
<linearGradient id="paint6_linear_0_1" x1="19.2664" y1="8.68814" x2="51.9956" y2="47.055" gradientUnits="userSpaceOnUse">
<stop stop-color="#F58220"/>
<stop offset="0.51" stop-color="#F04B24"/>
<stop offset="1" stop-color="#AB2C29"/>
</linearGradient>
<linearGradient id="paint7_linear_0_1" x1="23.3344" y1="5.21117" x2="56.072" y2="43.5865" gradientUnits="userSpaceOnUse">
<stop stop-color="#F58220"/>
<stop offset="0.51" stop-color="#F04B24"/>
<stop offset="1" stop-color="#AB2C29"/>
</linearGradient>
<linearGradient id="paint8_linear_0_1" x1="-0.151021" y1="25.2525" x2="32.5866" y2="63.6194" gradientUnits="userSpaceOnUse">
<stop stop-color="#F58220"/>
<stop offset="0.51" stop-color="#F04B24"/>
<stop offset="1" stop-color="#AB2C29"/>
</linearGradient>
<linearGradient id="paint9_linear_0_1" x1="1.19943" y1="24.1048" x2="33.9287" y2="62.4717" gradientUnits="userSpaceOnUse">
<stop stop-color="#F58220"/>
<stop offset="0.51" stop-color="#F04B24"/>
<stop offset="1" stop-color="#AB2C29"/>
</linearGradient>
<linearGradient id="paint10_linear_0_1" x1="26.6727" y1="2.37076" x2="59.4019" y2="40.7377" gradientUnits="userSpaceOnUse">
<stop stop-color="#F58220"/>
<stop offset="0.51" stop-color="#F04B24"/>
<stop offset="1" stop-color="#AB2C29"/>
</linearGradient>
<linearGradient id="paint11_linear_0_1" x1="29.0128" y1="0.376806" x2="61.742" y2="38.7437" gradientUnits="userSpaceOnUse">
<stop stop-color="#F58220"/>
<stop offset="0.51" stop-color="#F04B24"/>
<stop offset="1" stop-color="#AB2C29"/>
</linearGradient>
<linearGradient id="paint12_linear_0_1" x1="30.2122" y1="-0.653733" x2="62.9498" y2="37.7132" gradientUnits="userSpaceOnUse">
<stop stop-color="#F58220"/>
<stop offset="0.51" stop-color="#F04B24"/>
<stop offset="1" stop-color="#AB2C29"/>
</linearGradient>
<linearGradient id="paint13_linear_0_1" x1="30.1871" y1="-0.628699" x2="62.9163" y2="37.7382" gradientUnits="userSpaceOnUse">
<stop stop-color="#F58220"/>
<stop offset="0.51" stop-color="#F04B24"/>
<stop offset="1" stop-color="#AB2C29"/>
</linearGradient>
<linearGradient id="paint14_linear_0_1" x1="28.929" y1="0.443692" x2="61.6666" y2="38.8106" gradientUnits="userSpaceOnUse">
<stop stop-color="#F58220"/>
<stop offset="0.51" stop-color="#F04B24"/>
<stop offset="1" stop-color="#AB2C29"/>
</linearGradient>
<linearGradient id="paint15_linear_0_1" x1="26.6392" y1="2.396" x2="59.3684" y2="40.7629" gradientUnits="userSpaceOnUse">
<stop stop-color="#F58220"/>
<stop offset="0.51" stop-color="#F04B24"/>
<stop offset="1" stop-color="#AB2C29"/>
</linearGradient>
<linearGradient id="paint16_linear_0_1" x1="19.5432" y1="8.45355" x2="52.2724" y2="46.8204" gradientUnits="userSpaceOnUse">
<stop stop-color="#F58220"/>
<stop offset="0.51" stop-color="#F04B24"/>
<stop offset="1" stop-color="#AB2C29"/>
</linearGradient>
<linearGradient id="paint17_linear_0_1" x1="23.477" y1="5.10235" x2="56.2062" y2="43.4692" gradientUnits="userSpaceOnUse">
<stop stop-color="#F58220"/>
<stop offset="0.51" stop-color="#F04B24"/>
<stop offset="1" stop-color="#AB2C29"/>
</linearGradient>
<linearGradient id="paint18_linear_0_1" x1="21.7659" y1="20.7029" x2="40.7998" y2="41.7955" gradientUnits="userSpaceOnUse">
<stop stop-color="#F58220"/>
<stop offset="0.51" stop-color="#F04B24"/>
<stop offset="1" stop-color="#AB2C29"/>
</linearGradient>
<clipPath id="clip0_0_1">
<rect width="1920" height="6043" fill="white" transform="translate(-302 -2)"/>
</clipPath>
<clipPath id="clip1_0_1">
<rect width="162.712" height="48" fill="white"/>
</clipPath>
</defs>
</svg>
